<svg id="Grupo_2577" data-name="Grupo 2577" xmlns="http://www.w3.org/2000/svg" width="78.745" height="78.745" viewBox="0 0 78.745 78.745">
  <path id="Caminho_718" data-name="Caminho 718" d="M181.123,174.124a7.876,7.876,0,0,0-14.816-3.722,7.876,7.876,0,0,0-6.183,7.659,7.723,7.723,0,0,0,.569,2.89,7.781,7.781,0,0,0-1.882,10.61v31.123h2.625V192.5h44.622v14.436a1.311,1.311,0,0,0,.277.806l7.538,9.694h-6.5a1.312,1.312,0,0,0-1.312,1.312v3.937h2.625v-2.625h7.874a1.313,1.313,0,0,0,1.036-2.119l-8.91-11.455V192.5A1.312,1.312,0,0,0,210,191.186v-3.95a1.311,1.311,0,0,0-.9-1.247l-4.508-1.483a20.006,20.006,0,0,0-1-2.408l1.912-4.008a1.312,1.312,0,0,0-.114-1.324,24.8,24.8,0,0,0-5.9-5.9,1.316,1.316,0,0,0-1.324-.114l-4.009,1.912a20.165,20.165,0,0,0-2.408-1l-1.483-4.508a1.311,1.311,0,0,0-1.246-.9h-3.95a1.312,1.312,0,0,0-1.312,1.312v9.187a1.312,1.312,0,0,0,1.312,1.312,13.142,13.142,0,0,1,13.057,11.812H181.006a7.986,7.986,0,0,0,.118-1.312Zm5.25,1.367v-6.617h1.688l1.4,4.242a1.312,1.312,0,0,0,.874.848,17.476,17.476,0,0,1,3.184,1.319,1.321,1.321,0,0,0,1.18.025l3.884-1.853a22.219,22.219,0,0,1,4.211,4.211l-1.853,3.883a1.306,1.306,0,0,0,.025,1.18,17.287,17.287,0,0,1,1.319,3.184,1.316,1.316,0,0,0,.848.873l4.243,1.4v1.688h-6.616a15.775,15.775,0,0,0-14.383-14.381ZM160.84,189.873a5.159,5.159,0,0,1-.715-2.625A5.234,5.234,0,0,1,163,182.6a1.255,1.255,0,0,0,.3-.244,5.245,5.245,0,0,1,3.389,4.893h2.625a7.885,7.885,0,0,0-6.335-7.721,5.065,5.065,0,0,1-.227-1.466,5.23,5.23,0,0,1,4.1-5.067,7.838,7.838,0,0,0,7.715,6.38v-2.625a5.2,5.2,0,0,1-5.156-6.183,5.239,5.239,0,0,1,9.094,3.558v10.325a5.2,5.2,0,0,1-2.887-1.925l-2.1,1.576a7.805,7.805,0,0,0,4.987,3.028v1.433a5.337,5.337,0,0,1-.184,1.312Z" transform="translate(-147.001 -143.939)" fill="#fff"/>
  <path id="Caminho_719" data-name="Caminho 719" d="M366.624,388.937c-2.895,0-5.25-1.766-5.25-3.937H358.75c0,3.619,3.532,6.562,7.874,6.562S374.5,388.619,374.5,385h-2.625C371.874,387.171,369.519,388.937,366.624,388.937Z" transform="translate(-318.065 -329.879)" fill="#fff"/>
  <path id="Caminho_720" data-name="Caminho 720" d="M99.312,41.123A11.812,11.812,0,1,0,87.5,29.312,11.825,11.825,0,0,0,99.312,41.123Zm0-21a9.187,9.187,0,1,1-9.187,9.187A9.2,9.2,0,0,1,99.312,20.125Z" transform="translate(-87.5 -17.5)" fill="#fff"/>
  <path id="Caminho_721" data-name="Caminho 721" d="M140.692,65.467a1.315,1.315,0,0,0,1.348-.066l7.874-5.25a1.313,1.313,0,0,0,0-2.184l-7.874-5.25A1.313,1.313,0,0,0,140,53.81v10.5a1.313,1.313,0,0,0,.693,1.158Zm1.932-9.2,4.2,2.8-4.2,2.8Z" transform="translate(-132.125 -47.248)" fill="#fff"/>
  <path id="Caminho_722" data-name="Caminho 722" d="M305.428,17.888a1.312,1.312,0,0,0-2.24.928v3.937H267.752v2.625H304.5a1.312,1.312,0,0,0,1.312-1.312V21.983L311.831,28l-6.019,6.019V31.94a1.312,1.312,0,0,0-1.312-1.312h-42v2.625h40.685v3.937a1.312,1.312,0,0,0,2.24.928l9.187-9.187a1.311,1.311,0,0,0,0-1.856Z" transform="translate(-236.254 -17.503)" fill="#fff"/>
  <path id="Caminho_723" data-name="Caminho 723" d="M262.5,52.5h2.625v2.625H262.5Z" transform="translate(-236.252 -47.25)" fill="#fff"/>
</svg>
