<svg xmlns="http://www.w3.org/2000/svg" width="102.783" height="58.062" viewBox="0 0 102.783 58.062">
  <g id="Grupo_2582" data-name="Grupo 2582" transform="translate(0 0)">
    <path id="Caminho_871" data-name="Caminho 871" d="M188.666,162.555l-12.259-30.7a1.558,1.558,0,0,0-2.007-.876l-13.089,5.048a1.557,1.557,0,0,0-.889,2.023l.8,2.036-5.953,1.6-8.759-2.944a17.368,17.368,0,0,0-12.023.37,6.466,6.466,0,0,0-3-1.23,8.652,8.652,0,0,0-5.5,1.1l-7.494,4.231-3.135-1.542,1.163-2.318a1.558,1.558,0,0,0-.7-2.095l-12.578-6.194a1.556,1.556,0,0,0-2.077.691L86.163,161.244a1.557,1.557,0,0,0,.682,2.093l12.661,6.442a1.557,1.557,0,0,0,.706.17,1.555,1.555,0,0,0,1.392-.859l.958-1.911,4.252,2.649a4.488,4.488,0,0,0,1.722,4.8l1.094.789a4.536,4.536,0,0,0,2.666.862l.017,0a5.011,5.011,0,0,0,.088.8,4.739,4.739,0,0,0,4.661,3.783c.114,0,.227-.036.341-.043.008.1,0,.208.011.312a4.665,4.665,0,0,0,4.654,4.061,5,5,0,0,0,1.523-.271,5.075,5.075,0,0,0,4.651,3.141,4.18,4.18,0,0,0,3.366-1.594l.822-1.075c1.722,1.414,4.834,3.546,7.983,3.546a6.3,6.3,0,0,0,5.8-3.767,6.534,6.534,0,0,0,1.344.157h.022c2.527-.009,4.752-1.515,6.631-4.445a6.741,6.741,0,0,0,1.495.192c.127,0,.255,0,.383-.012,2.531-.158,4.616-1.831,6.219-4.937a5.78,5.78,0,0,0,.839.116c.068,0,.137,0,.2,0a4.792,4.792,0,0,0,3.782-1.818,7.514,7.514,0,0,0,2.065-5.481,5.438,5.438,0,0,0-.245-1.18l2.807-.846.814,2.071a1.557,1.557,0,0,0,2.029.876l13.194-5.287a1.558,1.558,0,0,0,.868-2.024Zm-89.142,3.739-9.878-5.026,13.591-26.725,9.792,4.822-1.166,2.327,0,0s0,0,0,0Zm10.839,5.81a1.4,1.4,0,0,1-.567-.919,1.379,1.379,0,0,1,.255-1.038,1.448,1.448,0,0,1,2.01-.309l1.093.789a1.4,1.4,0,0,1,.567.92,1.379,1.379,0,0,1-.255,1.038,1.448,1.448,0,0,1-2.01.31Zm5.812,5.387a1.666,1.666,0,0,1-.726-1.074,2.245,2.245,0,0,1,.336-1.68l.882-1.359a2.031,2.031,0,0,1,2.724-.793,1.665,1.665,0,0,1,.727,1.074,2.245,2.245,0,0,1-.335,1.68l-.884,1.36a2.032,2.032,0,0,1-2.725.794Zm4.937,4.271a1.577,1.577,0,0,1-.609-1.059,1.952,1.952,0,0,1,.4-1.457l2.96-3.872a1.843,1.843,0,0,1,2.534-.49,1.575,1.575,0,0,1,.608,1.058,1.957,1.957,0,0,1-.4,1.458l-.207.271,0,0-2.35,3.073,0,0-.4.523a1.844,1.844,0,0,1-2.534.49Zm5.986,2.78a1.828,1.828,0,0,1-.742-1.175.967.967,0,0,1,.166-.728l2.259-2.956.09-.118a1.075,1.075,0,0,1,.878-.379,1.976,1.976,0,0,1,1.161.41,1.828,1.828,0,0,1,.742,1.175.968.968,0,0,1-.166.728l-2.35,3.073a1.509,1.509,0,0,1-2.039-.03Zm37.64-12.107a1.683,1.683,0,0,1-1.472.692c-3.2-.121-8.682-6.206-11.386-10.013a1.557,1.557,0,0,0-2.54,1.8c.636.9,5.294,7.3,10.067,10.06-1.03,1.893-2.209,2.894-3.512,2.976-3.652.261-8.548-6.206-9.959-8.481a1.557,1.557,0,0,0-2.649,1.639c.481.778,3.805,5.99,8,8.549-1.179,1.68-2.423,2.545-3.715,2.551h-.014c-3.119,0-6.464-4.576-7.491-6.342a1.557,1.557,0,0,0-2.694,1.562,20.962,20.962,0,0,0,5.945,6.51,3.438,3.438,0,0,1-2.253,1.819c-2.2.427-5.1-1.5-6.78-2.893a4.09,4.09,0,0,0,.454-2.52,4.958,4.958,0,0,0-1.956-3.24,5.056,5.056,0,0,0-2.665-1,5.013,5.013,0,0,0-.021-.585,4.668,4.668,0,0,0-1.822-3.123,4.863,4.863,0,0,0-5.381-.238,4.714,4.714,0,0,0-1.826-2.2,4.919,4.919,0,0,0-4.733-.256,4.486,4.486,0,0,0-1.357-1.6l-1.093-.789a4.559,4.559,0,0,0-5.266-.032l-4.651-2.9,9.992-19.924,3.893,1.915a1.557,1.557,0,0,0,1.453-.042l8.209-4.635a5.561,5.561,0,0,1,3.5-.736h0a15.317,15.317,0,0,0-5.542,6.926c-1.994,5.151.414,7.92,1.981,8.672a5.946,5.946,0,0,0,4.9.3c2.331-.944,3.66-3.345,4.365-5.193a2.373,2.373,0,0,1,1.265-1.326,2.423,2.423,0,0,1,2.062.038l9.47,4.657a37.082,37.082,0,0,1,10.213,7.408,63.583,63.583,0,0,0,5.035,4.624,3.269,3.269,0,0,1,1.332,2.167,4.608,4.608,0,0,1-1.36,3.2Zm2.41-7.38c-.135-.129-.25-.265-.4-.389a60.524,60.524,0,0,1-4.788-4.4,40.21,40.21,0,0,0-11.068-8.028l-9.471-4.657a5.524,5.524,0,0,0-4.705-.087,5.467,5.467,0,0,0-2.907,3.062c-.4,1.039-1.263,2.864-2.623,3.414a2.9,2.9,0,0,1-2.358-.208c-.193-.106-1.842-1.147-.446-4.751a12.4,12.4,0,0,1,5.352-6.1,14.266,14.266,0,0,1,11.782-1.224l9.205,3.095a1.562,1.562,0,0,0,.9.028L162.367,143l8.252,21.008Zm7.753,1.335-11.007-28.024,10.191-3.93L185.2,162.264Z" transform="translate(-85.994 -130.874)" fill="#fff"/>
    <path id="Caminho_872" data-name="Caminho 872" d="M137.34,267.442a1.558,1.558,0,0,0-1.7,2.538,1.635,1.635,0,0,0,1.106.452,1.569,1.569,0,0,0,1.557-1.557,1.585,1.585,0,0,0-.468-1.106A1.532,1.532,0,0,0,137.34,267.442Z" transform="translate(-125.614 -240.758)" fill="#fff"/>
    <path id="Caminho_873" data-name="Caminho 873" d="M554.437,270.422a1.552,1.552,0,0,0,1.09-2.663,1.529,1.529,0,0,0-1.681-.327,1.445,1.445,0,0,0-.514.327,1.579,1.579,0,0,0,0,2.211A1.635,1.635,0,0,0,554.437,270.422Z" transform="translate(-461.995 -240.751)" fill="#fff"/>
  </g>
</svg>
