<svg xmlns="http://www.w3.org/2000/svg" width="85" height="64.153" viewBox="0 0 85 64.153">
  <g id="Grupo_2580" data-name="Grupo 2580" transform="translate(0)">
    <path id="Caminho_826" data-name="Caminho 826" d="M241.988,144.87c-2.367-.914-4.526-1.785-5.647-2.865a8.519,8.519,0,0,0,6.353-7.972v-8.844a13.766,13.766,0,0,0-13.246-13.412h-.042c-7.142,0-13.287,6.353-13.287,13.578v8.637a8.173,8.173,0,0,0,5.938,7.931c-1.08,1.08-3.446,1.993-5.813,2.907-6.062,2.367-14.408,5.606-15.53,16.526a4.7,4.7,0,0,0,2.907,4.775l22.421,9.177a7.892,7.892,0,0,0,6.146,0l22.382-9.177a4.7,4.7,0,0,0,2.906-4.775c-1.038-10.879-9.384-14.118-15.488-16.485Zm11.419,18.27-22.382,9.177a4.755,4.755,0,0,1-3.7,0l-22.421-9.177a1.489,1.489,0,0,1-.914-1.453c.914-8.927,7.557-11.543,13.412-13.827,2.99-1.163,5.564-2.159,7.142-3.945a3.262,3.262,0,0,0,.664-2.99,3.176,3.176,0,0,0-2.242-2.159,5.116,5.116,0,0,1-3.862-4.817v-8.6a10.479,10.479,0,0,1,10.09-10.3h.166a10.561,10.561,0,0,1,10.049,10.132v8.844a5.316,5.316,0,0,1-4.028,4.858,3.348,3.348,0,0,0-2.325,2.2,3.008,3.008,0,0,0,.664,2.99c1.578,1.7,4.111,2.7,7.059,3.862,5.9,2.284,12.581,4.9,13.453,13.827a1.247,1.247,0,0,1-.83,1.37Z" transform="translate(-186.745 -111.776)" fill="#fff"/>
    <path id="Caminho_827" data-name="Caminho 827" d="M138.241,169.756l-7.184-3.073a.932.932,0,0,1-.581-.914c.747-7.35,6.27-9.509,11.128-11.377,2.574-1,4.775-1.869,6.1-3.4a2.906,2.906,0,0,0,.623-2.865,2.691,2.691,0,0,0-1.91-1.91,3.736,3.736,0,0,1-2.741-3.779v-7.308a8.416,8.416,0,0,1,7.889-8.388h.042a6.327,6.327,0,0,1,2.865.706,1.663,1.663,0,1,0,1.37-3.031,9.723,9.723,0,0,0-4.277-1h-.291v-.042l.083.042c-5.979.166-10.921,5.481-10.921,11.71v7.266a7.184,7.184,0,0,0,4.484,6.768,19.462,19.462,0,0,1-4.443,2.076c-5.19,2.035-12.332,4.775-13.246,14.159a4.275,4.275,0,0,0,2.574,4.318l7.142,3.073a1.721,1.721,0,0,0,.664.125,1.676,1.676,0,0,0,1.536-1,1.65,1.65,0,0,0-.913-2.159Z" transform="translate(-127.221 -121.173)" fill="#fff"/>
    <path id="Caminho_828" data-name="Caminho 828" d="M448,165.573c-.955-9.343-8.056-12.125-13.246-14.159a18.236,18.236,0,0,1-4.318-2.076,7.287,7.287,0,0,0,4.734-6.768V135.3a11.791,11.791,0,0,0-11.5-11.71,10.593,10.593,0,0,0-4.4,1,1.639,1.639,0,0,0-.83,2.2,1.674,1.674,0,0,0,2.2.83,7.488,7.488,0,0,1,3.031-.706,8.519,8.519,0,0,1,8.18,8.388v7.266a3.988,3.988,0,0,1-2.99,3.779,2.916,2.916,0,0,0-1.412,4.775c1.37,1.536,3.571,2.408,6.1,3.4,4.858,1.91,10.381,4.069,11.128,11.377a.915.915,0,0,1-.623.914l-7.142,3.073a1.665,1.665,0,0,0,.664,3.2,1.881,1.881,0,0,0,.664-.125l7.142-3.073A4.135,4.135,0,0,0,448,165.573Z" transform="translate(-363.025 -121.35)" fill="#fff"/>
  </g>
</svg>
