<svg id="Grupo_2645" data-name="Grupo 2645" xmlns="http://www.w3.org/2000/svg" xmlns:xlink="http://www.w3.org/1999/xlink" width="334.102" height="98.994" viewBox="0 0 334.102 98.994">
  <defs>
    <linearGradient id="linear-gradient" x1="-1.545" y1="1.697" x2="-1.468" y2="1.697" gradientUnits="objectBoundingBox">
      <stop offset="0" stop-color="#00a0ff"/>
      <stop offset="0.007" stop-color="#00a1ff"/>
      <stop offset="0.26" stop-color="#00beff"/>
      <stop offset="0.512" stop-color="#00d2ff"/>
      <stop offset="0.76" stop-color="#00dfff"/>
      <stop offset="1" stop-color="#00e3ff"/>
    </linearGradient>
    <linearGradient id="linear-gradient-2" x1="-3.237" y1="4.007" x2="-3.139" y2="4.007" gradientUnits="objectBoundingBox">
      <stop offset="0" stop-color="#ffe000"/>
      <stop offset="0.409" stop-color="#ffbd00"/>
      <stop offset="0.775" stop-color="orange"/>
      <stop offset="1" stop-color="#ff9c00"/>
    </linearGradient>
    <linearGradient id="linear-gradient-3" x1="-1.225" y1="2.333" x2="-1.165" y2="2.333" gradientUnits="objectBoundingBox">
      <stop offset="0" stop-color="#ff3a44"/>
      <stop offset="1" stop-color="#c31162"/>
    </linearGradient>
    <linearGradient id="linear-gradient-4" x1="-1.225" y1="3.333" x2="-1.165" y2="3.333" gradientUnits="objectBoundingBox">
      <stop offset="0" stop-color="#32a071"/>
      <stop offset="0.068" stop-color="#2da771"/>
      <stop offset="0.476" stop-color="#15cf74"/>
      <stop offset="0.801" stop-color="#06e775"/>
      <stop offset="1" stop-color="#00f076"/>
    </linearGradient>
    <clipPath id="clip-path">
      <path id="path154" d="M27.247-34.491h41.3v21.6h-41.3Z" transform="translate(-27.247 34.491)"/>
    </clipPath>
    <clipPath id="clip-path-2">
      <path id="path170" d="M26.63-25.449h1.33v3.838H26.63Z" transform="translate(-26.63 25.449)"/>
    </clipPath>
    <clipPath id="clip-path-3">
      <path id="path186" d="M49.372-40H64.305v10.452H49.372Z" transform="translate(-49.372 39.998)"/>
    </clipPath>
    <clipPath id="clip-path-4">
      <path id="path202" d="M26.63-57.146H83.775v31.828H26.63Z" transform="translate(-26.63 57.146)"/>
    </clipPath>
  </defs>
  <path id="path36" d="M148.395,45.66H-160.959a12.411,12.411,0,0,1-12.374-12.374V-40.959a12.411,12.411,0,0,1,12.374-12.374H148.395a12.411,12.411,0,0,1,12.374,12.374V33.286A12.411,12.411,0,0,1,148.395,45.66" transform="translate(173.333 53.333)"/>
  <g id="g38" transform="translate(0 0)">
    <path id="path40" d="M148.395,0H-160.959a12.411,12.411,0,0,0-12.374,12.374V86.619a12.411,12.411,0,0,0,12.374,12.374H148.395a12.411,12.411,0,0,0,12.374-12.374V12.374A12.411,12.411,0,0,0,148.395,0m0,1.98a10.406,10.406,0,0,1,10.394,10.394V86.619a10.406,10.406,0,0,1-10.394,10.394H-160.959a10.406,10.406,0,0,1-10.394-10.394V12.374A10.406,10.406,0,0,1-160.959,1.98H148.395" transform="translate(173.333 0)" fill="#a6a6a6"/>
  </g>
  <path id="path42" d="M231.132-11.881h4.618V-42.819h-4.618Zm41.594-19.794-5.294,13.414h-.158L261.78-31.674h-4.974l8.239,18.747L260.35-2.5h4.814l12.7-29.176ZM246.538-15.4c-1.515,0-3.623-.755-3.623-2.628,0-2.386,2.626-3.3,4.9-3.3a8.232,8.232,0,0,1,4.22,1.034,5.6,5.6,0,0,1-5.492,4.9m.557-16.955c-3.344,0-6.808,1.473-8.239,4.737l4.1,1.71a4.378,4.378,0,0,1,4.22-2.269c2.388,0,4.816,1.433,4.856,3.982v.317a10.215,10.215,0,0,0-4.816-1.193c-4.418,0-8.917,2.428-8.917,6.964,0,4.14,3.623,6.808,7.682,6.808a6.513,6.513,0,0,0,5.893-3.027h.158v2.388h4.457V-23.795c0-5.492-4.1-8.555-9.392-8.555m-28.54,4.442h-6.568v-10.6h6.568a5.36,5.36,0,0,1,5.412,5.3,5.39,5.39,0,0,1-5.412,5.3m-.119-14.911H207.371v30.938h4.616V-23.6h6.449c5.118,0,10.149-3.707,10.149-9.61s-5.031-9.607-10.149-9.607M158.1-15.39a6.039,6.039,0,0,1-5.86-6.338c0-3.707,2.67-6.42,5.86-6.42,3.15,0,5.62,2.712,5.62,6.42,0,3.668-2.47,6.338-5.62,6.338m5.3-14.552h-.161a7.3,7.3,0,0,0-5.541-2.351,10.467,10.467,0,0,0-10.087,10.565A10.423,10.423,0,0,0,157.7-11.242a7.171,7.171,0,0,0,5.541-2.393h.161v1.517c0,4.027-2.153,6.18-5.623,6.18a5.825,5.825,0,0,1-5.3-3.749l-4.027,1.675a10.03,10.03,0,0,0,9.33,6.219c5.422,0,10.008-3.19,10.008-10.963v-18.9H163.4Zm7.575,18.061H175.6v-30.94h-4.625Zm11.441-10.206a5.775,5.775,0,0,1,5.5-6.14,4.072,4.072,0,0,1,3.908,2.232ZM196.772-25.6c-.876-2.351-3.549-6.7-9.011-6.7-5.422,0-9.927,4.264-9.927,10.525a10.3,10.3,0,0,0,10.444,10.525,10.469,10.469,0,0,0,8.773-4.665L193.463-18.3a6.011,6.011,0,0,1-5.185,2.91,5.356,5.356,0,0,1-5.1-3.188L197.249-24.4ZM84.642-29.064V-24.6H95.326a9.319,9.319,0,0,1-2.43,5.62,10.94,10.94,0,0,1-8.254,3.272A11.726,11.726,0,0,1,72.919-27.589,11.724,11.724,0,0,1,84.642-39.47,11.384,11.384,0,0,1,92.7-36.28l3.15-3.15a15.58,15.58,0,0,0-11.2-4.507A16.577,16.577,0,0,0,68.056-27.589,16.575,16.575,0,0,0,84.642-11.242a14.947,14.947,0,0,0,11.4-4.586c2.952-2.95,3.868-7.1,3.868-10.446a14.426,14.426,0,0,0-.24-2.789ZM112.061-15.39a6.089,6.089,0,0,1-5.942-6.378,6.066,6.066,0,0,1,5.942-6.38,6.065,6.065,0,0,1,5.94,6.38,6.089,6.089,0,0,1-5.94,6.378m0-16.9a10.375,10.375,0,0,0-10.568,10.525,10.4,10.4,0,0,0,10.568,10.525,10.4,10.4,0,0,0,10.565-10.525,10.374,10.374,0,0,0-10.565-10.525m23.048,16.9a6.089,6.089,0,0,1-5.942-6.378,6.066,6.066,0,0,1,5.942-6.38,6.064,6.064,0,0,1,5.94,6.38,6.087,6.087,0,0,1-5.94,6.378m0-16.9a10.374,10.374,0,0,0-10.565,10.525,10.4,10.4,0,0,0,10.565,10.525,10.4,10.4,0,0,0,10.565-10.525,10.374,10.374,0,0,0-10.565-10.525" transform="translate(33.516 86.126)" fill="#fff"/>
  <g id="g44" transform="translate(24.682 18.475)">
    <g id="g46">
      <g id="g52">
        <g id="g54">
          <path id="path70" d="M27.774-56.533a4.967,4.967,0,0,0-1.143,3.477h0V1.678a4.963,4.963,0,0,0,1.143,3.477h0l.183.178L58.62-25.327v-.725L27.957-56.713Z" transform="translate(-26.631 56.713)" fill="url(#linear-gradient)"/>
        </g>
      </g>
    </g>
  </g>
  <g id="g72" transform="translate(56.67 38.915)">
    <g id="g74">
      <g id="g80">
        <g id="g82">
          <path id="path94" d="M43.865-35.48v.725L54.084-24.529l.233-.131,12.109-6.88c3.457-1.967,3.457-5.185,0-7.147h0L54.316-45.57l-.23-.131Z" transform="translate(-43.865 45.701)" fill="url(#linear-gradient-2)"/>
        </g>
      </g>
    </g>
  </g>
  <g id="g96" transform="translate(25.825 49.5)">
    <g id="g98">
      <g id="g104">
        <g id="g106">
          <path id="path114" d="M27.247-9.155C28.387-7.95,30.271-7.8,32.392-9h0L68.544-29.545,58.093-40Z" transform="translate(-27.247 39.999)" fill="url(#linear-gradient-3)"/>
        </g>
      </g>
    </g>
  </g>
  <g id="g116" transform="translate(25.825 17.671)">
    <g id="g118">
      <g id="g124">
        <g id="g126">
          <path id="path140" d="M27.247-56.162,58.093-25.318,68.544-35.771,32.392-56.313a5.684,5.684,0,0,0-2.774-.834h0a3.17,3.17,0,0,0-2.371.985" transform="translate(-27.247 57.147)" fill="url(#linear-gradient-4)"/>
        </g>
      </g>
    </g>
  </g>
  <g id="g150" transform="translate(25.827 59.723)">
    <g id="g164">
      <g id="g162" opacity="0.2" clip-path="url(#clip-path)">
        <g id="g160" transform="translate(0.001 0)">
          <path id="path158" d="M18.941,0-16.981,20.41c-2.01,1.143-3.806,1.067-4.96.027l-.183.186.183.178v0c1.153,1.039,2.95,1.116,4.96-.027L19.171.23Z" transform="translate(22.124)"/>
        </g>
      </g>
    </g>
  </g>
  <g id="g166" transform="translate(24.68 76.506)">
    <g id="g180" transform="translate(0 0)">
      <g id="g178" opacity="0.12" clip-path="url(#clip-path-2)">
        <g id="g176" transform="translate(0 0)">
          <path id="path174" d="M.529,1.6A4.956,4.956,0,0,1-.617-1.873v.361A4.956,4.956,0,0,0,.529,1.965l.186-.183Z" transform="translate(0.617 1.873)"/>
        </g>
      </g>
    </g>
  </g>
  <g id="g182" transform="translate(66.89 49.501)">
    <g id="g196">
      <g id="g194" opacity="0.12" clip-path="url(#clip-path-3)">
        <g id="g192" transform="translate(0 0.001)">
          <path id="path190" d="M5.692,1.481-6.648,8.492l.23.23L5.692,1.842C7.421.859,8.285-.435,8.285-1.729a4.606,4.606,0,0,1-2.594,3.21" transform="translate(6.648 1.729)"/>
        </g>
      </g>
    </g>
  </g>
  <g id="g198" transform="translate(24.68 17.671)">
    <g id="g212">
      <g id="g210" opacity="0.25" clip-path="url(#clip-path-4)">
        <g id="g208" transform="translate(0 0)">
          <path id="path206" d="M2.9.551,51.162,27.972a4.6,4.6,0,0,1,2.594,3.212c0-1.294-.864-2.591-2.594-3.574L2.9.19C-.559-1.775-3.388-.144-3.388,3.818v.361C-3.388.219-.559-1.414,2.9.551" transform="translate(3.388 0.644)" fill="#fff"/>
        </g>
      </g>
    </g>
  </g>
  <g id="g214" transform="translate(102.303 17.323)">
    <path id="path216" d="M.879,6.008H3.512A5.57,5.57,0,0,0,7.588,4.535,5.516,5.516,0,0,0,9.09.407a5.521,5.521,0,0,0-1.5-4.116A5.556,5.556,0,0,0,3.512-5.191H.879ZM-1.027,7.832V-7.017H3.512A7.381,7.381,0,0,1,8.989-4.953,7.272,7.272,0,0,1,11.041.407a7.265,7.265,0,0,1-2.052,5.36A7.371,7.371,0,0,1,3.512,7.832Z" transform="translate(1.027 7.017)" fill="#fff"/>
  </g>
  <g id="g218" transform="translate(102.303 17.323)">
    <path id="path220" d="M.879,6.008H3.512A5.57,5.57,0,0,0,7.588,4.535,5.516,5.516,0,0,0,9.09.407a5.521,5.521,0,0,0-1.5-4.116A5.556,5.556,0,0,0,3.512-5.191H.879ZM-1.027,7.832V-7.017H3.512A7.381,7.381,0,0,1,8.989-4.953,7.272,7.272,0,0,1,11.041.407a7.265,7.265,0,0,1-2.052,5.36A7.371,7.371,0,0,1,3.512,7.832Z" transform="translate(1.027 7.017)" fill="none" stroke="#fff" stroke-miterlimit="10" stroke-width="0.267"/>
  </g>
  <path id="path222" d="M76.4-57.333H78.3v14.849H76.4Z" transform="translate(40.657 74.657)" fill="#fff" stroke="#fff" stroke-miterlimit="10" stroke-width="0.267"/>
  <g id="g224" transform="translate(121.363 16.992)">
    <path id="path226" d="M2.391,7.155A5.527,5.527,0,0,1-.769,6.1,4.888,4.888,0,0,1-2.793,3.131l1.742-.7A3.976,3.976,0,0,0,.223,4.49a3.227,3.227,0,0,0,2.168.841,3.469,3.469,0,0,0,2.126-.653A2.089,2.089,0,0,0,5.4,2.9,2.27,2.27,0,0,0,4.517.985,9.159,9.159,0,0,0,1.728-.27,7.474,7.474,0,0,1-1.259-1.876,3.369,3.369,0,0,1-2.276-4.4,3.681,3.681,0,0,1-1.009-7.174a4.641,4.641,0,0,1,3.3-1.183,4.766,4.766,0,0,1,3.069.943A4.348,4.348,0,0,1,6.891-5.35l-1.74.725a2.592,2.592,0,0,0-.923-1.307,2.915,2.915,0,0,0-1.9-.6A2.935,2.935,0,0,0,.454-5.92,1.866,1.866,0,0,0-.326-4.4,1.732,1.732,0,0,0,.389-3,6.882,6.882,0,0,0,2.5-1.97a17.576,17.576,0,0,1,1.836.686A8.392,8.392,0,0,1,5.824-.4,3.518,3.518,0,0,1,6.965.965a4.443,4.443,0,0,1,.384,1.9A4.093,4.093,0,0,1,6.9,4.791,3.629,3.629,0,0,1,5.72,6.14,5.806,5.806,0,0,1,4.134,6.9a5.931,5.931,0,0,1-1.742.26" transform="translate(2.793 8.357)" fill="#fff"/>
  </g>
  <g id="g228" transform="translate(121.363 16.992)">
    <path id="path230" d="M2.391,7.155A5.527,5.527,0,0,1-.769,6.1,4.888,4.888,0,0,1-2.793,3.131l1.742-.7A3.976,3.976,0,0,0,.223,4.49a3.227,3.227,0,0,0,2.168.841,3.469,3.469,0,0,0,2.126-.653A2.089,2.089,0,0,0,5.4,2.9,2.27,2.27,0,0,0,4.517.985,9.159,9.159,0,0,0,1.728-.27,7.474,7.474,0,0,1-1.259-1.876,3.369,3.369,0,0,1-2.276-4.4,3.681,3.681,0,0,1-1.009-7.174a4.641,4.641,0,0,1,3.3-1.183,4.766,4.766,0,0,1,3.069.943A4.348,4.348,0,0,1,6.891-5.35l-1.74.725a2.592,2.592,0,0,0-.923-1.307,2.915,2.915,0,0,0-1.9-.6A2.935,2.935,0,0,0,.454-5.92,1.866,1.866,0,0,0-.326-4.4,1.732,1.732,0,0,0,.389-3,6.882,6.882,0,0,0,2.5-1.97a17.576,17.576,0,0,1,1.836.686A8.392,8.392,0,0,1,5.824-.4,3.518,3.518,0,0,1,6.965.965a4.443,4.443,0,0,1,.384,1.9A4.093,4.093,0,0,1,6.9,4.791,3.629,3.629,0,0,1,5.72,6.14,5.806,5.806,0,0,1,4.134,6.9,5.931,5.931,0,0,1,2.391,7.155Z" transform="translate(2.793 8.357)" fill="none" stroke="#fff" stroke-miterlimit="10" stroke-width="0.267"/>
  </g>
  <g id="g232" transform="translate(134.243 17.324)">
    <path id="path234" d="M.879,3.233h3.2A2.459,2.459,0,0,0,6,2.426,2.607,2.607,0,0,0,6.727.642,2.607,2.607,0,0,0,6-1.143a2.461,2.461,0,0,0-1.928-.809H.879Zm0,7.84H-1.027V-3.776H4.032A4.693,4.693,0,0,1,7.3-2.521,4.088,4.088,0,0,1,8.677.642,4.08,4.08,0,0,1,7.3,3.8,4.684,4.684,0,0,1,4.032,5.059H.879Z" transform="translate(1.027 3.776)" fill="#fff"/>
  </g>
  <g id="g236" transform="translate(134.243 17.324)">
    <path id="path238" d="M.879,3.233h3.2A2.459,2.459,0,0,0,6,2.426,2.607,2.607,0,0,0,6.727.642,2.607,2.607,0,0,0,6-1.143a2.461,2.461,0,0,0-1.928-.809H.879Zm0,7.84H-1.027V-3.776H4.032A4.693,4.693,0,0,1,7.3-2.521,4.088,4.088,0,0,1,8.677.642,4.08,4.08,0,0,1,7.3,3.8,4.684,4.684,0,0,1,4.032,5.059H.879Z" transform="translate(1.027 3.776)" fill="none" stroke="#fff" stroke-miterlimit="10" stroke-width="0.267"/>
  </g>
  <g id="g240" transform="translate(145.421 16.99)">
    <path id="path242" d="M1.659,5.544A5.446,5.446,0,0,0,5.693,7.212,5.45,5.45,0,0,0,9.727,5.544a5.816,5.816,0,0,0,1.651-4.262A5.812,5.812,0,0,0,9.727-2.979,5.452,5.452,0,0,0,5.693-4.65,5.448,5.448,0,0,0,1.659-2.979,5.82,5.82,0,0,0,.01,1.283,5.824,5.824,0,0,0,1.659,5.544m9.479,1.242A7.283,7.283,0,0,1,5.693,9.039,7.274,7.274,0,0,1,.25,6.787a7.587,7.587,0,0,1-2.188-5.5A7.593,7.593,0,0,1,.25-4.224,7.283,7.283,0,0,1,5.693-6.476a7.282,7.282,0,0,1,5.435,2.262,7.591,7.591,0,0,1,2.2,5.5,7.6,7.6,0,0,1-2.188,5.5" transform="translate(1.937 6.476)" fill="#fff"/>
  </g>
  <g id="g244" transform="translate(145.421 16.99)">
    <path id="path246" d="M1.659,5.544A5.446,5.446,0,0,0,5.693,7.212,5.45,5.45,0,0,0,9.727,5.544a5.816,5.816,0,0,0,1.651-4.262A5.812,5.812,0,0,0,9.727-2.979,5.452,5.452,0,0,0,5.693-4.65,5.448,5.448,0,0,0,1.659-2.979,5.82,5.82,0,0,0,.01,1.283,5.824,5.824,0,0,0,1.659,5.544Zm9.479,1.242A7.283,7.283,0,0,1,5.693,9.039,7.274,7.274,0,0,1,.25,6.787a7.587,7.587,0,0,1-2.188-5.5A7.593,7.593,0,0,1,.25-4.224,7.283,7.283,0,0,1,5.693-6.476a7.282,7.282,0,0,1,5.435,2.262,7.591,7.591,0,0,1,2.2,5.5A7.6,7.6,0,0,1,11.137,6.787Z" transform="translate(1.937 6.476)" fill="none" stroke="#fff" stroke-miterlimit="10" stroke-width="0.267"/>
  </g>
  <g id="g248" transform="translate(163.361 17.324)">
    <path id="path250" d="M0,6.849V-8H2.324L9.538,3.55h.084L9.538.689V-8h1.911V6.849H9.456L1.906-5.263H1.824L1.906-2.4V6.849Z" transform="translate(0 8)" fill="#fff"/>
  </g>
  <g id="g252" transform="translate(163.361 17.324)">
    <path id="path254" d="M0,6.849V-8H2.324L9.538,3.55h.084L9.538.689V-8h1.911V6.849H9.456L1.906-5.263H1.824L1.906-2.4V6.849Z" transform="translate(0 8)" fill="none" stroke="#fff" stroke-miterlimit="10" stroke-width="0.267"/>
  </g>
  <g id="g256" transform="translate(178.209 13.507)">
    <path id="path258" d="M.823,1.225H-.838L.244-1.431H2.318ZM-.961,2.386H.947V17.234H-.961Z" transform="translate(0.961 1.431)" fill="#fff"/>
  </g>
  <g id="g260" transform="translate(178.209 13.507)">
    <path id="path262" d="M.823,1.225H-.838L.244-1.431H2.318ZM-.961,2.386H.947V17.234H-.961Z" transform="translate(0.961 1.431)" fill="none" stroke="#fff" stroke-miterlimit="10" stroke-width="0.267"/>
  </g>
  <g id="g264" transform="translate(181.964 17.324)">
    <path id="path266" d="M2.41,6.849-2.815-8H-.7L3.365,4.05h.082L7.679-8H9.792L4.4,6.849Z" transform="translate(2.815 8)" fill="#fff"/>
  </g>
  <g id="g268" transform="translate(181.964 17.324)">
    <path id="path270" d="M2.41,6.849-2.815-8H-.7L3.365,4.05h.082L7.679-8H9.792L4.4,6.849Z" transform="translate(2.815 8)" fill="none" stroke="#fff" stroke-miterlimit="10" stroke-width="0.267"/>
  </g>
  <g id="g272" transform="translate(196.728 17.325)">
    <path id="path274" d="M4,.841H-2.763V5.548h6.1V7.333h-6.1V12.04H4v1.826H-4.671V-.983H4Z" transform="translate(4.671 0.983)" fill="#fff"/>
  </g>
  <g id="g276" transform="translate(196.728 17.325)">
    <path id="path278" d="M4,.841H-2.763V5.548h6.1V7.333h-6.1V12.04H4v1.826H-4.671V-.983H4Z" transform="translate(4.671 0.983)" fill="none" stroke="#fff" stroke-miterlimit="10" stroke-width="0.267"/>
  </g>
  <g id="g280" transform="translate(208.384 17.324)">
    <path id="path282" d="M0,6.849V-8H1.908V5.025H8.335V6.849Z" transform="translate(0 8)" fill="#fff"/>
  </g>
  <g id="g284" transform="translate(208.384 17.324)">
    <path id="path286" d="M0,6.849V-8H1.908V5.025H8.335V6.849Z" transform="translate(0 8)" fill="none" stroke="#fff" stroke-miterlimit="10" stroke-width="0.267"/>
  </g>
  <g id="g288" transform="translate(224.106 17.324)">
    <path id="path290" d="M0,6.849V-8H2.324L9.54,3.55h.082L9.54.689V-8h1.908V6.849H9.456L1.908-5.263H1.824L1.908-2.4V6.849Z" transform="translate(0 8)" fill="#fff"/>
  </g>
  <g id="g292" transform="translate(224.106 17.324)">
    <path id="path294" d="M0,6.849V-8H2.324L9.54,3.55h.082L9.54.689V-8h1.908V6.849H9.456L1.908-5.263H1.824L1.908-2.4V6.849Z" transform="translate(0 8)" fill="none" stroke="#fff" stroke-miterlimit="10" stroke-width="0.267"/>
  </g>
  <g id="g296" transform="translate(238.019 16.99)">
    <path id="path298" d="M1.659,5.544A5.446,5.446,0,0,0,5.693,7.212,5.45,5.45,0,0,0,9.727,5.544a5.816,5.816,0,0,0,1.651-4.262A5.812,5.812,0,0,0,9.727-2.979,5.452,5.452,0,0,0,5.693-4.65,5.448,5.448,0,0,0,1.659-2.979,5.82,5.82,0,0,0,.01,1.283,5.824,5.824,0,0,0,1.659,5.544m9.479,1.242A7.283,7.283,0,0,1,5.693,9.039,7.274,7.274,0,0,1,.25,6.787a7.587,7.587,0,0,1-2.188-5.5A7.593,7.593,0,0,1,.25-4.224,7.283,7.283,0,0,1,5.693-6.476a7.282,7.282,0,0,1,5.435,2.262,7.591,7.591,0,0,1,2.2,5.5,7.6,7.6,0,0,1-2.188,5.5" transform="translate(1.937 6.476)" fill="#fff"/>
  </g>
  <g id="g300" transform="translate(238.019 16.99)">
    <path id="path302" d="M1.659,5.544A5.446,5.446,0,0,0,5.693,7.212,5.45,5.45,0,0,0,9.727,5.544a5.816,5.816,0,0,0,1.651-4.262A5.812,5.812,0,0,0,9.727-2.979,5.452,5.452,0,0,0,5.693-4.65,5.448,5.448,0,0,0,1.659-2.979,5.82,5.82,0,0,0,.01,1.283,5.824,5.824,0,0,0,1.659,5.544Zm9.479,1.242A7.283,7.283,0,0,1,5.693,9.039,7.274,7.274,0,0,1,.25,6.787a7.587,7.587,0,0,1-2.188-5.5A7.593,7.593,0,0,1,.25-4.224,7.283,7.283,0,0,1,5.693-6.476a7.282,7.282,0,0,1,5.435,2.262,7.591,7.591,0,0,1,2.2,5.5A7.6,7.6,0,0,1,11.137,6.787Z" transform="translate(1.937 6.476)" fill="none" stroke="#fff" stroke-miterlimit="10" stroke-width="0.267"/>
  </g>
</svg>
