<svg xmlns="http://www.w3.org/2000/svg" width="47" height="68.446" viewBox="0 0 47 68.446">
  <g id="Grupo_2579" data-name="Grupo 2579" transform="translate(0)">
    <path id="Caminho_746" data-name="Caminho 746" d="M415.037,261.136a6.442,6.442,0,0,1-6.43-6.429,1.884,1.884,0,1,1,3.768,0,2.669,2.669,0,0,0,5.337,0,1.884,1.884,0,1,1,3.768,0,6.442,6.442,0,0,1-6.442,6.43Z" transform="translate(-374.48 -220.362)" fill="#fff"/>
    <path id="Caminho_747" data-name="Caminho 747" d="M227.835,111.859,221.92,83.6a1.871,1.871,0,0,1,0-.766A6.436,6.436,0,0,1,234.6,81.111l4.967,17.763,4.489-18.259a6.436,6.436,0,0,1,12.766,1.576,1.921,1.921,0,0,1-.031.2l-2.712,11.93-3.68-.829,2.688-11.8a2.669,2.669,0,0,0-5.306-.54,1.819,1.819,0,0,1-.044.232l-6.223,25.3a1.887,1.887,0,0,1-3.648.056l-6.907-24.713h0a2.673,2.673,0,1,0-5.193,1.269,1.869,1.869,0,0,1,.056.534l5.7,27.25Z" transform="translate(-221.88 -75.216)" fill="#fff"/>
    <path id="Caminho_748" data-name="Caminho 748" d="M365.148,189.823a11.065,11.065,0,0,1-1.883-.3l-.2-.031.722-3.7.22.044c.628.126,1.024.2,1.187.22h0a2.67,2.67,0,0,0,2.624-2.663V172.022a2.668,2.668,0,0,0-2.662-2.669,2.412,2.412,0,0,0-.628.069,2.661,2.661,0,0,0-2.073,2.6v11.748h-3.767V172.022a6.4,6.4,0,0,1,4.935-6.279,6.115,6.115,0,0,1,1.5-.182A6.442,6.442,0,0,1,371.553,172v11.4a6.442,6.442,0,0,1-6.4,6.43Z" transform="translate(-333.684 -149.049)" fill="#fff"/>
    <path id="Caminho_749" data-name="Caminho 749" d="M247.611,236.136h-1.369a21.447,21.447,0,0,1-21.913-20.9v-.754a14.919,14.919,0,0,1,6.235-12.055,18.608,18.608,0,0,1,11.158-3.453h.358a28.93,28.93,0,0,1,8.665,1.337l.214.1.2.107.4.176c2.581,1.193,3.9,3.058,3.943,5.563a6.442,6.442,0,0,1-6.279,6.537l-4.917.383-4.641,4.4h0a1.884,1.884,0,1,1-2.568-2.719q2.562-2.405,5.111-4.828a1.88,1.88,0,0,1,1.155-.515l5.651-.44h.113a2.669,2.669,0,0,0,2.625-2.712c0-1.042-.471-1.613-1.739-2.2l-.377-.164-.145-.107-.163-.088h0a25.218,25.218,0,0,0-7.265-1.061h-.346a14.879,14.879,0,0,0-8.923,2.694,11.182,11.182,0,0,0-4.7,9.022v.748c0,10.253,9.381,17.136,18.146,17.136h.942c6.436.088,12.558-2.085,16.325-5.808a10.973,10.973,0,0,0,3.6-7.836V194.806a2.669,2.669,0,0,0-5.337,0,1.884,1.884,0,1,1-3.767,0,6.436,6.436,0,1,1,12.872,0v23.917a14.666,14.666,0,0,1-4.728,10.518c-4.395,4.332-11.314,6.894-18.541,6.894Z" transform="translate(-223.88 -167.69)" fill="#fff"/>
  </g>
</svg>
