<svg xmlns="http://www.w3.org/2000/svg" xmlns:xlink="http://www.w3.org/1999/xlink" width="313.542" height="96.194" viewBox="0 0 313.542 96.194">
  <defs>
    <filter id="App" x="0" y="17.527" width="57" height="36" filterUnits="userSpaceOnUse">
      <feOffset dy="2" input="SourceAlpha"/>
      <feGaussianBlur stdDeviation="2" result="blur"/>
      <feFlood flood-opacity="0.161"/>
      <feComposite operator="in" in2="blur"/>
      <feComposite in="SourceGraphic"/>
    </filter>
  </defs>
  <g id="Grupo_2637" data-name="Grupo 2637" transform="translate(-384 -1520.473)">
    <g transform="matrix(1, 0, 0, 1, 384, 1520.47)" filter="url(#App)">
      <text id="App-2" data-name="App" transform="translate(6 40.53)" font-size="21" font-family="FilsonPro-Bold, Filson Pro" font-weight="700" letter-spacing="0.04em"><tspan x="0" y="0">App</tspan></text>
    </g>
    <g id="Selo_Meu_UniSuper" data-name="Selo Meu UniSuper" transform="translate(432.75 1520.473)">
      <path id="Caminho_882" data-name="Caminho 882" d="M590.634,97.733l.923-11.712c.116-.834.134-2.256-1.008-2.314a1.544,1.544,0,0,0-1.668,1.275L586.925,97.43a1.589,1.589,0,0,0,1.355,1.85,2.011,2.011,0,0,0,2.354-1.547" transform="translate(-338.878 -57.762)" fill="#bc1413"/>
      <path id="Caminho_883" data-name="Caminho 883" d="M571.553,95.676l1.636-13.705a1.633,1.633,0,0,0-1.6-1.739,1.927,1.927,0,0,0-2.033,1.708l-.892,13.344a1.517,1.517,0,0,0,1.36,1.685,1.457,1.457,0,0,0,1.529-1.293" transform="translate(-328.768 -55.834)" fill="#bc1413"/>
      <path id="Caminho_884" data-name="Caminho 884" d="M548.658,95.99c1.212.071,2.394-.294,2.448-1.431l.646-13.821c.076-.838-.08-2.559-1.284-2.666-1.422-.129-2.064,1.516-2.14,2.345L546.8,94.064a1.892,1.892,0,0,0,1.855,1.926" transform="translate(-316.653 -54.636)" fill="#bc1413"/>
      <path id="Caminho_885" data-name="Caminho 885" d="M136.663,56.069c.54-.9,1.039-1.779,1.485-2.631A4.588,4.588,0,0,0,138.6,51.5a2.7,2.7,0,0,0-.8-1.8c-.4-.482-.825-.95-1.284-1.413A7.992,7.992,0,0,0,135,47.117a6.3,6.3,0,0,0-3.21-1.141,5.53,5.53,0,0,0-3.264,1.061,14.214,14.214,0,0,0-1.761,1.235c-.526.437-1.057.9-1.578,1.378l-1.222,1.364c-.629.7-1.378,1.552-2.238,2.546s-1.792,2.082-2.787,3.273-1.98,2.372-2.938,3.54-8.048,9.193-8.048,9.193c-.178-.29-.183-.8.366-2.345.4-1.137.945-2.448,1.61-3.906.651-1.431,1.355-2.929,2.1-4.445s1.364-2.764,1.9-3.785c.04-.156.178-.548.379-1.11a13.028,13.028,0,0,0,.486-1.739,6.66,6.66,0,0,0,.143-1.69.923.923,0,0,0-.45-.847,15.094,15.094,0,0,1-1.7-1.159c-.473-.379-.985-.749-1.52-1.106a3.231,3.231,0,0,0-3.429-.232,6.711,6.711,0,0,0-1.627,1.342c-.834.82-1.717,1.761-2.622,2.8-.923,1.048-1.824,2.122-2.68,3.2a25.644,25.644,0,0,0-1.864,2.573q-.408.669-1.057,1.641c-.441.655-.918,1.311-1.409,1.944s-.95,1.208-1.351,1.694a5.317,5.317,0,0,1-.981,1l-.655.437.062-.785a6.365,6.365,0,0,1,.531-2.18c.259-.562.49-1.128.682-1.685a13.215,13.215,0,0,0,.736-2.305,8.082,8.082,0,0,0,.143-2.31,5.451,5.451,0,0,0-.513-1.788,3.926,3.926,0,0,0-1.413-1.5l-2.791-1.855c-.914-.606-1.877-1.177-2.858-1.7a11.754,11.754,0,0,0-6.478-1.413,16.433,16.433,0,0,0-3.558.713,20.779,20.779,0,0,0-5.283,2.372,16.649,16.649,0,0,0-4.677,4.374A9.787,9.787,0,0,0,66.5,60.4a7.429,7.429,0,0,0,1.583,2.207,7.052,7.052,0,0,0,2.84,1.565q1.2.4,2.354.8c.745.259,1.525.5,2.318.722a2.547,2.547,0,0,0,1.057,0,.557.557,0,0,0,.388-.317c-.281-.25-.611-.517-.976-.794a5.671,5.671,0,0,1-2.011-2.305,4.811,4.811,0,0,1-.325-2.688,9.2,9.2,0,0,1,.361-1.712c.165-.535.352-1.07.557-1.61a7.3,7.3,0,0,1,2.421-3.018,16.129,16.129,0,0,1,3.981-2.1c.749-.272,1.5-.508,2.229-.7a12.039,12.039,0,0,1,2.474-.379c1.578-.138,2.064.6,2.189,1.235a7.089,7.089,0,0,1-.321,4.32c-.129.392-.428,1.124-.9,2.229q-.7,1.618-1.592,3.83T83.184,66.5q-1.043,2.615-2.042,5.132t-1.895,4.739q-.9,2.22-1.494,3.678a15.6,15.6,0,0,0-.78,2.171,19.144,19.144,0,0,1-.62,1.89l1.119,1.115a9.292,9.292,0,0,0,2.06,1.525,6.287,6.287,0,0,0,2.541.78,4.207,4.207,0,0,0,2.711-.874c.178-.33.611-1.03,1.32-2.131l2.742-4.271q1.592-2.488,3.442-5.332t3.594-5.466q1.739-2.615,3.09-4.668a28.82,28.82,0,0,1,2.073-2.889l.669-.758v1.012a9.242,9.242,0,0,1-.878,2.367q-.849,2.02-1.89,4.628c-.691,1.725-1.36,3.46-1.988,5.154s-1.079,2.96-1.342,3.79a21.634,21.634,0,0,0-.789,2.778c-.2.95-.4,1.89-.6,2.818,0,.013.013.183.535.531a13.9,13.9,0,0,0,1.895,1.03,22.318,22.318,0,0,0,2.305.91c.771.254,1.364.432,1.757.522a2.441,2.441,0,0,0,2.412-.8,6.872,6.872,0,0,0,.664-.914c.2-.33.4-.669.593-1.017.932-1.636,2.2-3.576,3.759-5.76,1.538-2.153,3.219-4.4,4.993-6.7,1.73-2.234,3.527-4.512,5.337-6.759s3.46-4.262,4.94-6.032q2.247-2.682,3.692-4.374c1.3-1.516,1.574-1.819,1.667-1.913l1.244-1.226-.62,1.636a2.146,2.146,0,0,0-.174.593.955.955,0,0,1-.174.562c-.125.2-.486.794-1.422,2.412q-1.144,1.986-2.738,4.829t-3.388,6.09q-1.792,3.244-3.388,6.157c-1.043,1.9-1.948,3.607-2.688,5.056a22.414,22.414,0,0,0-1.271,2.751,5.1,5.1,0,0,0-.236,2.3,4,4,0,0,0,.865,2.122,3.693,3.693,0,0,0,2.087,1.226,6.73,6.73,0,0,0,3.446-.312l.325-.539a2.467,2.467,0,0,0,.259-.571c.156-.37.557-1.2,1.173-2.443.629-1.275,1.436-2.849,2.4-4.677q1.331-2.528,2.831-5.368l.259-.495q1.645-3.11,3.139-5.925t2.693-4.971c.816-1.467,1.378-2.421,1.712-2.911Z" transform="translate(-50.477 -36.852)" fill="#bc1413"/>
      <path id="Caminho_886" data-name="Caminho 886" d="M586.735,136.941a15.62,15.62,0,0,1-2.349,2.568c-.3.276-.544.477-.843.7a2.152,2.152,0,0,1-1.159.473,3.125,3.125,0,0,1-2.608-.883,8.025,8.025,0,0,1-2.136-2.894v.049a7.856,7.856,0,0,0,1.119,3.794,5.258,5.258,0,0,0,5.814,2.091,3.437,3.437,0,0,0,1.917-1.529,4.641,4.641,0,0,0,.245-4.374" transform="translate(-333.745 -87.246)" fill="#bc1413"/>
      <path id="Caminho_887" data-name="Caminho 887" d="M543.341,136.98a15.612,15.612,0,0,1-2.35,2.568c-.3.276-.544.477-.843.7a2.152,2.152,0,0,1-1.159.473,3.111,3.111,0,0,1-2.6-.883A7.836,7.836,0,0,1,534.25,137a7.853,7.853,0,0,0,1.119,3.794,5.258,5.258,0,0,0,5.814,2.091,3.438,3.438,0,0,0,1.917-1.529,4.652,4.652,0,0,0,.241-4.374" transform="translate(-309.7 -87.285)" fill="#bc1413"/>
      <path id="Caminho_888" data-name="Caminho 888" d="M399.791,45.885a1.239,1.239,0,0,0-.838-.535c-1.734-.232-29.27-2.809-39.195-3.736.018-.022.031-.036.04-.036-7.339-.241-9.541-13.656-15.828-14.909,0,0-5.876-.869-9.037-1.146a1,1,0,0,0-.45,1.922c3.112.74,9.367,1.837,9.367,1.837,4.044.829,4.271,14.98,13.273,16.26.018,0,.036,0,.054.009.036,0,.071.013.107.018l0,0c.009,0,.018,0,.027,0L394.343,50a.939.939,0,0,1,.78,1.083l-2.3,14.343c-.508,3.562-3.589,4.351-5.832,4.329l-27.2-1.391c-2.876-.027-3.54-2.92-5.662-5.31-2.622-3.219-4.164-7.053-12.956-9.568-9.189-2.63-22.074-2.247-40.251,5.3,0,0,.009,0,.009-.009-23.737,9.251-33.4,6.5-34.531,4.423-2.2-4.035,11.307-16.224,8.467-19.14-.446-.459-.927-.914-1.418-1.387a2.119,2.119,0,0,0-1.284-.45,1.827,1.827,0,0,0-1.244.415,3.219,3.219,0,0,0-.727.682q-.535.762-1.445,2t-1.766,2.439c-.571.8-1.088,1.511-1.552,2.118s-.731.981-.8,1.11q-2.408,2.495-4.851,4.953t-4.949,4.949c-.348.33-.829.762-1.449,1.3s-.994.8-1.124.789a2.419,2.419,0,0,0-.018-.432.668.668,0,0,1,.076-.428c.37-.727.932-1.806,1.672-3.241s1.538-2.916,2.385-4.454S258,51.462,258.7,50.16s1.2-2.211,1.494-2.72a2.291,2.291,0,0,0,.4-1.7A2.1,2.1,0,0,0,260,44.311a22.676,22.676,0,0,0-2.769-2.243,2.2,2.2,0,0,0-3.027.2,3.7,3.7,0,0,0-.531.664c-.147.236-.29.459-.432.669-.218.383-.424.758-.611,1.119s-.357.74-.513,1.128q-.555.956-1.431,2.528T248.858,51.8q-.95,1.866-1.957,3.821c-.085.165-.16.321-.245.482a35.643,35.643,0,0,1-4.565,3.843,44.725,44.725,0,0,1-5.475,3.322,26.512,26.512,0,0,1-4.695,1.881,12.816,12.816,0,0,1-3.393.571c-.317-.156-.526-.655-.629-1.5a14.986,14.986,0,0,1-.058-2.827,24.006,24.006,0,0,1,.4-3.059,5.386,5.386,0,0,1,.825-2.2c.633.218,1.222.424,1.761.615a14.8,14.8,0,0,0,1.574.468,8.453,8.453,0,0,0,6.407-1.235,20.92,20.92,0,0,0,2.608-1.953c.789-.7,1.569-1.422,2.332-2.171a4.343,4.343,0,0,0,1.262-2.171,4.52,4.52,0,0,0-.187-2.336,7.111,7.111,0,0,0-1.708-2.836,34.415,34.415,0,0,0-2.706-2.5,5.4,5.4,0,0,0-3.714-1.239c-.526.053-1.043.085-1.565.094a5.137,5.137,0,0,0-1.476.236,18.835,18.835,0,0,0-4.017,1.89,21.45,21.45,0,0,0-5.043,4.146,21.782,21.782,0,0,0-3.964,6.273,14.428,14.428,0,0,0-.785,8.213,5.344,5.344,0,0,0,2.345,3.509,25.6,25.6,0,0,0,4.454,2.519,7.53,7.53,0,0,0,1.815.517,10.833,10.833,0,0,0,5.034-.366,24.165,24.165,0,0,0,4.9-2.064,32.354,32.354,0,0,0,4.071-2.684c.517-.406.959-.762,1.355-1.1-.062.143-.138.3-.2.441a13.732,13.732,0,0,0-.713,1.944,3.06,3.06,0,0,0,1.057,3.125,10.17,10.17,0,0,0,4.169,1.667,4.338,4.338,0,0,0,3.54-.562q.308-.247,1.877-1.9t3.4-3.589q1.826-1.933,3.3-3.567a19.3,19.3,0,0,1,1.672-1.748c-.3.642-.624,1.333-.963,2.06s-.678,1.427-1.012,2.091-.633,1.253-.9,1.766a3.374,3.374,0,0,0-.419,1.168,2.679,2.679,0,0,0,.8,2.577,8.557,8.557,0,0,0,2.688,1.681l.013-.027c.339.2,6.978,1.855,17.286-.557,0,0,0-.009,0-.013a102.515,102.515,0,0,0,21.668-6.839c11.191-4.744,19.595-6.786,27.058-6.9,14.343-.21,17.762,3.986,21.891,9.822l-.018.018.958,1.6c2.452,4.343,5.426,7.1,9.751,7.138H387.78a6.485,6.485,0,0,0,.66-.022,8.314,8.314,0,0,0,7.352-6.928L400.081,47a1.658,1.658,0,0,0-.29-1.115M232.144,51.1a13.032,13.032,0,0,1,1.676-1.846c.691-.642,1.445-1.275,2.265-1.908a12.191,12.191,0,0,1,2.234-1.413,5.046,5.046,0,0,1-.379,2.764,6.2,6.2,0,0,1-1.605,2.185,6.555,6.555,0,0,1-2.323,1.306,4.211,4.211,0,0,1-2.345.143c-.111-.227.049-.642.477-1.231" transform="translate(-135.329 -25.517)" fill="#bc1413"/>
      <path id="Caminho_889" data-name="Caminho 889" d="M129.279,196.037l4.659-16.759L144,196.037h10.665l10.067-33.867h-11.9l-4.744,16.889-9.96-16.889H127.357L117.29,196.037Z" transform="translate(-78.64 -101.244)" fill="#008d3f" fill-rule="evenodd"/>
      <path id="Caminho_890" data-name="Caminho 890" d="M78.035,145.45c-6.813.143-11.579,2.867-15.11,9.287l-5.1,16.866c-2.011,7.067-15.319,8.743-13.135-.575l6.358-22.185c-4.659,3.268-9.448,4.944-14.392,4.307l-5.653,19.8c-4.659,20.139,32.319,19.368,37.63,3.143Z" transform="translate(-30.602 -91.978)" fill="#008d3f" fill-rule="evenodd"/>
      <path id="Caminho_891" data-name="Caminho 891" d="M221.256,196.037l10.09-33.867h-11.9l-9.956,33.867Z" transform="translate(-129.733 -101.244)" fill="#008d3f" fill-rule="evenodd"/>
      <path id="Caminho_892" data-name="Caminho 892" d="M340.318,162.07l-5.676,19.693c-1.743,7.972,10.642,6.05,12.185-.33l5.587-19.252,11.81.045c-2.76,9.492-3.21,11.222-6.135,20.794-5.475,17.928-39.957,19.073-35.917.486l6.313-21.414Z" transform="translate(-191.994 -101.188)" fill="#d51317" fill-rule="evenodd"/>
      <path id="Caminho_893" data-name="Caminho 893" d="M283.7,147.492c-10.839-10.727-29.89-1.016-30.621,10.486-.664,10.375,13.732,10.928,9.844,16.14-1.436,1.9-10.33,4.062-12.716-6.335l-4.525,13.888c6.179,6.469,24.923,5.542,30.576-4.681,3.571-6.443,2.6-10.424-.936-13.7-3.215-2.974-7.138-3.937-8.012-5.939-2.189-5.016,10.709-7.138,12.568,3.879Z" transform="translate(-149.788 -90.538)" fill="#d51317" fill-rule="evenodd"/>
      <path id="Caminho_894" data-name="Caminho 894" d="M474.73,195.942h25.609l2.229-7.726h-13.2l1.52-5.921h12.43l1.877-6.884h-12.43l1.48-5.368h13.6l2.251-7.923H484.976Z" transform="translate(-276.717 -101.216)" fill="#d51317" fill-rule="evenodd"/>
      <path id="Caminho_895" data-name="Caminho 895" d="M428.644,162.367H410.917L400.85,196.077h11.967l3.464-11.922c24.923,2.43,30.023-22.078,12.363-21.789m-7.521,15.012c-.656,0-2.653-.111-2.653-.111l2.515-8.56s1.993-.067,2.84-.067a3.611,3.611,0,0,1,3.1,1.6c1.556,2.238-1.074,7.142-5.8,7.142" transform="translate(-235.776 -101.351)" fill="#d51317" fill-rule="evenodd"/>
      <path id="Caminho_896" data-name="Caminho 896" d="M575.866,196.156h0c-21.914,3.313-13.955-7.111-19.992-13.857a.791.791,0,0,0-.548-.254c-.977,0-2.533,0-2.533,0l-4.1,14.017H536.73L546.8,162.357h17.727c13.732-.223,14.107,13.2,1.855,18.012,2.162,1.547,3.42,3.62,4.218,7.307,1.008,4.619,2.466,7.776,5.27,8.48m-18.748-19.773c-.655,0-2.372-.053-2.372-.053l2.145-7.633s2.086-.058,2.934-.058a3.757,3.757,0,0,1,3.1,1.413c1.556,1.98-1.075,6.331-5.809,6.331" transform="translate(-311.074 -101.346)" fill="#d51317" fill-rule="evenodd"/>
    </g>
  </g>
</svg>
