<svg xmlns="http://www.w3.org/2000/svg" width="72.911" height="73.691" viewBox="0 0 72.911 73.691">
  <g id="Grupo_2578" data-name="Grupo 2578" transform="translate(0)">
    <path id="Caminho_874" data-name="Caminho 874" d="M201.722,81.651,179.8,60.57a15.508,15.508,0,1,1,21.5-22.354l.422.406.421-.406a15.507,15.507,0,1,1,21.5,22.354Zm-11.17-44.594A12.335,12.335,0,0,0,182,58.284l19.721,18.968,19.724-18.97a12.335,12.335,0,0,0-17.1-17.779l-2.621,2.519L199.1,40.5a12.277,12.277,0,0,0-8.551-3.445Z" transform="translate(-164.787 -33.885)" fill="#fff"/>
    <path id="Caminho_875" data-name="Caminho 875" d="M374.62,277.121h-14.2l-.263-1.261c-.13-.619-3.073-15.254,6.522-20.924,6.363-3.76,10.262-5.071,13.224-4.436,3.352-2.3,4.4-6.2,5.338-9.671.6-2.255,1.13-4.2,2.227-5.553a3.939,3.939,0,0,1,6.973.224l.2.362v.415c0,20.064-4.777,23.074-5.735,23.473l-14.291,9.683v7.686Zm-11.557-3.171h8.386v-6.2l15.964-10.781c.195-.115,3.987-2.732,4.061-20.183a.959.959,0,0,0-.486-.335,2.1,2.1,0,0,0-1.06.824,13.968,13.968,0,0,0-1.626,4.374c-.877,3.268-2.023,7.522-5.366,10.5a8.627,8.627,0,0,1,1.632,2.352l-2.844,1.4a3.7,3.7,0,0,0-2.253-2.237c-2.016-.6-5.47.632-11.184,4-6.229,3.685-5.666,12.908-5.225,16.281Z" transform="translate(-321.733 -203.429)" fill="#fff"/>
    <path id="Caminho_876" data-name="Caminho 876" d="M140.719,277.133h-14.2v-7.682l-14.569-9.838c-.678-.248-5.455-3.257-5.455-23.32v-.415l.2-.362a3.938,3.938,0,0,1,6.973-.224c1.1,1.351,1.623,3.3,2.228,5.553.939,3.475,1.986,7.375,5.338,9.671,2.962-.636,6.859.673,13.225,4.436,9.594,5.67,6.652,20.3,6.521,20.924Zm-11.028-3.171h8.386c.434-3.376.985-12.608-5.226-16.28-5.712-3.373-9.173-4.6-11.183-4a3.7,3.7,0,0,0-2.252,2.237l-2.844-1.4a8.679,8.679,0,0,1,1.632-2.352c-3.342-2.974-4.488-7.228-5.366-10.5a13.96,13.96,0,0,0-1.626-4.374,2.18,2.18,0,0,0-1.06-.824.972.972,0,0,0-.487.335c.075,17.45,3.867,20.067,3.9,20.093l16.121,10.87v6.2Z" transform="translate(-106.494 -203.442)" fill="#fff"/>
  </g>
</svg>
