<svg xmlns="http://www.w3.org/2000/svg" width="140.388" height="51" viewBox="0 0 140.388 51">
  <g id="Selo_Meu_UniSuper" data-name="Selo Meu UniSuper" transform="translate(-30.602 -25.517)">
    <path id="Caminho_882" data-name="Caminho 882" d="M588.882,91.143l.489-6.21c.061-.442.071-1.2-.534-1.227a.819.819,0,0,0-.884.676l-1.038,6.6a.842.842,0,0,0,.719.981,1.066,1.066,0,0,0,1.248-.82" transform="translate(-424.804 -44.433)" fill="#bc1413"/>
    <path id="Caminho_883" data-name="Caminho 883" d="M570.194,88.418l.867-7.266a.866.866,0,0,0-.849-.922,1.022,1.022,0,0,0-1.078.905l-.473,7.075a.8.8,0,0,0,.721.894.772.772,0,0,0,.811-.686" transform="translate(-410.872 -41.777)" fill="#bc1413"/>
    <path id="Caminho_884" data-name="Caminho 884" d="M547.784,87.568c.643.038,1.269-.156,1.3-.759l.343-7.328c.04-.444-.043-1.357-.681-1.414-.754-.069-1.094.8-1.135,1.243l-.808,7.236a1,1,0,0,0,.983,1.021" transform="translate(-394.178 -40.126)" fill="#bc1413"/>
    <path id="Caminho_885" data-name="Caminho 885" d="M103.684,51.325c.286-.475.551-.943.787-1.395a2.433,2.433,0,0,0,.241-1.031,1.43,1.43,0,0,0-.423-.953c-.21-.255-.437-.5-.681-.749a4.237,4.237,0,0,0-.806-.619,3.34,3.34,0,0,0-1.7-.605,2.932,2.932,0,0,0-1.73.563,7.536,7.536,0,0,0-.934.655c-.279.232-.56.475-.837.73l-.648.723c-.333.373-.73.823-1.187,1.35s-.95,1.1-1.477,1.735-1.05,1.258-1.558,1.877-4.267,4.874-4.267,4.874c-.095-.154-.1-.425.194-1.243.213-.6.5-1.3.853-2.071s.719-1.553,1.113-2.357.723-1.466,1.007-2.007c.021-.083.095-.291.2-.589a6.907,6.907,0,0,0,.258-.922,3.531,3.531,0,0,0,.076-.9.489.489,0,0,0-.239-.449,8,8,0,0,1-.9-.615c-.251-.2-.522-.4-.806-.586a1.713,1.713,0,0,0-1.818-.123,3.558,3.558,0,0,0-.863.712c-.442.435-.91.934-1.39,1.482s-.967,1.125-1.421,1.695a13.6,13.6,0,0,0-.988,1.364q-.216.355-.56.87c-.234.347-.487.695-.747,1.031s-.5.641-.716.9a2.819,2.819,0,0,1-.52.532l-.347.232.033-.416a3.374,3.374,0,0,1,.281-1.156c.137-.3.26-.6.362-.894a7.006,7.006,0,0,0,.39-1.222,4.285,4.285,0,0,0,.076-1.224,2.89,2.89,0,0,0-.272-.948,2.081,2.081,0,0,0-.749-.8l-1.48-.983c-.485-.321-1-.624-1.515-.9a6.232,6.232,0,0,0-3.435-.749,8.713,8.713,0,0,0-1.886.378,11.016,11.016,0,0,0-2.8,1.258,8.827,8.827,0,0,0-2.48,2.319,5.189,5.189,0,0,0-.889,3.517,3.939,3.939,0,0,0,.839,1.17,3.739,3.739,0,0,0,1.506.83q.638.213,1.248.423c.395.137.808.265,1.229.383a1.35,1.35,0,0,0,.56,0,.3.3,0,0,0,.206-.168c-.149-.132-.324-.274-.518-.421a3.006,3.006,0,0,1-1.066-1.222,2.551,2.551,0,0,1-.173-1.425,4.878,4.878,0,0,1,.191-.908c.087-.284.187-.567.3-.853a3.872,3.872,0,0,1,1.284-1.6A8.551,8.551,0,0,1,74.2,48.711c.4-.144.794-.269,1.182-.373a6.382,6.382,0,0,1,1.312-.2c.837-.073,1.094.317,1.161.655a3.758,3.758,0,0,1-.17,2.291c-.069.208-.227.6-.477,1.182s-.527,1.25-.844,2.03-.662,1.638-1.031,2.562-.73,1.832-1.083,2.721-.688,1.728-1,2.513-.581,1.435-.792,1.95a8.274,8.274,0,0,0-.414,1.151,10.152,10.152,0,0,1-.329,1l.593.591a4.926,4.926,0,0,0,1.092.808,3.333,3.333,0,0,0,1.347.414,2.23,2.23,0,0,0,1.437-.463c.095-.175.324-.546.7-1.13l1.454-2.265q.844-1.319,1.825-2.827t1.905-2.9q.922-1.386,1.638-2.475a15.279,15.279,0,0,1,1.1-1.532l.355-.4v.537a4.9,4.9,0,0,1-.466,1.255q-.45,1.071-1,2.454c-.366.915-.721,1.834-1.054,2.733s-.572,1.57-.711,2.009a11.471,11.471,0,0,0-.418,1.473c-.106.5-.21,1-.317,1.494,0,.007.007.1.284.281a7.371,7.371,0,0,0,1,.546,11.831,11.831,0,0,0,1.222.482c.409.135.723.229.931.277a1.294,1.294,0,0,0,1.279-.423,3.644,3.644,0,0,0,.352-.485c.1-.175.21-.355.314-.539.494-.868,1.165-1.9,1.993-3.054.815-1.142,1.707-2.335,2.647-3.553.917-1.184,1.87-2.392,2.829-3.584s1.834-2.26,2.619-3.2S98.108,51,98.618,50.4c.688-.8.834-.964.884-1.014l.66-.65-.329.868a1.137,1.137,0,0,0-.092.314.506.506,0,0,1-.092.3c-.066.1-.258.421-.754,1.279q-.606,1.053-1.451,2.56t-1.8,3.229q-.95,1.72-1.8,3.264c-.553,1.009-1.033,1.912-1.425,2.681a11.882,11.882,0,0,0-.674,1.458,2.7,2.7,0,0,0-.125,1.217,2.122,2.122,0,0,0,.459,1.125,1.958,1.958,0,0,0,1.106.65,3.568,3.568,0,0,0,1.827-.165l.173-.286a1.307,1.307,0,0,0,.137-.3c.083-.2.3-.636.622-1.3.333-.676.761-1.51,1.272-2.48q.706-1.34,1.5-2.846l.137-.262q.872-1.649,1.664-3.141t1.428-2.636c.433-.778.73-1.284.908-1.544Z" transform="translate(-27.388 -15.619)" fill="#bc1413"/>
    <path id="Caminho_886" data-name="Caminho 886" d="M582.462,136.927a8.282,8.282,0,0,1-1.246,1.362c-.161.147-.288.253-.447.373a1.142,1.142,0,0,1-.615.251,1.657,1.657,0,0,1-1.383-.468,4.255,4.255,0,0,1-1.132-1.534v.026a4.165,4.165,0,0,0,.593,2.012,2.788,2.788,0,0,0,3.082,1.109,1.822,1.822,0,0,0,1.016-.811,2.46,2.46,0,0,0,.13-2.319" transform="translate(-417.73 -85.062)" fill="#bc1413"/>
    <path id="Caminho_887" data-name="Caminho 887" d="M539.07,136.98a8.278,8.278,0,0,1-1.246,1.362c-.161.147-.288.253-.447.374a1.141,1.141,0,0,1-.615.251,1.65,1.65,0,0,1-1.38-.468,4.156,4.156,0,0,1-1.132-1.508,4.164,4.164,0,0,0,.593,2.012,2.788,2.788,0,0,0,3.082,1.109,1.823,1.823,0,0,0,1.016-.811,2.466,2.466,0,0,0,.128-2.319" transform="translate(-384.596 -85.115)" fill="#bc1413"/>
    <path id="Caminho_888" data-name="Caminho 888" d="M315.128,36.316a.657.657,0,0,0-.444-.284c-.92-.123-15.518-1.489-20.78-1.981.009-.012.017-.019.021-.019-3.891-.128-5.059-7.24-8.391-7.9,0,0-3.115-.461-4.791-.607a.53.53,0,0,0-.239,1.019c1.65.392,4.966.974,4.966.974,2.144.44,2.264,7.942,7.037,8.621l.028,0,.057.009,0,0,.014,0L312.239,38.5a.5.5,0,0,1,.414.574l-1.22,7.6a2.762,2.762,0,0,1-3.092,2.3l-14.419-.738c-1.525-.014-1.877-1.548-3-2.815-1.39-1.707-2.208-3.74-6.869-5.073-4.872-1.395-11.7-1.191-21.34,2.808,0,0,0,0,0,0-12.585,4.9-17.707,3.446-18.308,2.345-1.165-2.139,5.995-8.6,4.489-10.148-.236-.243-.492-.485-.752-.735a1.123,1.123,0,0,0-.681-.239.969.969,0,0,0-.66.22,1.706,1.706,0,0,0-.385.362q-.284.4-.766,1.059t-.936,1.293c-.3.425-.577.8-.823,1.123s-.388.52-.425.589q-1.276,1.323-2.572,2.626t-2.624,2.624c-.184.175-.44.4-.768.688s-.527.423-.6.418a1.283,1.283,0,0,0-.009-.229.354.354,0,0,1,.04-.227c.2-.385.494-.957.886-1.718s.816-1.546,1.265-2.361.86-1.567,1.232-2.257.636-1.172.792-1.442a1.215,1.215,0,0,0,.213-.9,1.112,1.112,0,0,0-.312-.759,12.023,12.023,0,0,0-1.468-1.189,1.169,1.169,0,0,0-1.605.1,1.957,1.957,0,0,0-.281.352c-.078.125-.154.243-.229.355-.116.2-.225.4-.324.593s-.189.392-.272.6q-.294.507-.759,1.34t-.972,1.818q-.5.989-1.038,2.026c-.045.087-.085.17-.13.255a18.9,18.9,0,0,1-2.421,2.038,23.714,23.714,0,0,1-2.9,1.761,14.056,14.056,0,0,1-2.489,1,6.8,6.8,0,0,1-1.8.3c-.168-.083-.279-.347-.333-.8a7.945,7.945,0,0,1-.031-1.5,12.729,12.729,0,0,1,.21-1.622,2.855,2.855,0,0,1,.437-1.168c.336.116.648.225.934.326a7.845,7.845,0,0,0,.834.248,4.482,4.482,0,0,0,3.4-.655,11.093,11.093,0,0,0,1.383-1.035c.418-.371.832-.754,1.236-1.151a2.3,2.3,0,0,0,.669-1.151,2.4,2.4,0,0,0-.1-1.239,3.77,3.77,0,0,0-.905-1.5,18.245,18.245,0,0,0-1.435-1.326,2.862,2.862,0,0,0-1.969-.657c-.279.028-.553.045-.83.05a2.724,2.724,0,0,0-.782.125,9.986,9.986,0,0,0-2.13,1,11.372,11.372,0,0,0-2.673,2.2,11.548,11.548,0,0,0-2.1,3.326,7.65,7.65,0,0,0-.416,4.354,2.833,2.833,0,0,0,1.243,1.86,13.573,13.573,0,0,0,2.361,1.336,3.992,3.992,0,0,0,.962.274,5.744,5.744,0,0,0,2.669-.194,12.812,12.812,0,0,0,2.6-1.094,17.155,17.155,0,0,0,2.158-1.423c.274-.215.508-.4.719-.581-.033.076-.073.161-.1.234a7.283,7.283,0,0,0-.378,1.031,1.622,1.622,0,0,0,.56,1.657,5.392,5.392,0,0,0,2.21.884,2.3,2.3,0,0,0,1.877-.3q.163-.131,1-1.007t1.8-1.9q.968-1.025,1.749-1.891a10.231,10.231,0,0,1,.886-.927c-.161.34-.331.707-.511,1.092s-.359.756-.537,1.109-.336.664-.475.936a1.789,1.789,0,0,0-.222.619,1.42,1.42,0,0,0,.426,1.366,4.537,4.537,0,0,0,1.425.891l.007-.014c.18.1,3.7.983,9.164-.3,0,0,0,0,0-.007A54.351,54.351,0,0,0,262.8,44.688c5.933-2.515,10.389-3.6,14.346-3.657,7.6-.111,9.417,2.113,11.606,5.207l-.009.009.508.849c1.3,2.3,2.877,3.763,5.17,3.784H308.76a3.438,3.438,0,0,0,.35-.012,4.408,4.408,0,0,0,3.9-3.673l2.274-10.29a.879.879,0,0,0-.154-.591m-88.883,2.766a6.909,6.909,0,0,1,.889-.979c.366-.34.766-.676,1.2-1.012a6.464,6.464,0,0,1,1.184-.749,2.675,2.675,0,0,1-.2,1.466,3.286,3.286,0,0,1-.851,1.158,3.475,3.475,0,0,1-1.232.693,2.233,2.233,0,0,1-1.243.076c-.059-.121.026-.34.253-.652" transform="translate(-144.313 0)" fill="#bc1413"/>
    <path id="Caminho_889" data-name="Caminho 889" d="M123.646,180.125l2.47-8.886,5.335,8.886h5.654l5.337-17.955h-6.309l-2.515,8.954-5.281-8.954h-5.711l-5.337,17.955Z" transform="translate(-66.197 -104.351)" fill="#008d3f" fill-rule="evenodd"/>
    <path id="Caminho_890" data-name="Caminho 890" d="M55.75,145.45a8.566,8.566,0,0,0-8.011,4.924l-2.7,8.942c-1.066,3.747-8.122,4.635-6.964-.3l3.371-11.762a10.794,10.794,0,0,1-7.63,2.283l-3,10.5c-2.47,10.677,17.135,10.268,19.95,1.666Z" transform="translate(0 -91.583)" fill="#008d3f" fill-rule="evenodd"/>
    <path id="Caminho_891" data-name="Caminho 891" d="M215.728,180.125l5.349-17.955h-6.309l-5.278,17.955Z" transform="translate(-136.603 -104.351)" fill="#008d3f" fill-rule="evenodd"/>
    <path id="Caminho_892" data-name="Caminho 892" d="M331.639,162.07l-3.009,10.441c-.924,4.226,5.642,3.208,6.46-.175l2.962-10.207,6.262.024c-1.463,5.033-1.7,5.95-3.253,11.025-2.9,9.5-21.184,10.112-19.043.258l3.347-11.353Z" transform="translate(-222.399 -104.275)" fill="#d51317" fill-rule="evenodd"/>
    <path id="Caminho_893" data-name="Caminho 893" d="M265.836,145.312c-5.746-5.687-15.847-.539-16.235,5.56-.352,5.5,7.281,5.794,5.219,8.557-.761,1.007-5.477,2.153-6.742-3.359l-2.4,7.363c3.276,3.43,13.214,2.938,16.211-2.482,1.893-3.416,1.378-5.527-.5-7.264-1.7-1.577-3.784-2.087-4.248-3.149-1.161-2.659,5.678-3.784,6.664,2.057Z" transform="translate(-164.238 -89.599)" fill="#d51317" fill-rule="evenodd"/>
    <path id="Caminho_894" data-name="Caminho 894" d="M474.73,180.052h13.578l1.182-4.1h-7l.806-3.139h6.59l1-3.65h-6.59l.785-2.846h7.21l1.194-4.2H480.162Z" transform="translate(-339.146 -104.313)" fill="#d51317" fill-rule="evenodd"/>
    <path id="Caminho_895" data-name="Caminho 895" d="M415.586,162.366h-9.4l-5.337,17.873h6.344l1.837-6.321c13.214,1.288,15.918-11.705,6.555-11.552m-3.988,7.959c-.348,0-1.406-.059-1.406-.059l1.333-4.538s1.057-.035,1.506-.035a1.914,1.914,0,0,1,1.645.846c.825,1.187-.57,3.787-3.078,3.787" transform="translate(-282.729 -104.499)" fill="#d51317" fill-rule="evenodd"/>
    <path id="Caminho_896" data-name="Caminho 896" d="M557.479,180.275h0c-11.618,1.756-7.4-3.77-10.6-7.347a.419.419,0,0,0-.291-.135l-1.343,0-2.175,7.432H536.73l5.337-17.873h9.4c7.28-.118,7.479,7,.983,9.55a5.756,5.756,0,0,1,2.236,3.874c.534,2.449,1.307,4.122,2.794,4.5m-9.94-10.483c-.347,0-1.258-.028-1.258-.028l1.137-4.047s1.106-.031,1.555-.031a1.992,1.992,0,0,1,1.645.749c.825,1.049-.57,3.357-3.08,3.357" transform="translate(-386.49 -104.491)" fill="#d51317" fill-rule="evenodd"/>
  </g>
</svg>
