<svg xmlns="http://www.w3.org/2000/svg" width="71.386" height="71.446" viewBox="0 0 71.386 71.446">
  <g id="Grupo_2581" data-name="Grupo 2581" transform="translate(0)">
    <path id="Caminho_870" data-name="Caminho 870" d="M143.61,28a26.213,26.213,0,0,0-22.466,39.692L100.266,88.567a6.373,6.373,0,0,0,0,8.971,6.008,6.008,0,0,0,4.445,1.9,6.57,6.57,0,0,0,4.525-1.826L125.59,81.185l4.525-4.525A26.2,26.2,0,1,0,143.61,28ZM106.935,95.315a3.313,3.313,0,0,1-4.525,0,3.413,3.413,0,0,1-.873-2.223,3.134,3.134,0,0,1,.952-2.223L117.73,75.628l4.525,4.525Zm17.544-17.465-4.525-4.525,3.017-3.017a23.586,23.586,0,0,0,4.445,4.445Zm19.132-.635a23.021,23.021,0,1,1,23.021-23.021A23.038,23.038,0,0,1,143.61,77.215Zm0-41.28a18.258,18.258,0,1,0,18.258,18.258A18.261,18.261,0,0,0,143.61,35.936Zm0,33.341a15.083,15.083,0,1,1,15.083-15.083A15.076,15.076,0,0,1,143.61,69.277Z" transform="translate(-98.421 -27.997)" fill="#fff"/>
  </g>
</svg>
