<svg xmlns="http://www.w3.org/2000/svg" width="361" height="334" viewBox="0 0 361 334">
  <path id="Subtração_2" data-name="Subtração 2" d="M0,334V0H358.708A87.61,87.61,0,0,1,343.2,23.106a87.027,87.027,0,0,1-21.374,16.558,103.568,103.568,0,0,1-26.278,10.015,135.031,135.031,0,0,1-30.221,3.479H170.508c-4.168.173-8.256.483-12.15.921-46.3,3.286-78,29.805-94.214,78.821L.36,333.138l.243.091L0,334Zm9.317-11.927h0a85.7,85.7,0,0,1,8.14-10.418ZM360.628.723h0L358.712,0H361l-.372.722Z" transform="translate(0)" fill="#009a4d"/>
</svg>
