<svg xmlns="http://www.w3.org/2000/svg" width="16.311" height="16.31" viewBox="0 0 16.311 16.31">
  <g id="Grupo_2611" data-name="Grupo 2611" transform="translate(-1508.379 -778.188)">
    <g id="Grupo_2096" data-name="Grupo 2096" transform="translate(1508.379 778.188)">
      <g id="Grupo_1979" data-name="Grupo 1979" transform="translate(0)">
        <path id="Caminho_670" data-name="Caminho 670" d="M18.155,962.362a8.154,8.154,0,0,0-6.715,12.781.408.408,0,0,1,.051.35l-.828,2.771,2.714-.937a.408.408,0,0,1,.35.045,8.158,8.158,0,1,0,4.428-15.011Zm-3.339,3.555L16.3,968.37l-.618.612a.408.408,0,0,0-.064.491,8.039,8.039,0,0,0,3.625,3.593.408.408,0,0,0,.452-.083l.656-.656,2.4,1.5a2.265,2.265,0,0,1-1.007,1.159,2.444,2.444,0,0,1-1.657.153,8.917,8.917,0,0,1-4.078-2.555,9.091,9.091,0,0,1-2.478-4.122,2.394,2.394,0,0,1,.166-1.618A2.063,2.063,0,0,1,14.817,965.917Z" transform="translate(-10 -962.362)" fill="#f8f8f8" fill-rule="evenodd"/>
      </g>
    </g>
  </g>
</svg>
