<svg xmlns="http://www.w3.org/2000/svg" width="59.5" height="38.366" viewBox="0 0 59.5 38.366">
  <g id="noun_Quotation_Mark_138784" data-name="noun_Quotation Mark_138784" transform="translate(-5 -21)">
    <g id="Grupo_1982" data-name="Grupo 1982" transform="translate(5 21)">
      <path id="Caminho_671" data-name="Caminho 671" d="M0,2.728V20.9a2.716,2.716,0,0,0,2.705,2.728h9.237V38.366h6.08l7.665-15.192V2.728A2.717,2.717,0,0,0,22.982,0H2.705A2.716,2.716,0,0,0,0,2.728Zm33.813,0V20.9a2.716,2.716,0,0,0,2.7,2.728h9.237V38.366h6.08L59.5,23.174V2.728A2.716,2.716,0,0,0,56.795,0H36.518A2.716,2.716,0,0,0,33.813,2.728Z" transform="translate(59.5 38.366) rotate(180)" fill="#009a4d" fill-rule="evenodd"/>
    </g>
  </g>
</svg>
