<svg xmlns="http://www.w3.org/2000/svg" xmlns:xlink="http://www.w3.org/1999/xlink" width="468" height="456" viewBox="0 0 468 456">
  <defs>
    <clipPath id="clip-path">
      <rect id="Ret칙ngulo_2023" data-name="Ret칙ngulo 2023" width="468" height="456" transform="translate(-12911 -2609.827)" fill="#00652c"/>
    </clipPath>
  </defs>
  <g id="Grupo_de_m치scara_118" data-name="Grupo de m치scara 118" transform="translate(12911 2609.827)" clip-path="url(#clip-path)">
    <g id="Grupo_2660" data-name="Grupo 2660" transform="translate(-13011.681 -2610.358)">
      <path id="Caminho_1133" data-name="Caminho 1133" d="M232.043,49.288l9.833-30.881c2.817-8.519,8.662-12.993,18.529-12.1l-4.541,16.385c-2.917,10.032,10.786,9,13.757-.2l4.808-16.186C278.693,6.121,282.568,4.563,286.5,0c0,0-6.288,21.95-8.817,29.125-3.211,9.1-9.347,11.81-16.274,12.1H246.792q-9.827.066-13.611,8.2Z" transform="translate(-178.212 37.929)" fill="none" stroke="#a8ff00" stroke-width="1" fill-rule="evenodd"/>
      <path id="Caminho_1134" data-name="Caminho 1134" d="M232.043,49.288l9.833-30.881c2.817-8.519,8.662-12.993,18.529-12.1l-4.541,16.385c-2.917,10.032,10.786,9,13.757-.2l4.808-16.186C278.693,6.121,282.568,4.563,286.5,0c0,0-6.288,21.95-8.817,29.125-3.211,9.1-9.347,11.81-16.274,12.1H246.792q-9.827.066-13.611,8.2Z" transform="translate(-188.556 73.871)" fill="none" stroke="#a8ff00" stroke-width="1" fill-rule="evenodd"/>
      <path id="Caminho_1135" data-name="Caminho 1135" d="M232.043,49.288l9.833-30.881c2.817-8.519,8.662-12.993,18.529-12.1l-4.541,16.385c-2.917,10.032,10.786,9,13.757-.2l4.808-16.186C278.693,6.121,282.568,4.563,286.5,0c0,0-6.288,21.95-8.817,29.125-3.211,9.1-9.347,11.81-16.274,12.1H246.792q-9.827.066-13.611,8.2Z" transform="translate(-154.782 95.186)" fill="none" stroke="#a8ff00" stroke-width="1" fill-rule="evenodd"/>
      <path id="Caminho_1136" data-name="Caminho 1136" d="M232.043,49.288l9.833-30.881c2.817-8.519,8.662-12.993,18.529-12.1l-4.541,16.385c-2.917,10.032,10.786,9,13.757-.2l4.808-16.186C278.693,6.121,282.568,4.563,286.5,0c0,0-6.288,21.95-8.817,29.125-3.211,9.1-9.347,11.81-16.274,12.1H246.792q-9.827.066-13.611,8.2Z" transform="translate(-199.92 110.807)" fill="none" stroke="#a8ff00" stroke-width="1" fill-rule="evenodd"/>
      <path id="Caminho_1137" data-name="Caminho 1137" d="M232.043,49.288l9.833-30.881c2.817-8.519,8.662-12.993,18.529-12.1l-4.541,16.385c-2.917,10.032,10.786,9,13.757-.2l4.808-16.186C278.693,6.121,282.568,4.563,286.5,0c0,0-6.288,21.95-8.817,29.125-3.211,9.1-9.347,11.81-16.274,12.1H246.792q-9.827.066-13.611,8.2Z" transform="translate(-223.977 54.855)" fill="none" stroke="#a8ff00" stroke-width="1" fill-rule="evenodd"/>
      <path id="Caminho_1138" data-name="Caminho 1138" d="M232.043,49.288l9.833-30.881c2.817-8.519,8.662-12.993,18.529-12.1l-4.541,16.385c-2.917,10.032,10.786,9,13.757-.2l4.808-16.186C278.693,6.121,282.568,4.563,286.5,0c0,0-6.288,21.95-8.817,29.125-3.211,9.1-9.347,11.81-16.274,12.1H246.792q-9.827.066-13.611,8.2Z" transform="translate(-210.494 17.167)" fill="none" stroke="#a8ff00" stroke-width="1" fill-rule="evenodd"/>
      <path id="Caminho_1140" data-name="Caminho 1140" d="M232.043,49.288l9.833-30.881c2.817-8.519,8.662-12.993,18.529-12.1l-4.541,16.385c-2.917,10.032,10.786,9,13.757-.2l4.808-16.186C278.693,6.121,282.568,4.563,286.5,0c0,0-6.288,21.95-8.817,29.125-3.211,9.1-9.347,11.81-16.274,12.1H246.792q-9.827.066-13.611,8.2Z" transform="translate(-132.515 21.242)" fill="none" stroke="#a8ff00" stroke-width="1" fill-rule="evenodd"/>
      <path id="Caminho_1141" data-name="Caminho 1141" d="M232.043,49.288l9.833-30.881c2.817-8.519,8.662-12.993,18.529-12.1l-4.541,16.385c-2.917,10.032,10.786,9,13.757-.2l4.808-16.186C278.693,6.121,282.568,4.563,286.5,0c0,0-6.288,21.95-8.817,29.125-3.211,9.1-9.347,11.81-16.274,12.1H246.792q-9.827.066-13.611,8.2Z" transform="translate(-143.173 57.603)" fill="none" stroke="#a8ff00" stroke-width="1" fill-rule="evenodd"/>
      <path id="Caminho_1148" data-name="Caminho 1148" d="M232.043,49.288l9.833-30.881c2.817-8.519,8.662-12.993,18.529-12.1l-4.541,16.385c-2.917,10.032,10.786,9,13.757-.2l4.808-16.186C278.693,6.121,282.568,4.563,286.5,0c0,0-6.288,21.95-8.817,29.125-3.211,9.1-9.347,11.81-16.274,12.1H246.792q-9.827.066-13.611,8.2Z" transform="translate(-109.32 77.999)" fill="none" stroke="#a8ff00" stroke-width="1" fill-rule="evenodd"/>
      <path id="Caminho_1168" data-name="Caminho 1168" d="M232.043,49.288l9.833-30.881c2.817-8.519,8.662-12.993,18.529-12.1l-4.541,16.385c-2.917,10.032,10.786,9,13.757-.2l4.808-16.186C278.693,6.121,282.568,4.563,286.5,0c0,0-6.288,21.95-8.817,29.125-3.211,9.1-9.347,11.81-16.274,12.1H246.792q-9.827.066-13.611,8.2Z" transform="translate(-51.331 154.413)" fill="none" stroke="#a8ff00" stroke-width="1" fill-rule="evenodd"/>
      <path id="Caminho_1169" data-name="Caminho 1169" d="M232.043,49.288l9.833-30.881c2.817-8.519,8.662-12.993,18.529-12.1l-4.541,16.385c-2.917,10.032,10.786,9,13.757-.2l4.808-16.186C278.693,6.121,282.568,4.563,286.5,0c0,0-6.288,21.95-8.817,29.125-3.211,9.1-9.347,11.81-16.274,12.1H246.792q-9.827.066-13.611,8.2Z" transform="translate(28.602 158.347)" fill="none" stroke="#a8ff00" stroke-width="1" fill-rule="evenodd"/>
      <path id="Caminho_1170" data-name="Caminho 1170" d="M232.043,49.288l9.833-30.881c2.817-8.519,8.662-12.993,18.529-12.1l-4.541,16.385c-2.917,10.032,10.786,9,13.757-.2l4.808-16.186C278.693,6.121,282.568,4.563,286.5,0c0,0-6.288,21.95-8.817,29.125-3.211,9.1-9.347,11.81-16.274,12.1H246.792q-9.827.066-13.611,8.2Z" transform="translate(-16.781 174.281)" fill="none" stroke="#a8ff00" stroke-width="1" fill-rule="evenodd"/>
      <path id="Caminho_1171" data-name="Caminho 1171" d="M232.043,49.288l9.833-30.881c2.817-8.519,8.662-12.993,18.529-12.1l-4.541,16.385c-2.917,10.032,10.786,9,13.757-.2l4.808-16.186C278.693,6.121,282.568,4.563,286.5,0c0,0-6.288,21.95-8.817,29.125-3.211,9.1-9.347,11.81-16.274,12.1H246.792q-9.827.066-13.611,8.2Z" transform="translate(-62.302 190.894)" fill="none" stroke="#a8ff00" stroke-width="1" fill-rule="evenodd"/>
      <path id="Caminho_1172" data-name="Caminho 1172" d="M232.043,49.288l9.833-30.881c2.817-8.519,8.662-12.993,18.529-12.1l-4.541,16.385c-2.917,10.032,10.786,9,13.757-.2l4.808-16.186C278.693,6.121,282.568,4.563,286.5,0c0,0-6.288,21.95-8.817,29.125-3.211,9.1-9.347,11.81-16.274,12.1H246.792q-9.827.066-13.611,8.2Z" transform="translate(-107.752 207.455)" fill="none" stroke="#a8ff00" stroke-width="1" fill-rule="evenodd"/>
      <path id="Caminho_1173" data-name="Caminho 1173" d="M232.043,49.288l9.833-30.881c2.817-8.519,8.662-12.993,18.529-12.1l-4.541,16.385c-2.917,10.032,10.786,9,13.757-.2l4.808-16.186C278.693,6.121,282.568,4.563,286.5,0c0,0-6.288,21.95-8.817,29.125-3.211,9.1-9.347,11.81-16.274,12.1H246.792q-9.827.066-13.611,8.2Z" transform="translate(-152.902 223.076)" fill="none" stroke="#a8ff00" stroke-width="1" fill-rule="evenodd"/>
      <path id="Caminho_1174" data-name="Caminho 1174" d="M232.043,49.288l9.833-30.881c2.817-8.519,8.662-12.993,18.529-12.1l-4.541,16.385c-2.917,10.032,10.786,9,13.757-.2l4.808-16.186C278.693,6.121,282.568,4.563,286.5,0c0,0-6.288,21.95-8.817,29.125-3.211,9.1-9.347,11.81-16.274,12.1H246.792q-9.827.066-13.611,8.2Z" transform="translate(-198.353 239.689)" fill="none" stroke="#a8ff00" stroke-width="1" fill-rule="evenodd"/>
      <path id="Caminho_1179" data-name="Caminho 1179" d="M232.043,49.288l9.833-30.881c2.817-8.519,8.662-12.993,18.529-12.1l-4.541,16.385c-2.917,10.032,10.786,9,13.757-.2l4.808-16.186C278.693,6.121,282.568,4.563,286.5,0c0,0-6.288,21.95-8.817,29.125-3.211,9.1-9.347,11.81-16.274,12.1H246.792q-9.827.066-13.611,8.2Z" transform="translate(17.631 194.603)" fill="none" stroke="#a8ff00" stroke-width="1" fill-rule="evenodd"/>
      <path id="Caminho_1180" data-name="Caminho 1180" d="M232.043,49.288l9.833-30.881c2.817-8.519,8.662-12.993,18.529-12.1l-4.541,16.385c-2.917,10.032,10.786,9,13.757-.2l4.808-16.186C278.693,6.121,282.568,4.563,286.5,0c0,0-6.288,21.95-8.817,29.125-3.211,9.1-9.347,11.81-16.274,12.1H246.792q-9.827.066-13.611,8.2Z" transform="translate(-27.507 210.276)" fill="none" stroke="#a8ff00" stroke-width="1" fill-rule="evenodd"/>
      <path id="Caminho_1181" data-name="Caminho 1181" d="M232.043,49.288l9.833-30.881c2.817-8.519,8.662-12.993,18.529-12.1l-4.541,16.385c-2.917,10.032,10.786,9,13.757-.2l4.808-16.186C278.693,6.121,282.568,4.563,286.5,0c0,0-6.288,21.95-8.817,29.125-3.211,9.1-9.347,11.81-16.274,12.1H246.792q-9.827.066-13.611,8.2Z" transform="translate(-37.866 245.905)" fill="none" stroke="#a8ff00" stroke-width="1" fill-rule="evenodd"/>
      <path id="Caminho_1182" data-name="Caminho 1182" d="M232.043,49.288l9.833-30.881c2.817-8.519,8.662-12.993,18.529-12.1l-4.541,16.385c-2.917,10.032,10.786,9,13.757-.2l4.808-16.186C278.693,6.121,282.568,4.563,286.5,0c0,0-6.288,21.95-8.817,29.125-3.211,9.1-9.347,11.81-16.274,12.1H246.792q-9.827.066-13.611,8.2Z" transform="translate(-83.532 262.832)" fill="none" stroke="#a8ff00" stroke-width="1" fill-rule="evenodd"/>
      <path id="Caminho_1183" data-name="Caminho 1183" d="M232.043,49.288l9.833-30.881c2.817-8.519,8.662-12.993,18.529-12.1l-4.541,16.385c-2.917,10.032,10.786,9,13.757-.2l4.808-16.186C278.693,6.121,282.568,4.563,286.5,0c0,0-6.288,21.95-8.817,29.125-3.211,9.1-9.347,11.81-16.274,12.1H246.792q-9.827.066-13.611,8.2Z" transform="translate(-128.754 279.079)" fill="none" stroke="#a8ff00" stroke-width="1" fill-rule="evenodd"/>
      <path id="Caminho_1184" data-name="Caminho 1184" d="M232.043,49.288l9.833-30.881c2.817-8.519,8.662-12.993,18.529-12.1l-4.541,16.385c-2.917,10.032,10.786,9,13.757-.2l4.808-16.186C278.693,6.121,282.568,4.563,286.5,0c0,0-6.288,21.95-8.817,29.125-3.211,9.1-9.347,11.81-16.274,12.1H246.792q-9.827.066-13.611,8.2Z" transform="translate(-174.039 295.327)" fill="none" stroke="#a8ff00" stroke-width="1" fill-rule="evenodd"/>
      <path id="Caminho_1185" data-name="Caminho 1185" d="M232.043,49.288l9.833-30.881c2.817-8.519,8.662-12.993,18.529-12.1l-4.541,16.385c-2.917,10.032,10.786,9,13.757-.2l4.808-16.186C278.693,6.121,282.568,4.563,286.5,0c0,0-6.288,21.95-8.817,29.125-3.211,9.1-9.347,11.81-16.274,12.1H246.792q-9.827.066-13.611,8.2Z" transform="translate(-219.177 310.947)" fill="none" stroke="#a8ff00" stroke-width="1" fill-rule="evenodd"/>
      <path id="Caminho_1186" data-name="Caminho 1186" d="M232.043,49.288l9.833-30.881c2.817-8.519,8.662-12.993,18.529-12.1l-4.541,16.385c-2.917,10.032,10.786,9,13.757-.2l4.808-16.186C278.693,6.121,282.568,4.563,286.5,0c0,0-6.288,21.95-8.817,29.125-3.211,9.1-9.347,11.81-16.274,12.1H246.792q-9.827.066-13.611,8.2Z" transform="translate(-3.914 267.795)" fill="none" stroke="#a8ff00" stroke-width="1" fill-rule="evenodd"/>
      <path id="Caminho_1187" data-name="Caminho 1187" d="M232.043,49.288l9.833-30.881c2.817-8.519,8.662-12.993,18.529-12.1l-4.541,16.385c-2.917,10.032,10.786,9,13.757-.2l4.808-16.186C278.693,6.121,282.568,4.563,286.5,0c0,0-6.288,21.95-8.817,29.125-3.211,9.1-9.347,11.81-16.274,12.1H246.792q-9.827.066-13.611,8.2Z" transform="translate(-49.052 282.528)" fill="none" stroke="#a8ff00" stroke-width="1" fill-rule="evenodd"/>
      <path id="Caminho_1188" data-name="Caminho 1188" d="M232.043,49.288l9.833-30.881c2.817-8.519,8.662-12.993,18.529-12.1l-4.541,16.385c-2.917,10.032,10.786,9,13.757-.2l4.808-16.186C278.693,6.121,282.568,4.563,286.5,0c0,0-6.288,21.95-8.817,29.125-3.211,9.1-9.347,11.81-16.274,12.1H246.792q-9.827.066-13.611,8.2Z" transform="translate(-94.27 298.775)" fill="none" stroke="#a8ff00" stroke-width="1" fill-rule="evenodd"/>
      <path id="Caminho_1189" data-name="Caminho 1189" d="M232.043,49.288l9.833-30.881c2.817-8.519,8.662-12.993,18.529-12.1l-4.541,16.385c-2.917,10.032,10.786,9,13.757-.2l4.808-16.186C278.693,6.121,282.568,4.563,286.5,0c0,0-6.288,21.95-8.817,29.125-3.211,9.1-9.347,11.81-16.274,12.1H246.792q-9.827.066-13.611,8.2Z" transform="translate(-139.641 315.075)" fill="none" stroke="#a8ff00" stroke-width="1" fill-rule="evenodd"/>
      <path id="Caminho_1190" data-name="Caminho 1190" d="M232.043,49.288l9.833-30.881c2.817-8.519,8.662-12.993,18.529-12.1l-4.541,16.385c-2.917,10.032,10.786,9,13.757-.2l4.808-16.186C278.693,6.121,282.568,4.563,286.5,0c0,0-6.288,21.95-8.817,29.125-3.211,9.1-9.347,11.81-16.274,12.1H246.792q-9.827.066-13.611,8.2Z" transform="translate(-185.093 331.322)" fill="none" stroke="#a8ff00" stroke-width="1" fill-rule="evenodd"/>
      <path id="Caminho_1191" data-name="Caminho 1191" d="M232.043,49.288l9.833-30.881c2.817-8.519,8.662-12.993,18.529-12.1l-4.541,16.385c-2.917,10.032,10.786,9,13.757-.2l4.808-16.186C278.693,6.121,282.568,4.563,286.5,0c0,0-6.288,21.95-8.817,29.125-3.211,9.1-9.347,11.81-16.274,12.1H246.792q-9.827.066-13.611,8.2Z" transform="translate(-230.162 346.995)" fill="none" stroke="#a8ff00" stroke-width="1" fill-rule="evenodd"/>
      <path id="Caminho_1192" data-name="Caminho 1192" d="M232.043,49.288l9.833-30.881c2.817-8.519,8.662-12.993,18.529-12.1l-4.541,16.385c-2.917,10.032,10.786,9,13.757-.2l4.808-16.186C278.693,6.121,282.568,4.563,286.5,0c0,0-6.288,21.95-8.817,29.125-3.211,9.1-9.347,11.81-16.274,12.1H246.792q-9.827.066-13.611,8.2Z" transform="translate(157.078 275.005)" fill="none" stroke="#a8ff00" stroke-width="1" fill-rule="evenodd"/>
      <path id="Caminho_1193" data-name="Caminho 1193" d="M232.043,49.288l9.833-30.881c2.817-8.519,8.662-12.993,18.529-12.1l-4.541,16.385c-2.917,10.032,10.786,9,13.757-.2l4.808-16.186C278.693,6.121,282.568,4.563,286.5,0c0,0-6.288,21.95-8.817,29.125-3.211,9.1-9.347,11.81-16.274,12.1H246.792q-9.827.066-13.611,8.2Z" transform="translate(112.154 288.797)" fill="none" stroke="#a8ff00" stroke-width="1" fill-rule="evenodd"/>
      <path id="Caminho_1194" data-name="Caminho 1194" d="M232.043,49.288l9.833-30.881c2.817-8.519,8.662-12.993,18.529-12.1l-4.541,16.385c-2.917,10.032,10.786,9,13.757-.2l4.808-16.186C278.693,6.121,282.568,4.563,286.5,0c0,0-6.288,21.95-8.817,29.125-3.211,9.1-9.347,11.81-16.274,12.1H246.792q-9.827.066-13.611,8.2Z" transform="translate(66.571 305.984)" fill="none" stroke="#a8ff00" stroke-width="1" fill-rule="evenodd"/>
      <path id="Caminho_1195" data-name="Caminho 1195" d="M232.043,49.288l9.833-30.881c2.817-8.519,8.662-12.993,18.529-12.1l-4.541,16.385c-2.917,10.032,10.786,9,13.757-.2l4.808-16.186C278.693,6.121,282.568,4.563,286.5,0c0,0-6.288,21.95-8.817,29.125-3.211,9.1-9.347,11.81-16.274,12.1H246.792q-9.827.066-13.611,8.2Z" transform="translate(102.307 324.426)" fill="none" stroke="#a8ff00" stroke-width="1" fill-rule="evenodd"/>
      <path id="Caminho_1198" data-name="Caminho 1198" d="M232.043,49.288l9.833-30.881c2.817-8.519,8.662-12.993,18.529-12.1l-4.541,16.385c-2.917,10.032,10.786,9,13.757-.2l4.808-16.186C278.693,6.121,282.568,4.563,286.5,0c0,0-6.288,21.95-8.817,29.125-3.211,9.1-9.347,11.81-16.274,12.1H246.792q-9.827.066-13.611,8.2Z" transform="translate(183.22 324.426)" fill="none" stroke="#a8ff00" stroke-width="1" fill-rule="evenodd"/>
      <path id="Caminho_1199" data-name="Caminho 1199" d="M232.043,49.288l9.833-30.881c2.817-8.519,8.662-12.993,18.529-12.1l-4.541,16.385c-2.917,10.032,10.786,9,13.757-.2l4.808-16.186C278.693,6.121,282.568,4.563,286.5,0c0,0-6.288,21.95-8.817,29.125-3.211,9.1-9.347,11.81-16.274,12.1H246.792q-9.827.066-13.611,8.2Z" transform="translate(135.888 346.942)" fill="none" stroke="#a8ff00" stroke-width="1" fill-rule="evenodd"/>
      <path id="Caminho_1200" data-name="Caminho 1200" d="M232.043,49.288l9.833-30.881c2.817-8.519,8.662-12.993,18.529-12.1l-4.541,16.385c-2.917,10.032,10.786,9,13.757-.2l4.808-16.186C278.693,6.121,282.568,4.563,286.5,0c0,0-6.288,21.95-8.817,29.125-3.211,9.1-9.347,11.81-16.274,12.1H246.792q-9.827.066-13.611,8.2Z" transform="translate(126.17 382.363)" fill="none" stroke="#a8ff00" stroke-width="1" fill-rule="evenodd"/>
      <path id="Caminho_1201" data-name="Caminho 1201" d="M232.043,49.288l9.833-30.881c2.817-8.519,8.662-12.993,18.529-12.1l-4.541,16.385c-2.917,10.032,10.786,9,13.757-.2l4.808-16.186C278.693,6.121,282.568,4.563,286.5,0c0,0-6.288,21.95-8.817,29.125-3.211,9.1-9.347,11.81-16.274,12.1H246.792q-9.827.066-13.611,8.2Z" transform="translate(81.116 396.364)" fill="none" stroke="#a8ff00" stroke-width="1" fill-rule="evenodd"/>
      <path id="Caminho_1202" data-name="Caminho 1202" d="M232.043,49.288l9.833-30.881c2.817-8.519,8.662-12.993,18.529-12.1l-4.541,16.385c-2.917,10.032,10.786,9,13.757-.2l4.808-16.186C278.693,6.121,282.568,4.563,286.5,0c0,0-6.288,21.95-8.817,29.125-3.211,9.1-9.347,11.81-16.274,12.1H246.792q-9.827.066-13.611,8.2Z" transform="translate(35.351 413.865)" fill="none" stroke="#a8ff00" stroke-width="1" fill-rule="evenodd"/>
      <path id="Caminho_1203" data-name="Caminho 1203" d="M232.043,49.288l9.833-30.881c2.817-8.519,8.662-12.993,18.529-12.1l-4.541,16.385c-2.917,10.032,10.786,9,13.757-.2l4.808-16.186C278.693,6.121,282.568,4.563,286.5,0c0,0-6.288,21.95-8.817,29.125-3.211,9.1-9.347,11.81-16.274,12.1H246.792q-9.827.066-13.611,8.2Z" transform="translate(-10.01 430.217)" fill="none" stroke="#a8ff00" stroke-width="1" fill-rule="evenodd"/>
      <path id="Caminho_1204" data-name="Caminho 1204" d="M232.043,49.288l9.833-30.881c2.817-8.519,8.662-12.993,18.529-12.1l-4.541,16.385c-2.917,10.032,10.786,9,13.757-.2l4.808-16.186C278.693,6.121,282.568,4.563,286.5,0c0,0-6.288,21.95-8.817,29.125-3.211,9.1-9.347,11.81-16.274,12.1H246.792q-9.827.066-13.611,8.2Z" transform="translate(25.091 449.599)" fill="none" stroke="#a8ff00" stroke-width="1" fill-rule="evenodd"/>
      <path id="Caminho_1205" data-name="Caminho 1205" d="M232.043,49.288l9.833-30.881c2.817-8.519,8.662-12.993,18.529-12.1l-4.541,16.385c-2.917,10.032,10.786,9,13.757-.2l4.808-16.186C278.693,6.121,282.568,4.563,286.5,0c0,0-6.288,21.95-8.817,29.125-3.211,9.1-9.347,11.81-16.274,12.1H246.792q-9.827.066-13.611,8.2Z" transform="translate(70.772 432.725)" fill="none" stroke="#a8ff00" stroke-width="1" fill-rule="evenodd"/>
      <path id="Caminho_1206" data-name="Caminho 1206" d="M232.043,49.288l9.833-30.881c2.817-8.519,8.662-12.993,18.529-12.1l-4.541,16.385c-2.917,10.032,10.786,9,13.757-.2l4.808-16.186C278.693,6.121,282.568,4.563,286.5,0c0,0-6.288,21.95-8.817,29.125-3.211,9.1-9.347,11.81-16.274,12.1H246.792q-9.827.066-13.611,8.2Z" transform="translate(115.91 417.992)" fill="none" stroke="#a8ff00" stroke-width="1" fill-rule="evenodd"/>
      <path id="Caminho_1207" data-name="Caminho 1207" d="M232.043,49.288l9.833-30.881c2.817-8.519,8.662-12.993,18.529-12.1l-4.541,16.385c-2.917,10.032,10.786,9,13.757-.2l4.808-16.186C278.693,6.121,282.568,4.563,286.5,0c0,0-6.288,21.95-8.817,29.125-3.211,9.1-9.347,11.81-16.274,12.1H246.792q-9.827.066-13.611,8.2Z" transform="translate(105.526 453.987)" fill="none" stroke="#a8ff00" stroke-width="1" fill-rule="evenodd"/>
      <path id="Caminho_1208" data-name="Caminho 1208" d="M232.043,49.288l9.833-30.881c2.817-8.519,8.662-12.993,18.529-12.1l-4.541,16.385c-2.917,10.032,10.786,9,13.757-.2l4.808-16.186C278.693,6.121,282.568,4.563,286.5,0c0,0-6.288,21.95-8.817,29.125-3.211,9.1-9.347,11.81-16.274,12.1H246.792q-9.827.066-13.611,8.2Z" transform="translate(-20.361 466.16)" fill="none" stroke="#a8ff00" stroke-width="1" fill-rule="evenodd"/>
      <path id="Caminho_1209" data-name="Caminho 1209" d="M232.043,49.288l9.833-30.881c2.817-8.519,8.662-12.993,18.529-12.1l-4.541,16.385c-2.917,10.032,10.786,9,13.757-.2l4.808-16.186C278.693,6.121,282.568,4.563,286.5,0c0,0-6.288,21.95-8.817,29.125-3.211,9.1-9.347,11.81-16.274,12.1H246.792q-9.827.066-13.611,8.2Z" transform="translate(45.611 377.922)" fill="none" stroke="#a8ff00" stroke-width="1" fill-rule="evenodd"/>
      <path id="Caminho_1210" data-name="Caminho 1210" d="M232.043,49.288l9.833-30.881c2.817-8.519,8.662-12.993,18.529-12.1l-4.541,16.385c-2.917,10.032,10.786,9,13.757-.2l4.808-16.186C278.693,6.121,282.568,4.563,286.5,0c0,0-6.288,21.95-8.817,29.125-3.211,9.1-9.347,11.81-16.274,12.1H246.792q-9.827.066-13.611,8.2Z" transform="translate(0.473 394.222)" fill="none" stroke="#a8ff00" stroke-width="1" fill-rule="evenodd"/>
      <path id="Caminho_1211" data-name="Caminho 1211" d="M232.043,49.288l9.833-30.881c2.817-8.519,8.662-12.993,18.529-12.1l-4.541,16.385c-2.917,10.032,10.786,9,13.757-.2l4.808-16.186C278.693,6.121,282.568,4.563,286.5,0c0,0-6.288,21.95-8.817,29.125-3.211,9.1-9.347,11.81-16.274,12.1H246.792q-9.827.066-13.611,8.2Z" transform="translate(-44.978 410.783)" fill="none" stroke="#a8ff00" stroke-width="1" fill-rule="evenodd"/>
      <path id="Caminho_1212" data-name="Caminho 1212" d="M232.043,49.288l9.833-30.881c2.817-8.519,8.662-12.993,18.529-12.1l-4.541,16.385c-2.917,10.032,10.786,9,13.757-.2l4.808-16.186C278.693,6.121,282.568,4.563,286.5,0c0,0-6.288,21.95-8.817,29.125-3.211,9.1-9.347,11.81-16.274,12.1H246.792q-9.827.066-13.611,8.2Z" transform="translate(-55.238 446.725)" fill="none" stroke="#a8ff00" stroke-width="1" fill-rule="evenodd"/>
      <path id="Caminho_1213" data-name="Caminho 1213" d="M232.043,49.288l9.833-30.881c2.817-8.519,8.662-12.993,18.529-12.1l-4.541,16.385c-2.917,10.032,10.786,9,13.757-.2l4.808-16.186C278.693,6.121,282.568,4.563,286.5,0c0,0-6.288,21.95-8.817,29.125-3.211,9.1-9.347,11.81-16.274,12.1H246.792q-9.827.066-13.611,8.2Z" transform="translate(-100.063 460.831)" fill="none" stroke="#a8ff00" stroke-width="1" fill-rule="evenodd"/>
      <path id="Caminho_1214" data-name="Caminho 1214" d="M232.043,49.288l9.833-30.881c2.817-8.519,8.662-12.993,18.529-12.1l-4.541,16.385c-2.917,10.032,10.786,9,13.757-.2l4.808-16.186C278.693,6.121,282.568,4.563,286.5,0c0,0-6.288,21.95-8.817,29.125-3.211,9.1-9.347,11.81-16.274,12.1H246.792q-9.827.066-13.611,8.2Z" transform="translate(173.424 360.108)" fill="none" stroke="#a8ff00" stroke-width="1" fill-rule="evenodd"/>
      <path id="Caminho_1215" data-name="Caminho 1215" d="M232.043,49.288l9.833-30.881c2.817-8.519,8.662-12.993,18.529-12.1l-4.541,16.385c-2.917,10.032,10.786,9,13.757-.2l4.808-16.186C278.693,6.121,282.568,4.563,286.5,0c0,0-6.288,21.95-8.817,29.125-3.211,9.1-9.347,11.81-16.274,12.1H246.792q-9.827.066-13.611,8.2Z" transform="translate(91.298 360.734)" fill="none" stroke="#a8ff00" stroke-width="1" fill-rule="evenodd"/>
      <path id="Caminho_1216" data-name="Caminho 1216" d="M232.043,49.288l9.833-30.881c2.817-8.519,8.662-12.993,18.529-12.1l-4.541,16.385c-2.917,10.032,10.786,9,13.757-.2l4.808-16.186C278.693,6.121,282.568,4.563,286.5,0c0,0-6.288,21.95-8.817,29.125-3.211,9.1-9.347,11.81-16.274,12.1H246.792q-9.827.066-13.611,8.2Z" transform="translate(217.935 346.629)" fill="none" stroke="#a8ff00" stroke-width="1" fill-rule="evenodd"/>
      <path id="Caminho_1217" data-name="Caminho 1217" d="M232.043,49.288l9.833-30.881c2.817-8.519,8.662-12.993,18.529-12.1l-4.541,16.385c-2.917,10.032,10.786,9,13.757-.2l4.808-16.186C278.693,6.121,282.568,4.563,286.5,0c0,0-6.288,21.95-8.817,29.125-3.211,9.1-9.347,11.81-16.274,12.1H246.792q-9.827.066-13.611,8.2Z" transform="translate(146.509 311)" fill="none" stroke="#a8ff00" stroke-width="1" fill-rule="evenodd"/>
      <path id="Caminho_1219" data-name="Caminho 1219" d="M232.043,49.288l9.833-30.881c2.817-8.519,8.662-12.993,18.529-12.1l-4.541,16.385c-2.917,10.032,10.786,9,13.757-.2l4.808-16.186C278.693,6.121,282.568,4.563,286.5,0c0,0-6.288,21.95-8.817,29.125-3.211,9.1-9.347,11.81-16.274,12.1H246.792q-9.827.066-13.611,8.2Z" transform="translate(87.685 233.733)" fill="none" stroke="#a8ff00" stroke-width="1" fill-rule="evenodd"/>
      <path id="Caminho_1221" data-name="Caminho 1221" d="M232.043,49.288l9.833-30.881c2.817-8.519,8.662-12.993,18.529-12.1l-4.541,16.385c-2.917,10.032,10.786,9,13.757-.2l4.808-16.186C278.693,6.121,282.568,4.563,286.5,0c0,0-6.288,21.95-8.817,29.125-3.211,9.1-9.347,11.81-16.274,12.1H246.792q-9.827.066-13.611,8.2Z" transform="translate(-73.042 227.15)" fill="none" stroke="#a8ff00" stroke-width="1" fill-rule="evenodd"/>
      <path id="Caminho_1222" data-name="Caminho 1222" d="M232.043,49.288l9.833-30.881c2.817-8.519,8.662-12.993,18.529-12.1l-4.541,16.385c-2.917,10.032,10.786,9,13.757-.2l4.808-16.186C278.693,6.121,282.568,4.563,286.5,0c0,0-6.288,21.95-8.817,29.125-3.211,9.1-9.347,11.81-16.274,12.1H246.792q-9.827.066-13.611,8.2Z" transform="translate(52.508 214.665)" fill="none" stroke="#a8ff00" stroke-width="1" fill-rule="evenodd"/>
      <path id="Caminho_1223" data-name="Caminho 1223" d="M232.043,49.288l9.833-30.881c2.817-8.519,8.662-12.993,18.529-12.1l-4.541,16.385c-2.917,10.032,10.786,9,13.757-.2l4.808-16.186C278.693,6.121,282.568,4.563,286.5,0c0,0-6.288,21.95-8.817,29.125-3.211,9.1-9.347,11.81-16.274,12.1H246.792q-9.827.066-13.611,8.2Z" transform="translate(41.85 250.921)" fill="none" stroke="#a8ff00" stroke-width="1" fill-rule="evenodd"/>
      <path id="Caminho_1229" data-name="Caminho 1229" d="M232.043,49.288l9.833-30.881c2.817-8.519,8.662-12.993,18.529-12.1l-4.541,16.385c-2.917,10.032,10.786,9,13.757-.2l4.808-16.186C278.693,6.121,282.568,4.563,286.5,0c0,0-6.288,21.95-8.817,29.125-3.211,9.1-9.347,11.81-16.274,12.1H246.792q-9.827.066-13.611,8.2Z" transform="translate(76.645 270.303)" fill="none" stroke="#a8ff00" stroke-width="1" fill-rule="evenodd"/>
      <path id="Caminho_1230" data-name="Caminho 1230" d="M232.043,49.288l9.833-30.881c2.817-8.519,8.662-12.993,18.529-12.1l-4.541,16.385c-2.917,10.032,10.786,9,13.757-.2l4.808-16.186C278.693,6.121,282.568,4.563,286.5,0c0,0-6.288,21.95-8.817,29.125-3.211,9.1-9.347,11.81-16.274,12.1H246.792q-9.827.066-13.611,8.2Z" transform="translate(31.11 286.916)" fill="none" stroke="#a8ff00" stroke-width="1" fill-rule="evenodd"/>
      <path id="Caminho_1231" data-name="Caminho 1231" d="M232.043,49.288l9.833-30.881c2.817-8.519,8.662-12.993,18.529-12.1l-4.541,16.385c-2.917,10.032,10.786,9,13.757-.2l4.808-16.186C278.693,6.121,282.568,4.563,286.5,0c0,0-6.288,21.95-8.817,29.125-3.211,9.1-9.347,11.81-16.274,12.1H246.792q-9.827.066-13.611,8.2Z" transform="translate(-14.655 303.843)" fill="none" stroke="#a8ff00" stroke-width="1" fill-rule="evenodd"/>
      <path id="Caminho_1232" data-name="Caminho 1232" d="M232.043,49.288l9.833-30.881c2.817-8.519,8.662-12.993,18.529-12.1l-4.541,16.385c-2.917,10.032,10.786,9,13.757-.2l4.808-16.186C278.693,6.121,282.568,4.563,286.5,0c0,0-6.288,21.95-8.817,29.125-3.211,9.1-9.347,11.81-16.274,12.1H246.792q-9.827.066-13.611,8.2Z" transform="translate(20.934 322.545)" fill="none" stroke="#a8ff00" stroke-width="1" fill-rule="evenodd"/>
      <path id="Caminho_1233" data-name="Caminho 1233" d="M232.043,49.288l9.833-30.881c2.817-8.519,8.662-12.993,18.529-12.1l-4.541,16.385c-2.917,10.032,10.786,9,13.757-.2l4.808-16.186C278.693,6.121,282.568,4.563,286.5,0c0,0-6.288,21.95-8.817,29.125-3.211,9.1-9.347,11.81-16.274,12.1H246.792q-9.827.066-13.611,8.2Z" transform="translate(-24.602 339.158)" fill="none" stroke="#a8ff00" stroke-width="1" fill-rule="evenodd"/>
      <path id="Caminho_1234" data-name="Caminho 1234" d="M232.043,49.288l9.833-30.881c2.817-8.519,8.662-12.993,18.529-12.1l-4.541,16.385c-2.917,10.032,10.786,9,13.757-.2l4.808-16.186C278.693,6.121,282.568,4.563,286.5,0c0,0-6.288,21.95-8.817,29.125-3.211,9.1-9.347,11.81-16.274,12.1H246.792q-9.827.066-13.611,8.2Z" transform="translate(-69.426 353.838)" fill="none" stroke="#a8ff00" stroke-width="1" fill-rule="evenodd"/>
      <path id="Caminho_1235" data-name="Caminho 1235" d="M232.043,49.288l9.833-30.881c2.817-8.519,8.662-12.993,18.529-12.1l-4.541,16.385c-2.917,10.032,10.786,9,13.757-.2l4.808-16.186C278.693,6.121,282.568,4.563,286.5,0c0,0-6.288,21.95-8.817,29.125-3.211,9.1-9.347,11.81-16.274,12.1H246.792q-9.827.066-13.611,8.2Z" transform="translate(-115.191 370.399)" fill="none" stroke="#a8ff00" stroke-width="1" fill-rule="evenodd"/>
      <path id="Caminho_1236" data-name="Caminho 1236" d="M232.043,49.288l9.833-30.881c2.817-8.519,8.662-12.993,18.529-12.1l-4.541,16.385c-2.917,10.032,10.786,9,13.757-.2l4.808-16.186C278.693,6.121,282.568,4.563,286.5,0c0,0-6.288,21.95-8.817,29.125-3.211,9.1-9.347,11.81-16.274,12.1H246.792q-9.827.066-13.611,8.2Z" transform="translate(-160.475 386.699)" fill="none" stroke="#a8ff00" stroke-width="1" fill-rule="evenodd"/>
      <path id="Caminho_1237" data-name="Caminho 1237" d="M232.043,49.288l9.833-30.881c2.817-8.519,8.662-12.993,18.529-12.1l-4.541,16.385c-2.917,10.032,10.786,9,13.757-.2l4.808-16.186C278.693,6.121,282.568,4.563,286.5,0c0,0-6.288,21.95-8.817,29.125-3.211,9.1-9.347,11.81-16.274,12.1H246.792q-9.827.066-13.611,8.2Z" transform="translate(56.752 341.3)" fill="none" stroke="#a8ff00" stroke-width="1" fill-rule="evenodd"/>
      <path id="Caminho_1238" data-name="Caminho 1238" d="M232.043,49.288l9.833-30.881c2.817-8.519,8.662-12.993,18.529-12.1l-4.541,16.385c-2.917,10.032,10.786,9,13.757-.2l4.808-16.186C278.693,6.121,282.568,4.563,286.5,0c0,0-6.288,21.95-8.817,29.125-3.211,9.1-9.347,11.81-16.274,12.1H246.792q-9.827.066-13.611,8.2Z" transform="translate(11.3 357.861)" fill="none" stroke="#a8ff00" stroke-width="1" fill-rule="evenodd"/>
      <path id="Caminho_1239" data-name="Caminho 1239" d="M232.043,49.288l9.833-30.881c2.817-8.519,8.662-12.993,18.529-12.1l-4.541,16.385c-2.917,10.032,10.786,9,13.757-.2l4.808-16.186C278.693,6.121,282.568,4.563,286.5,0c0,0-6.288,21.95-8.817,29.125-3.211,9.1-9.347,11.81-16.274,12.1H246.792q-9.827.066-13.611,8.2Z" transform="translate(-34.151 374.474)" fill="none" stroke="#a8ff00" stroke-width="1" fill-rule="evenodd"/>
      <path id="Caminho_1240" data-name="Caminho 1240" d="M232.043,49.288l9.833-30.881c2.817-8.519,8.662-12.993,18.529-12.1l-4.541,16.385c-2.917,10.032,10.786,9,13.757-.2l4.808-16.186C278.693,6.121,282.568,4.563,286.5,0c0,0-6.288,21.95-8.817,29.125-3.211,9.1-9.347,11.81-16.274,12.1H246.792q-9.827.066-13.611,8.2Z" transform="translate(-79.373 389.468)" fill="none" stroke="#a8ff00" stroke-width="1" fill-rule="evenodd"/>
      <path id="Caminho_1241" data-name="Caminho 1241" d="M232.043,49.288l9.833-30.881c2.817-8.519,8.662-12.993,18.529-12.1l-4.541,16.385c-2.917,10.032,10.786,9,13.757-.2l4.808-16.186C278.693,6.121,282.568,4.563,286.5,0c0,0-6.288,21.95-8.817,29.125-3.211,9.1-9.347,11.81-16.274,12.1H246.792q-9.827.066-13.611,8.2Z" transform="translate(-89.55 424.888)" fill="none" stroke="#a8ff00" stroke-width="1" fill-rule="evenodd"/>
      <path id="Caminho_1242" data-name="Caminho 1242" d="M232.043,49.288l9.833-30.881c2.817-8.519,8.662-12.993,18.529-12.1l-4.541,16.385c-2.917,10.032,10.786,9,13.757-.2l4.808-16.186C278.693,6.121,282.568,4.563,286.5,0c0,0-6.288,21.95-8.817,29.125-3.211,9.1-9.347,11.81-16.274,12.1H246.792q-9.827.066-13.611,8.2Z" transform="translate(-124.825 405.715)" fill="none" stroke="#a8ff00" stroke-width="1" fill-rule="evenodd"/>
      <path id="Caminho_1243" data-name="Caminho 1243" d="M232.043,49.288l9.833-30.881c2.817-8.519,8.662-12.993,18.529-12.1l-4.541,16.385c-2.917,10.032,10.786,9,13.757-.2l4.808-16.186C278.693,6.121,282.568,4.563,286.5,0c0,0-6.288,21.95-8.817,29.125-3.211,9.1-9.347,11.81-16.274,12.1H246.792q-9.827.066-13.611,8.2Z" transform="translate(-134.855 441.136)" fill="none" stroke="#a8ff00" stroke-width="1" fill-rule="evenodd"/>
      <path id="Caminho_1244" data-name="Caminho 1244" d="M232.043,49.288l9.833-30.881c2.817-8.519,8.662-12.993,18.529-12.1l-4.541,16.385c-2.917,10.032,10.786,9,13.757-.2l4.808-16.186C278.693,6.121,282.568,4.563,286.5,0c0,0-6.288,21.95-8.817,29.125-3.211,9.1-9.347,11.81-16.274,12.1H246.792q-9.827.066-13.611,8.2Z" transform="translate(-180.537 458.062)" fill="none" stroke="#a8ff00" stroke-width="1" fill-rule="evenodd"/>
      <path id="Caminho_1245" data-name="Caminho 1245" d="M232.043,49.288l9.833-30.881c2.817-8.519,8.662-12.993,18.529-12.1l-4.541,16.385c-2.917,10.032,10.786,9,13.757-.2l4.808-16.186C278.693,6.121,282.568,4.563,286.5,0c0,0-6.288,21.95-8.817,29.125-3.211,9.1-9.347,11.81-16.274,12.1H246.792q-9.827.066-13.611,8.2Z" transform="translate(-170.276 422.328)" fill="none" stroke="#a8ff00" stroke-width="1" fill-rule="evenodd"/>
      <path id="Caminho_1246" data-name="Caminho 1246" d="M232.043,49.288l9.833-30.881c2.817-8.519,8.662-12.993,18.529-12.1l-4.541,16.385c-2.917,10.032,10.786,9,13.757-.2l4.808-16.186C278.693,6.121,282.568,4.563,286.5,0c0,0-6.288,21.95-8.817,29.125-3.211,9.1-9.347,11.81-16.274,12.1H246.792q-9.827.066-13.611,8.2Z" transform="translate(-215.247 437.948)" fill="none" stroke="#a8ff00" stroke-width="1" fill-rule="evenodd"/>
      <path id="Caminho_1247" data-name="Caminho 1247" d="M232.043,49.288l9.833-30.881c2.817-8.519,8.662-12.993,18.529-12.1l-4.541,16.385c-2.917,10.032,10.786,9,13.757-.2l4.808-16.186C278.693,6.121,282.568,4.563,286.5,0c0,0-6.288,21.95-8.817,29.125-3.211,9.1-9.347,11.81-16.274,12.1H246.792q-9.827.066-13.611,8.2Z" transform="translate(-205.479 402.319)" fill="none" stroke="#a8ff00" stroke-width="1" fill-rule="evenodd"/>
      <path id="Caminho_1248" data-name="Caminho 1248" d="M232.043,49.288l9.833-30.881c2.817-8.519,8.662-12.993,18.529-12.1l-4.541,16.385c-2.917,10.032,10.786,9,13.757-.2l4.808-16.186C278.693,6.121,282.568,4.563,286.5,0c0,0-6.288,21.95-8.817,29.125-3.211,9.1-9.347,11.81-16.274,12.1H246.792q-9.827.066-13.611,8.2Z" transform="translate(-59.312 318.157)" fill="none" stroke="#a8ff00" stroke-width="1" fill-rule="evenodd"/>
      <path id="Caminho_1249" data-name="Caminho 1249" d="M232.043,49.288l9.833-30.881c2.817-8.519,8.662-12.993,18.529-12.1l-4.541,16.385c-2.917,10.032,10.786,9,13.757-.2l4.808-16.186C278.693,6.121,282.568,4.563,286.5,0c0,0-6.288,21.95-8.817,29.125-3.211,9.1-9.347,11.81-16.274,12.1H246.792q-9.827.066-13.611,8.2Z" transform="translate(-104.763 334.717)" fill="none" stroke="#a8ff00" stroke-width="1" fill-rule="evenodd"/>
      <path id="Caminho_1250" data-name="Caminho 1250" d="M232.043,49.288l9.833-30.881c2.817-8.519,8.662-12.993,18.529-12.1l-4.541,16.385c-2.917,10.032,10.786,9,13.757-.2l4.808-16.186C278.693,6.121,282.568,4.563,286.5,0c0,0-6.288,21.95-8.817,29.125-3.211,9.1-9.347,11.81-16.274,12.1H246.792q-9.827.066-13.611,8.2Z" transform="translate(-150.215 351.017)" fill="none" stroke="#a8ff00" stroke-width="1" fill-rule="evenodd"/>
      <path id="Caminho_1251" data-name="Caminho 1251" d="M232.043,49.288l9.833-30.881c2.817-8.519,8.662-12.993,18.529-12.1l-4.541,16.385c-2.917,10.032,10.786,9,13.757-.2l4.808-16.186C278.693,6.121,282.568,4.563,286.5,0c0,0-6.288,21.95-8.817,29.125-3.211,9.1-9.347,11.81-16.274,12.1H246.792q-9.827.066-13.611,8.2Z" transform="translate(-195.353 366.951)" fill="none" stroke="#a8ff00" stroke-width="1" fill-rule="evenodd"/>
      <path id="Caminho_1252" data-name="Caminho 1252" d="M232.043,49.288l9.833-30.881c2.817-8.519,8.662-12.993,18.529-12.1l-4.541,16.385c-2.917,10.032,10.786,9,13.757-.2l4.808-16.186C278.693,6.121,282.568,4.563,286.5,0c0,0-6.288,21.95-8.817,29.125-3.211,9.1-9.347,11.81-16.274,12.1H246.792q-9.827.066-13.611,8.2Z" transform="translate(122.91 252.629)" fill="none" stroke="#a8ff00" stroke-width="1" fill-rule="evenodd"/>
      <path id="Caminho_1253" data-name="Caminho 1253" d="M232.043,49.288l9.833-30.881c2.817-8.519,8.662-12.993,18.529-12.1l-4.541,16.385c-2.917,10.032,10.786,9,13.757-.2l4.808-16.186C278.693,6.121,282.568,4.563,286.5,0c0,0-6.288,21.95-8.817,29.125-3.211,9.1-9.347,11.81-16.274,12.1H246.792q-9.827.066-13.611,8.2Z" transform="translate(7.287 230.599)" fill="none" stroke="#a8ff00" stroke-width="1" fill-rule="evenodd"/>
      <path id="Caminho_1254" data-name="Caminho 1254" d="M232.043,49.288l9.833-30.881c2.817-8.519,8.662-12.993,18.529-12.1l-4.541,16.385c-2.917,10.032,10.786,9,13.757-.2l4.808-16.186C278.693,6.121,282.568,4.563,286.5,0c0,0-6.288,21.95-8.817,29.125-3.211,9.1-9.347,11.81-16.274,12.1H246.792q-9.827.066-13.611,8.2Z" transform="translate(-118.327 243.398)" fill="none" stroke="#a8ff00" stroke-width="1" fill-rule="evenodd"/>
      <path id="Caminho_1255" data-name="Caminho 1255" d="M232.043,49.288l9.833-30.881c2.817-8.519,8.662-12.993,18.529-12.1l-4.541,16.385c-2.917,10.032,10.786,9,13.757-.2l4.808-16.186C278.693,6.121,282.568,4.563,286.5,0c0,0-6.288,21.95-8.817,29.125-3.211,9.1-9.347,11.81-16.274,12.1H246.792q-9.827.066-13.611,8.2Z" transform="translate(-163.779 259.384)" fill="none" stroke="#a8ff00" stroke-width="1" fill-rule="evenodd"/>
      <path id="Caminho_1256" data-name="Caminho 1256" d="M232.043,49.288l9.833-30.881c2.817-8.519,8.662-12.993,18.529-12.1l-4.541,16.385c-2.917,10.032,10.786,9,13.757-.2l4.808-16.186C278.693,6.121,282.568,4.563,286.5,0c0,0-6.288,21.95-8.817,29.125-3.211,9.1-9.347,11.81-16.274,12.1H246.792q-9.827.066-13.611,8.2Z" transform="translate(-208.917 275.318)" fill="none" stroke="#a8ff00" stroke-width="1" fill-rule="evenodd"/>
      <path id="Caminho_1257" data-name="Caminho 1257" d="M232.043,49.288l9.833-30.881c2.817-8.519,8.662-12.993,18.529-12.1l-4.541,16.385c-2.917,10.032,10.786,9,13.757-.2l4.808-16.186C278.693,6.121,282.568,4.563,286.5,0c0,0-6.288,21.95-8.817,29.125-3.211,9.1-9.347,11.81-16.274,12.1H246.792q-9.827.066-13.611,8.2Z" transform="translate(63.4 178.497)" fill="none" stroke="#a8ff00" stroke-width="1" fill-rule="evenodd"/>
      <path id="Caminho_1260" data-name="Caminho 1260" d="M232.043,49.288l9.833-30.881c2.817-8.519,8.662-12.993,18.529-12.1l-4.541,16.385c-2.917,10.032,10.786,9,13.757-.2l4.808-16.186C278.693,6.121,282.568,4.563,286.5,0c0,0-6.288,21.95-8.817,29.125-3.211,9.1-9.347,11.81-16.274,12.1H246.792q-9.827.066-13.611,8.2Z" transform="translate(-6.119 138.338)" fill="none" stroke="#a8ff00" stroke-width="1" fill-rule="evenodd"/>
      <path id="Caminho_1261" data-name="Caminho 1261" d="M232.043,49.288l9.833-30.881c2.817-8.519,8.662-12.993,18.529-12.1l-4.541,16.385c-2.917,10.032,10.786,9,13.757-.2l4.808-16.186C278.693,6.121,282.568,4.563,286.5,0c0,0-6.288,21.95-8.817,29.125-3.211,9.1-9.347,11.81-16.274,12.1H246.792q-9.827.066-13.611,8.2Z" transform="translate(-40.687 118.277)" fill="none" stroke="#a8ff00" stroke-width="1" fill-rule="evenodd"/>
      <path id="Caminho_1262" data-name="Caminho 1262" d="M232.043,49.288l9.833-30.881c2.817-8.519,8.662-12.993,18.529-12.1l-4.541,16.385c-2.917,10.032,10.786,9,13.757-.2l4.808-16.186C278.693,6.121,282.568,4.563,286.5,0c0,0-6.288,21.95-8.817,29.125-3.211,9.1-9.347,11.81-16.274,12.1H246.792q-9.827.066-13.611,8.2Z" transform="translate(-120.208 114.495)" fill="none" stroke="#a8ff00" stroke-width="1" fill-rule="evenodd"/>
      <path id="Caminho_1263" data-name="Caminho 1263" d="M232.043,49.288l9.833-30.881c2.817-8.519,8.662-12.993,18.529-12.1l-4.541,16.385c-2.917,10.032,10.786,9,13.757-.2l4.808-16.186C278.693,6.121,282.568,4.563,286.5,0c0,0-6.288,21.95-8.817,29.125-3.211,9.1-9.347,11.81-16.274,12.1H246.792q-9.827.066-13.611,8.2Z" transform="translate(-165.973 131.756)" fill="none" stroke="#a8ff00" stroke-width="1" fill-rule="evenodd"/>
      <path id="Caminho_1264" data-name="Caminho 1264" d="M232.043,49.288l9.833-30.881c2.817-8.519,8.662-12.993,18.529-12.1l-4.541,16.385c-2.917,10.032,10.786,9,13.757-.2l4.808-16.186C278.693,6.121,282.568,4.563,286.5,0c0,0-6.288,21.95-8.817,29.125-3.211,9.1-9.347,11.81-16.274,12.1H246.792q-9.827.066-13.611,8.2Z" transform="translate(-131.262 150.824)" fill="none" stroke="#a8ff00" stroke-width="1" fill-rule="evenodd"/>
      <path id="Caminho_1265" data-name="Caminho 1265" d="M232.043,49.288l9.833-30.881c2.817-8.519,8.662-12.993,18.529-12.1l-4.541,16.385c-2.917,10.032,10.786,9,13.757-.2l4.808-16.186C278.693,6.121,282.568,4.563,286.5,0c0,0-6.288,21.95-8.817,29.125-3.211,9.1-9.347,11.81-16.274,12.1H246.792q-9.827.066-13.611,8.2Z" transform="translate(-176.958 168.064)" fill="none" stroke="#a8ff00" stroke-width="1" fill-rule="evenodd"/>
      <path id="Caminho_1266" data-name="Caminho 1266" d="M232.043,49.288l9.833-30.881c2.817-8.519,8.662-12.993,18.529-12.1l-4.541,16.385c-2.917,10.032,10.786,9,13.757-.2l4.808-16.186C278.693,6.121,282.568,4.563,286.5,0c0,0-6.288,21.95-8.817,29.125-3.211,9.1-9.347,11.81-16.274,12.1H246.792q-9.827.066-13.611,8.2Z" transform="translate(-186.973 203.835)" fill="none" stroke="#a8ff00" stroke-width="1" fill-rule="evenodd"/>
      <path id="Caminho_1267" data-name="Caminho 1267" d="M232.043,49.288l9.833-30.881c2.817-8.519,8.662-12.993,18.529-12.1l-4.541,16.385c-2.917,10.032,10.786,9,13.757-.2l4.808-16.186C278.693,6.121,282.568,4.563,286.5,0c0,0-6.288,21.95-8.817,29.125-3.211,9.1-9.347,11.81-16.274,12.1H246.792q-9.827.066-13.611,8.2Z" transform="translate(-141.522 186.506)" fill="none" stroke="#a8ff00" stroke-width="1" fill-rule="evenodd"/>
      <path id="Caminho_1268" data-name="Caminho 1268" d="M232.043,49.288l9.833-30.881c2.817-8.519,8.662-12.993,18.529-12.1l-4.541,16.385c-2.917,10.032,10.786,9,13.757-.2l4.808-16.186C278.693,6.121,282.568,4.563,286.5,0c0,0-6.288,21.95-8.817,29.125-3.211,9.1-9.347,11.81-16.274,12.1H246.792q-9.827.066-13.611,8.2Z" transform="translate(-96.464 170.833)" fill="none" stroke="#a8ff00" stroke-width="1" fill-rule="evenodd"/>
      <path id="Caminho_1269" data-name="Caminho 1269" d="M232.043,49.288l9.833-30.881c2.817-8.519,8.662-12.993,18.529-12.1l-4.541,16.385c-2.917,10.032,10.786,9,13.757-.2l4.808-16.186C278.693,6.121,282.568,4.563,286.5,0c0,0-6.288,21.95-8.817,29.125-3.211,9.1-9.347,11.81-16.274,12.1H246.792q-9.827.066-13.611,8.2Z" transform="translate(-222.096 183.371)" fill="none" stroke="#a8ff00" stroke-width="1" fill-rule="evenodd"/>
      <path id="Caminho_1270" data-name="Caminho 1270" d="M232.043,49.288l9.833-30.881c2.817-8.519,8.662-12.993,18.529-12.1l-4.541,16.385c-2.917,10.032,10.786,9,13.757-.2l4.808-16.186C278.693,6.121,282.568,4.563,286.5,0c0,0-6.288,21.95-8.817,29.125-3.211,9.1-9.347,11.81-16.274,12.1H246.792q-9.827.066-13.611,8.2Z" transform="translate(-232.043 219.314)" fill="none" stroke="#a8ff00" stroke-width="1" fill-rule="evenodd"/>
      <path id="Caminho_1271" data-name="Caminho 1271" d="M232.043,49.288l9.833-30.881c2.817-8.519,8.662-12.993,18.529-12.1l-4.541,16.385c-2.917,10.032,10.786,9,13.757-.2l4.808-16.186C278.693,6.121,282.568,4.563,286.5,0c0,0-6.288,21.95-8.817,29.125-3.211,9.1-9.347,11.81-16.274,12.1H246.792q-9.827.066-13.611,8.2Z" transform="translate(-86.124 134.89)" fill="none" stroke="#a8ff00" stroke-width="1" fill-rule="evenodd"/>
      <path id="Caminho_1272" data-name="Caminho 1272" d="M232.043,49.288l9.833-30.881c2.817-8.519,8.662-12.993,18.529-12.1l-4.541,16.385c-2.917,10.032,10.786,9,13.757-.2l4.808-16.186C278.693,6.121,282.568,4.563,286.5,0c0,0-6.288,21.95-8.817,29.125-3.211,9.1-9.347,11.81-16.274,12.1H246.792q-9.827.066-13.611,8.2Z" transform="translate(-211.425 147.376)" fill="none" stroke="#a8ff00" stroke-width="1" fill-rule="evenodd"/>
      <path id="Caminho_1275" data-name="Caminho 1275" d="M232.043,49.288l9.833-30.881c2.817-8.519,8.662-12.993,18.529-12.1l-4.541,16.385c-2.917,10.032,10.786,9,13.757-.2l4.808-16.186C278.693,6.121,282.568,4.563,286.5,0c0,0-6.288,21.95-8.817,29.125-3.211,9.1-9.347,11.81-16.274,12.1H246.792q-9.827.066-13.611,8.2Z" transform="translate(-74.839 98.268)" fill="none" stroke="#a8ff00" stroke-width="1" fill-rule="evenodd"/>
      <path id="Caminho_1277" data-name="Caminho 1277" d="M232.043,49.288l9.833-30.881c2.817-8.519,8.662-12.993,18.529-12.1l-4.541,16.385c-2.917,10.032,10.786,9,13.757-.2l4.808-16.186C278.693,6.121,282.568,4.563,286.5,0c0,0-6.288,21.95-8.817,29.125-3.211,9.1-9.347,11.81-16.274,12.1H246.792q-9.827.066-13.611,8.2Z" transform="translate(163.293 396.103)" fill="none" stroke="#a8ff00" stroke-width="1" fill-rule="evenodd"/>
      <path id="Caminho_1278" data-name="Caminho 1278" d="M232.043,49.288l9.833-30.881c2.817-8.519,8.662-12.993,18.529-12.1l-4.541,16.385c-2.917,10.032,10.786,9,13.757-.2l4.808-16.186C278.693,6.121,282.568,4.563,286.5,0c0,0-6.288,21.95-8.817,29.125-3.211,9.1-9.347,11.81-16.274,12.1H246.792q-9.827.066-13.611,8.2Z" transform="translate(152.909 432.098)" fill="none" stroke="#a8ff00" stroke-width="1" fill-rule="evenodd"/>
      <path id="Caminho_1279" data-name="Caminho 1279" d="M232.043,49.288l9.833-30.881c2.817-8.519,8.662-12.993,18.529-12.1l-4.541,16.385c-2.917,10.032,10.786,9,13.757-.2l4.808-16.186C278.693,6.121,282.568,4.563,286.5,0c0,0-6.288,21.95-8.817,29.125-3.211,9.1-9.347,11.81-16.274,12.1H246.792q-9.827.066-13.611,8.2Z" transform="translate(208.307 382.311)" fill="none" stroke="#a8ff00" stroke-width="1" fill-rule="evenodd"/>
      <path id="Caminho_1280" data-name="Caminho 1280" d="M232.043,49.288l9.833-30.881c2.817-8.519,8.662-12.993,18.529-12.1l-4.541,16.385c-2.917,10.032,10.786,9,13.757-.2l4.808-16.186C278.693,6.121,282.568,4.563,286.5,0c0,0-6.288,21.95-8.817,29.125-3.211,9.1-9.347,11.81-16.274,12.1H246.792q-9.827.066-13.611,8.2Z" transform="translate(197.923 418.306)" fill="none" stroke="#a8ff00" stroke-width="1" fill-rule="evenodd"/>
      <path id="Caminho_1281" data-name="Caminho 1281" d="M232.043,49.288l9.833-30.881c2.817-8.519,8.662-12.993,18.529-12.1l-4.541,16.385c-2.917,10.032,10.786,9,13.757-.2l4.808-16.186C278.693,6.121,282.568,4.563,286.5,0c0,0-6.288,21.95-8.817,29.125-3.211,9.1-9.347,11.81-16.274,12.1H246.792q-9.827.066-13.611,8.2Z" transform="translate(187.129 454.614)" fill="none" stroke="#a8ff00" stroke-width="1" fill-rule="evenodd"/>
      <path id="Caminho_1282" data-name="Caminho 1282" d="M232.043,49.288l9.833-30.881c2.817-8.519,8.662-12.993,18.529-12.1l-4.541,16.385c-2.917,10.032,10.786,9,13.757-.2l4.808-16.186C278.693,6.121,282.568,4.563,286.5,0c0,0-6.288,21.95-8.817,29.125-3.211,9.1-9.347,11.81-16.274,12.1H246.792q-9.827.066-13.611,8.2Z" transform="translate(236.163 428.336)" fill="none" stroke="#a8ff00" stroke-width="1" fill-rule="evenodd"/>
      <path id="Caminho_1283" data-name="Caminho 1283" d="M232.043,49.288l9.833-30.881c2.817-8.519,8.662-12.993,18.529-12.1l-4.541,16.385c-2.917,10.032,10.786,9,13.757-.2l4.808-16.186C278.693,6.121,282.568,4.563,286.5,0c0,0-6.288,21.95-8.817,29.125-3.211,9.1-9.347,11.81-16.274,12.1H246.792q-9.827.066-13.611,8.2Z" transform="translate(247.045 391.662)" fill="none" stroke="#a8ff00" stroke-width="1" fill-rule="evenodd"/>
      <path id="Caminho_1284" data-name="Caminho 1284" d="M232.043,49.288l9.833-30.881c2.817-8.519,8.662-12.993,18.529-12.1l-4.541,16.385c-2.917,10.032,10.786,9,13.757-.2l4.808-16.186C278.693,6.121,282.568,4.563,286.5,0c0,0-6.288,21.95-8.817,29.125-3.211,9.1-9.347,11.81-16.274,12.1H246.792q-9.827.066-13.611,8.2Z" transform="translate(-165.047 0)" fill="none" stroke="#a8ff00" stroke-width="1" fill-rule="evenodd"/>
      <path id="Caminho_1285" data-name="Caminho 1285" d="M232.043,49.288l9.833-30.881c2.817-8.519,8.662-12.993,18.529-12.1l-4.541,16.385c-2.917,10.032,10.786,9,13.757-.2l4.808-16.186C278.693,6.121,282.568,4.563,286.5,0c0,0-6.288,21.95-8.817,29.125-3.211,9.1-9.347,11.81-16.274,12.1H246.792q-9.827.066-13.611,8.2Z" transform="translate(279.246 423.268)" fill="none" stroke="#a8ff00" stroke-width="1" fill-rule="evenodd"/>
    </g>
  </g>
</svg>
