<svg xmlns="http://www.w3.org/2000/svg" xmlns:xlink="http://www.w3.org/1999/xlink" width="554" height="460" viewBox="0 0 554 460">
  <defs>
    <clipPath id="clip-path">
      <rect id="Ret칙ngulo_2023" data-name="Ret칙ngulo 2023" width="554" height="460" transform="translate(-12911 -2539)" fill="#00652c"/>
    </clipPath>
  </defs>
  <g id="Grupo_de_m치scara_118" data-name="Grupo de m치scara 118" transform="translate(12911 2539)" clip-path="url(#clip-path)">
    <g id="Grupo_2660" data-name="Grupo 2660" transform="translate(-13030.182 -2610.424)">
      <path id="Caminho_1133" data-name="Caminho 1133" d="M232.043,58.346l11.64-36.556c3.335-10.084,10.254-15.381,21.934-14.321l-5.376,19.4c-3.453,11.876,12.768,10.648,16.285-.236l5.691-19.16C287.265,7.246,291.852,5.4,296.508,0c0,0-7.443,25.984-10.438,34.477-3.8,10.776-11.064,13.981-19.265,14.321H249.5q-11.633.078-16.113,9.7Z" transform="translate(-168.32 44.898)" fill="none" stroke="#00652c" stroke-width="1" fill-rule="evenodd"/>
      <path id="Caminho_1134" data-name="Caminho 1134" d="M232.043,58.346l11.64-36.556c3.335-10.084,10.254-15.381,21.934-14.321l-5.376,19.4c-3.453,11.876,12.768,10.648,16.285-.236l5.691-19.16C287.265,7.246,291.852,5.4,296.508,0c0,0-7.443,25.984-10.438,34.477-3.8,10.776-11.064,13.981-19.265,14.321H249.5q-11.633.078-16.113,9.7Z" transform="translate(-180.565 87.446)" fill="none" stroke="#00652c" stroke-width="1" fill-rule="evenodd"/>
      <path id="Caminho_1135" data-name="Caminho 1135" d="M232.043,58.346l11.64-36.556c3.335-10.084,10.254-15.381,21.934-14.321l-5.376,19.4c-3.453,11.876,12.768,10.648,16.285-.236l5.691-19.16C287.265,7.246,291.852,5.4,296.508,0c0,0-7.443,25.984-10.438,34.477-3.8,10.776-11.064,13.981-19.265,14.321H249.5q-11.633.078-16.113,9.7Z" transform="translate(-140.585 112.678)" fill="none" stroke="#00652c" stroke-width="1" fill-rule="evenodd"/>
      <path id="Caminho_1136" data-name="Caminho 1136" d="M232.043,58.346l11.64-36.556c3.335-10.084,10.254-15.381,21.934-14.321l-5.376,19.4c-3.453,11.876,12.768,10.648,16.285-.236l5.691-19.16C287.265,7.246,291.852,5.4,296.508,0c0,0-7.443,25.984-10.438,34.477-3.8,10.776-11.064,13.981-19.265,14.321H249.5q-11.633.078-16.113,9.7Z" transform="translate(-194.018 131.169)" fill="none" stroke="#00652c" stroke-width="1" fill-rule="evenodd"/>
      <path id="Caminho_1137" data-name="Caminho 1137" d="M232.043,58.346l11.64-36.556c3.335-10.084,10.254-15.381,21.934-14.321l-5.376,19.4c-3.453,11.876,12.768,10.648,16.285-.236l5.691-19.16C287.265,7.246,291.852,5.4,296.508,0c0,0-7.443,25.984-10.438,34.477-3.8,10.776-11.064,13.981-19.265,14.321H249.5q-11.633.078-16.113,9.7Z" transform="translate(-222.495 64.936)" fill="none" stroke="#00652c" stroke-width="1" fill-rule="evenodd"/>
      <path id="Caminho_1138" data-name="Caminho 1138" d="M232.043,58.346l11.64-36.556c3.335-10.084,10.254-15.381,21.934-14.321l-5.376,19.4c-3.453,11.876,12.768,10.648,16.285-.236l5.691-19.16C287.265,7.246,291.852,5.4,296.508,0c0,0-7.443,25.984-10.438,34.477-3.8,10.776-11.064,13.981-19.265,14.321H249.5q-11.633.078-16.113,9.7Z" transform="translate(-206.534 20.322)" fill="none" stroke="#00652c" stroke-width="1" fill-rule="evenodd"/>
      <path id="Caminho_1139" data-name="Caminho 1139" d="M232.043,58.346l11.64-36.556c3.335-10.084,10.254-15.381,21.934-14.321l-5.376,19.4c-3.453,11.876,12.768,10.648,16.285-.236l5.691-19.16C287.265,7.246,291.852,5.4,296.508,0c0,0-7.443,25.984-10.438,34.477-3.8,10.776-11.064,13.981-19.265,14.321H249.5q-11.633.078-16.113,9.7Z" transform="translate(-73.034 47.867)" fill="none" stroke="#00652c" stroke-width="1" fill-rule="evenodd"/>
      <path id="Caminho_1140" data-name="Caminho 1140" d="M232.043,58.346l11.64-36.556c3.335-10.084,10.254-15.381,21.934-14.321l-5.376,19.4c-3.453,11.876,12.768,10.648,16.285-.236l5.691-19.16C287.265,7.246,291.852,5.4,296.508,0c0,0-7.443,25.984-10.438,34.477-3.8,10.776-11.064,13.981-19.265,14.321H249.5q-11.633.078-16.113,9.7Z" transform="translate(-114.226 25.146)" fill="none" stroke="#00652c" stroke-width="1" fill-rule="evenodd"/>
      <path id="Caminho_1141" data-name="Caminho 1141" d="M232.043,58.346l11.64-36.556c3.335-10.084,10.254-15.381,21.934-14.321l-5.376,19.4c-3.453,11.876,12.768,10.648,16.285-.236l5.691-19.16C287.265,7.246,291.852,5.4,296.508,0c0,0-7.443,25.984-10.438,34.477-3.8,10.776-11.064,13.981-19.265,14.321H249.5q-11.633.078-16.113,9.7Z" transform="translate(-126.842 68.189)" fill="none" stroke="#00652c" stroke-width="1" fill-rule="evenodd"/>
      <path id="Caminho_1142" data-name="Caminho 1142" d="M232.043,58.346l11.64-36.556c3.335-10.084,10.254-15.381,21.934-14.321l-5.376,19.4c-3.453,11.876,12.768,10.648,16.285-.236l5.691-19.16C287.265,7.246,291.852,5.4,296.508,0c0,0-7.443,25.984-10.438,34.477-3.8,10.776-11.064,13.981-19.265,14.321H249.5q-11.633.078-16.113,9.7Z" transform="translate(-33.708 74.15)" fill="none" stroke="#00652c" stroke-width="1" fill-rule="evenodd"/>
      <path id="Caminho_1143" data-name="Caminho 1143" d="M232.043,58.346l11.64-36.556c3.335-10.084,10.254-15.381,21.934-14.321l-5.376,19.4c-3.453,11.876,12.768,10.648,16.285-.236l5.691-19.16C287.265,7.246,291.852,5.4,296.508,0c0,0-7.443,25.984-10.438,34.477-3.8,10.776-11.064,13.981-19.265,14.321H249.5q-11.633.078-16.113,9.7Z" transform="translate(-18.866 28.738)" fill="none" stroke="#00652c" stroke-width="1" fill-rule="evenodd"/>
      <path id="Caminho_1148" data-name="Caminho 1148" d="M232.043,58.346l11.64-36.556c3.335-10.084,10.254-15.381,21.934-14.321l-5.376,19.4c-3.453,11.876,12.768,10.648,16.285-.236l5.691-19.16C287.265,7.246,291.852,5.4,296.508,0c0,0-7.443,25.984-10.438,34.477-3.8,10.776-11.064,13.981-19.265,14.321H249.5q-11.633.078-16.113,9.7Z" transform="translate(-86.768 92.332)" fill="none" stroke="#00652c" stroke-width="1" fill-rule="evenodd"/>
      <path id="Caminho_1149" data-name="Caminho 1149" d="M232.043,58.346l11.64-36.556c3.335-10.084,10.254-15.381,21.934-14.321l-5.376,19.4c-3.453,11.876,12.768,10.648,16.285-.236l5.691-19.16C287.265,7.246,291.852,5.4,296.508,0c0,0-7.443,25.984-10.438,34.477-3.8,10.776-11.064,13.981-19.265,14.321H249.5q-11.633.078-16.113,9.7Z" transform="translate(-60.051 5.257)" fill="none" stroke="#00652c" stroke-width="1" fill-rule="evenodd"/>
      <path id="Caminho_1168" data-name="Caminho 1168" d="M232.043,58.346l11.64-36.556c3.335-10.084,10.254-15.381,21.934-14.321l-5.376,19.4c-3.453,11.876,12.768,10.648,16.285-.236l5.691-19.16C287.265,7.246,291.852,5.4,296.508,0c0,0-7.443,25.984-10.438,34.477-3.8,10.776-11.064,13.981-19.265,14.321H249.5q-11.633.078-16.113,9.7Z" transform="translate(-18.123 182.788)" fill="none" stroke="#00652c" stroke-width="1" fill-rule="evenodd"/>
      <path id="Caminho_1169" data-name="Caminho 1169" d="M232.043,58.346l11.64-36.556c3.335-10.084,10.254-15.381,21.934-14.321l-5.376,19.4c-3.453,11.876,12.768,10.648,16.285-.236l5.691-19.16C287.265,7.246,291.852,5.4,296.508,0c0,0-7.443,25.984-10.438,34.477-3.8,10.776-11.064,13.981-19.265,14.321H249.5q-11.633.078-16.113,9.7Z" transform="translate(76.499 187.445)" fill="none" stroke="#00652c" stroke-width="1" fill-rule="evenodd"/>
      <path id="Caminho_1170" data-name="Caminho 1170" d="M232.043,58.346l11.64-36.556c3.335-10.084,10.254-15.381,21.934-14.321l-5.376,19.4c-3.453,11.876,12.768,10.648,16.285-.236l5.691-19.16C287.265,7.246,291.852,5.4,296.508,0c0,0-7.443,25.984-10.438,34.477-3.8,10.776-11.064,13.981-19.265,14.321H249.5q-11.633.078-16.113,9.7Z" transform="translate(22.776 206.307)" fill="none" stroke="#00652c" stroke-width="1" fill-rule="evenodd"/>
      <path id="Caminho_1171" data-name="Caminho 1171" d="M232.043,58.346l11.64-36.556c3.335-10.084,10.254-15.381,21.934-14.321l-5.376,19.4c-3.453,11.876,12.768,10.648,16.285-.236l5.691-19.16C287.265,7.246,291.852,5.4,296.508,0c0,0-7.443,25.984-10.438,34.477-3.8,10.776-11.064,13.981-19.265,14.321H249.5q-11.633.078-16.113,9.7Z" transform="translate(-31.111 225.973)" fill="none" stroke="#00652c" stroke-width="1" fill-rule="evenodd"/>
      <path id="Caminho_1172" data-name="Caminho 1172" d="M232.043,58.346l11.64-36.556c3.335-10.084,10.254-15.381,21.934-14.321l-5.376,19.4c-3.453,11.876,12.768,10.648,16.285-.236l5.691-19.16C287.265,7.246,291.852,5.4,296.508,0c0,0-7.443,25.984-10.438,34.477-3.8,10.776-11.064,13.981-19.265,14.321H249.5q-11.633.078-16.113,9.7Z" transform="translate(-84.913 245.577)" fill="none" stroke="#00652c" stroke-width="1" fill-rule="evenodd"/>
      <path id="Caminho_1173" data-name="Caminho 1173" d="M232.043,58.346l11.64-36.556c3.335-10.084,10.254-15.381,21.934-14.321l-5.376,19.4c-3.453,11.876,12.768,10.648,16.285-.236l5.691-19.16C287.265,7.246,291.852,5.4,296.508,0c0,0-7.443,25.984-10.438,34.477-3.8,10.776-11.064,13.981-19.265,14.321H249.5q-11.633.078-16.113,9.7Z" transform="translate(-138.359 264.068)" fill="none" stroke="#00652c" stroke-width="1" fill-rule="evenodd"/>
      <path id="Caminho_1174" data-name="Caminho 1174" d="M232.043,58.346l11.64-36.556c3.335-10.084,10.254-15.381,21.934-14.321l-5.376,19.4c-3.453,11.876,12.768,10.648,16.285-.236l5.691-19.16C287.265,7.246,291.852,5.4,296.508,0c0,0-7.443,25.984-10.438,34.477-3.8,10.776-11.064,13.981-19.265,14.321H249.5q-11.633.078-16.113,9.7Z" transform="translate(-192.162 283.734)" fill="none" stroke="#00652c" stroke-width="1" fill-rule="evenodd"/>
      <path id="Caminho_1179" data-name="Caminho 1179" d="M232.043,58.346l11.64-36.556c3.335-10.084,10.254-15.381,21.934-14.321l-5.376,19.4c-3.453,11.876,12.768,10.648,16.285-.236l5.691-19.16C287.265,7.246,291.852,5.4,296.508,0c0,0-7.443,25.984-10.438,34.477-3.8,10.776-11.064,13.981-19.265,14.321H249.5q-11.633.078-16.113,9.7Z" transform="translate(63.512 230.364)" fill="none" stroke="#00652c" stroke-width="1" fill-rule="evenodd"/>
      <path id="Caminho_1180" data-name="Caminho 1180" d="M232.043,58.346l11.64-36.556c3.335-10.084,10.254-15.381,21.934-14.321l-5.376,19.4c-3.453,11.876,12.768,10.648,16.285-.236l5.691-19.16C287.265,7.246,291.852,5.4,296.508,0c0,0-7.443,25.984-10.438,34.477-3.8,10.776-11.064,13.981-19.265,14.321H249.5q-11.633.078-16.113,9.7Z" transform="translate(10.079 248.917)" fill="none" stroke="#00652c" stroke-width="1" fill-rule="evenodd"/>
      <path id="Caminho_1181" data-name="Caminho 1181" d="M232.043,58.346l11.64-36.556c3.335-10.084,10.254-15.381,21.934-14.321l-5.376,19.4c-3.453,11.876,12.768,10.648,16.285-.236l5.691-19.16C287.265,7.246,291.852,5.4,296.508,0c0,0-7.443,25.984-10.438,34.477-3.8,10.776-11.064,13.981-19.265,14.321H249.5q-11.633.078-16.113,9.7Z" transform="translate(-2.184 291.093)" fill="none" stroke="#00652c" stroke-width="1" fill-rule="evenodd"/>
      <path id="Caminho_1182" data-name="Caminho 1182" d="M232.043,58.346l11.64-36.556c3.335-10.084,10.254-15.381,21.934-14.321l-5.376,19.4c-3.453,11.876,12.768,10.648,16.285-.236l5.691-19.16C287.265,7.246,291.852,5.4,296.508,0c0,0-7.443,25.984-10.438,34.477-3.8,10.776-11.064,13.981-19.265,14.321H249.5q-11.633.078-16.113,9.7Z" transform="translate(-56.242 311.13)" fill="none" stroke="#00652c" stroke-width="1" fill-rule="evenodd"/>
      <path id="Caminho_1183" data-name="Caminho 1183" d="M232.043,58.346l11.64-36.556c3.335-10.084,10.254-15.381,21.934-14.321l-5.376,19.4c-3.453,11.876,12.768,10.648,16.285-.236l5.691-19.16C287.265,7.246,291.852,5.4,296.508,0c0,0-7.443,25.984-10.438,34.477-3.8,10.776-11.064,13.981-19.265,14.321H249.5q-11.633.078-16.113,9.7Z" transform="translate(-109.774 330.363)" fill="none" stroke="#00652c" stroke-width="1" fill-rule="evenodd"/>
      <path id="Caminho_1184" data-name="Caminho 1184" d="M232.043,58.346l11.64-36.556c3.335-10.084,10.254-15.381,21.934-14.321l-5.376,19.4c-3.453,11.876,12.768,10.648,16.285-.236l5.691-19.16C287.265,7.246,291.852,5.4,296.508,0c0,0-7.443,25.984-10.438,34.477-3.8,10.776-11.064,13.981-19.265,14.321H249.5q-11.633.078-16.113,9.7Z" transform="translate(-163.381 349.596)" fill="none" stroke="#00652c" stroke-width="1" fill-rule="evenodd"/>
      <path id="Caminho_1185" data-name="Caminho 1185" d="M232.043,58.346l11.64-36.556c3.335-10.084,10.254-15.381,21.934-14.321l-5.376,19.4c-3.453,11.876,12.768,10.648,16.285-.236l5.691-19.16C287.265,7.246,291.852,5.4,296.508,0c0,0-7.443,25.984-10.438,34.477-3.8,10.776-11.064,13.981-19.265,14.321H249.5q-11.633.078-16.113,9.7Z" transform="translate(-216.813 368.087)" fill="none" stroke="#00652c" stroke-width="1" fill-rule="evenodd"/>
      <path id="Caminho_1186" data-name="Caminho 1186" d="M232.043,58.346l11.64-36.556c3.335-10.084,10.254-15.381,21.934-14.321l-5.376,19.4c-3.453,11.876,12.768,10.648,16.285-.236l5.691-19.16C287.265,7.246,291.852,5.4,296.508,0c0,0-7.443,25.984-10.438,34.477-3.8,10.776-11.064,13.981-19.265,14.321H249.5q-11.633.078-16.113,9.7Z" transform="translate(38.008 317.005)" fill="none" stroke="#00652c" stroke-width="1" fill-rule="evenodd"/>
      <path id="Caminho_1187" data-name="Caminho 1187" d="M232.043,58.346l11.64-36.556c3.335-10.084,10.254-15.381,21.934-14.321l-5.376,19.4c-3.453,11.876,12.768,10.648,16.285-.236l5.691-19.16C287.265,7.246,291.852,5.4,296.508,0c0,0-7.443,25.984-10.438,34.477-3.8,10.776-11.064,13.981-19.265,14.321H249.5q-11.633.078-16.113,9.7Z" transform="translate(-15.425 334.445)" fill="none" stroke="#00652c" stroke-width="1" fill-rule="evenodd"/>
      <path id="Caminho_1188" data-name="Caminho 1188" d="M232.043,58.346l11.64-36.556c3.335-10.084,10.254-15.381,21.934-14.321l-5.376,19.4c-3.453,11.876,12.768,10.648,16.285-.236l5.691-19.16C287.265,7.246,291.852,5.4,296.508,0c0,0-7.443,25.984-10.438,34.477-3.8,10.776-11.064,13.981-19.265,14.321H249.5q-11.633.078-16.113,9.7Z" transform="translate(-68.952 353.678)" fill="none" stroke="#00652c" stroke-width="1" fill-rule="evenodd"/>
      <path id="Caminho_1189" data-name="Caminho 1189" d="M232.043,58.346l11.64-36.556c3.335-10.084,10.254-15.381,21.934-14.321l-5.376,19.4c-3.453,11.876,12.768,10.648,16.285-.236l5.691-19.16C287.265,7.246,291.852,5.4,296.508,0c0,0-7.443,25.984-10.438,34.477-3.8,10.776-11.064,13.981-19.265,14.321H249.5q-11.633.078-16.113,9.7Z" transform="translate(-122.661 372.973)" fill="none" stroke="#00652c" stroke-width="1" fill-rule="evenodd"/>
      <path id="Caminho_1190" data-name="Caminho 1190" d="M232.043,58.346l11.64-36.556c3.335-10.084,10.254-15.381,21.934-14.321l-5.376,19.4c-3.453,11.876,12.768,10.648,16.285-.236l5.691-19.16C287.265,7.246,291.852,5.4,296.508,0c0,0-7.443,25.984-10.438,34.477-3.8,10.776-11.064,13.981-19.265,14.321H249.5q-11.633.078-16.113,9.7Z" transform="translate(-176.465 392.206)" fill="none" stroke="#00652c" stroke-width="1" fill-rule="evenodd"/>
      <path id="Caminho_1191" data-name="Caminho 1191" d="M232.043,58.346l11.64-36.556c3.335-10.084,10.254-15.381,21.934-14.321l-5.376,19.4c-3.453,11.876,12.768,10.648,16.285-.236l5.691-19.16C287.265,7.246,291.852,5.4,296.508,0c0,0-7.443,25.984-10.438,34.477-3.8,10.776-11.064,13.981-19.265,14.321H249.5q-11.633.078-16.113,9.7Z" transform="translate(-229.817 410.759)" fill="none" stroke="#00652c" stroke-width="1" fill-rule="evenodd"/>
      <path id="Caminho_1192" data-name="Caminho 1192" d="M232.043,58.346l11.64-36.556c3.335-10.084,10.254-15.381,21.934-14.321l-5.376,19.4c-3.453,11.876,12.768,10.648,16.285-.236l5.691-19.16C287.265,7.246,291.852,5.4,296.508,0c0,0-7.443,25.984-10.438,34.477-3.8,10.776-11.064,13.981-19.265,14.321H249.5q-11.633.078-16.113,9.7Z" transform="translate(228.584 325.54)" fill="none" stroke="#00652c" stroke-width="1" fill-rule="evenodd"/>
      <path id="Caminho_1193" data-name="Caminho 1193" d="M232.043,58.346l11.64-36.556c3.335-10.084,10.254-15.381,21.934-14.321l-5.376,19.4c-3.453,11.876,12.768,10.648,16.285-.236l5.691-19.16C287.265,7.246,291.852,5.4,296.508,0c0,0-7.443,25.984-10.438,34.477-3.8,10.776-11.064,13.981-19.265,14.321H249.5q-11.633.078-16.113,9.7Z" transform="translate(175.404 341.866)" fill="none" stroke="#00652c" stroke-width="1" fill-rule="evenodd"/>
      <path id="Caminho_1194" data-name="Caminho 1194" d="M232.043,58.346l11.64-36.556c3.335-10.084,10.254-15.381,21.934-14.321l-5.376,19.4c-3.453,11.876,12.768,10.648,16.285-.236l5.691-19.16C287.265,7.246,291.852,5.4,296.508,0c0,0-7.443,25.984-10.438,34.477-3.8,10.776-11.064,13.981-19.265,14.321H249.5q-11.633.078-16.113,9.7Z" transform="translate(121.445 362.212)" fill="none" stroke="#00652c" stroke-width="1" fill-rule="evenodd"/>
      <path id="Caminho_1195" data-name="Caminho 1195" d="M232.043,58.346l11.64-36.556c3.335-10.084,10.254-15.381,21.934-14.321l-5.376,19.4c-3.453,11.876,12.768,10.648,16.285-.236l5.691-19.16C287.265,7.246,291.852,5.4,296.508,0c0,0-7.443,25.984-10.438,34.477-3.8,10.776-11.064,13.981-19.265,14.321H249.5q-11.633.078-16.113,9.7Z" transform="translate(163.747 384.043)" fill="none" stroke="#00652c" stroke-width="1" fill-rule="evenodd"/>
      <path id="Caminho_1198" data-name="Caminho 1198" d="M232.043,58.346l11.64-36.556c3.335-10.084,10.254-15.381,21.934-14.321l-5.376,19.4c-3.453,11.876,12.768,10.648,16.285-.236l5.691-19.16C287.265,7.246,291.852,5.4,296.508,0c0,0-7.443,25.984-10.438,34.477-3.8,10.776-11.064,13.981-19.265,14.321H249.5q-11.633.078-16.113,9.7Z" transform="translate(259.529 384.043)" fill="none" stroke="#00652c" stroke-width="1" fill-rule="evenodd"/>
      <path id="Caminho_1199" data-name="Caminho 1199" d="M232.043,58.346l11.64-36.556c3.335-10.084,10.254-15.381,21.934-14.321l-5.376,19.4c-3.453,11.876,12.768,10.648,16.285-.236l5.691-19.16C287.265,7.246,291.852,5.4,296.508,0c0,0-7.443,25.984-10.438,34.477-3.8,10.776-11.064,13.981-19.265,14.321H249.5q-11.633.078-16.113,9.7Z" transform="translate(203.499 410.697)" fill="none" stroke="#00652c" stroke-width="1" fill-rule="evenodd"/>
      <path id="Caminho_1200" data-name="Caminho 1200" d="M232.043,58.346l11.64-36.556c3.335-10.084,10.254-15.381,21.934-14.321l-5.376,19.4c-3.453,11.876,12.768,10.648,16.285-.236l5.691-19.16C287.265,7.246,291.852,5.4,296.508,0c0,0-7.443,25.984-10.438,34.477-3.8,10.776-11.064,13.981-19.265,14.321H249.5q-11.633.078-16.113,9.7Z" transform="translate(191.996 452.626)" fill="none" stroke="#00652c" stroke-width="1" fill-rule="evenodd"/>
      <path id="Caminho_1201" data-name="Caminho 1201" d="M232.043,58.346l11.64-36.556c3.335-10.084,10.254-15.381,21.934-14.321l-5.376,19.4c-3.453,11.876,12.768,10.648,16.285-.236l5.691-19.16C287.265,7.246,291.852,5.4,296.508,0c0,0-7.443,25.984-10.438,34.477-3.8,10.776-11.064,13.981-19.265,14.321H249.5q-11.633.078-16.113,9.7Z" transform="translate(138.662 469.2)" fill="none" stroke="#00652c" stroke-width="1" fill-rule="evenodd"/>
      <path id="Caminho_1202" data-name="Caminho 1202" d="M232.043,58.346l11.64-36.556c3.335-10.084,10.254-15.381,21.934-14.321l-5.376,19.4c-3.453,11.876,12.768,10.648,16.285-.236l5.691-19.16C287.265,7.246,291.852,5.4,296.508,0c0,0-7.443,25.984-10.438,34.477-3.8,10.776-11.064,13.981-19.265,14.321H249.5q-11.633.078-16.113,9.7Z" transform="translate(84.488 489.917)" fill="none" stroke="#00652c" stroke-width="1" fill-rule="evenodd"/>
      <path id="Caminho_1203" data-name="Caminho 1203" d="M232.043,58.346l11.64-36.556c3.335-10.084,10.254-15.381,21.934-14.321l-5.376,19.4c-3.453,11.876,12.768,10.648,16.285-.236l5.691-19.16C287.265,7.246,291.852,5.4,296.508,0c0,0-7.443,25.984-10.438,34.477-3.8,10.776-11.064,13.981-19.265,14.321H249.5q-11.633.078-16.113,9.7Z" transform="translate(30.791 509.274)" fill="none" stroke="#00652c" stroke-width="1" fill-rule="evenodd"/>
      <path id="Caminho_1204" data-name="Caminho 1204" d="M232.043,58.346l11.64-36.556c3.335-10.084,10.254-15.381,21.934-14.321l-5.376,19.4c-3.453,11.876,12.768,10.648,16.285-.236l5.691-19.16C287.265,7.246,291.852,5.4,296.508,0c0,0-7.443,25.984-10.438,34.477-3.8,10.776-11.064,13.981-19.265,14.321H249.5q-11.633.078-16.113,9.7Z" transform="translate(72.342 532.218)" fill="none" stroke="#00652c" stroke-width="1" fill-rule="evenodd"/>
      <path id="Caminho_1205" data-name="Caminho 1205" d="M232.043,58.346l11.64-36.556c3.335-10.084,10.254-15.381,21.934-14.321l-5.376,19.4c-3.453,11.876,12.768,10.648,16.285-.236l5.691-19.16C287.265,7.246,291.852,5.4,296.508,0c0,0-7.443,25.984-10.438,34.477-3.8,10.776-11.064,13.981-19.265,14.321H249.5q-11.633.078-16.113,9.7Z" transform="translate(126.417 512.243)" fill="none" stroke="#00652c" stroke-width="1" fill-rule="evenodd"/>
      <path id="Caminho_1206" data-name="Caminho 1206" d="M232.043,58.346l11.64-36.556c3.335-10.084,10.254-15.381,21.934-14.321l-5.376,19.4c-3.453,11.876,12.768,10.648,16.285-.236l5.691-19.16C287.265,7.246,291.852,5.4,296.508,0c0,0-7.443,25.984-10.438,34.477-3.8,10.776-11.064,13.981-19.265,14.321H249.5q-11.633.078-16.113,9.7Z" transform="translate(179.85 494.803)" fill="none" stroke="#00652c" stroke-width="1" fill-rule="evenodd"/>
      <path id="Caminho_1207" data-name="Caminho 1207" d="M232.043,58.346l11.64-36.556c3.335-10.084,10.254-15.381,21.934-14.321l-5.376,19.4c-3.453,11.876,12.768,10.648,16.285-.236l5.691-19.16C287.265,7.246,291.852,5.4,296.508,0c0,0-7.443,25.984-10.438,34.477-3.8,10.776-11.064,13.981-19.265,14.321H249.5q-11.633.078-16.113,9.7Z" transform="translate(167.557 537.413)" fill="none" stroke="#00652c" stroke-width="1" fill-rule="evenodd"/>
      <path id="Caminho_1208" data-name="Caminho 1208" d="M232.043,58.346l11.64-36.556c3.335-10.084,10.254-15.381,21.934-14.321l-5.376,19.4c-3.453,11.876,12.768,10.648,16.285-.236l5.691-19.16C287.265,7.246,291.852,5.4,296.508,0c0,0-7.443,25.984-10.438,34.477-3.8,10.776-11.064,13.981-19.265,14.321H249.5q-11.633.078-16.113,9.7Z" transform="translate(18.538 551.822)" fill="none" stroke="#00652c" stroke-width="1" fill-rule="evenodd"/>
      <path id="Caminho_1209" data-name="Caminho 1209" d="M232.043,58.346l11.64-36.556c3.335-10.084,10.254-15.381,21.934-14.321l-5.376,19.4c-3.453,11.876,12.768,10.648,16.285-.236l5.691-19.16C287.265,7.246,291.852,5.4,296.508,0c0,0-7.443,25.984-10.438,34.477-3.8,10.776-11.064,13.981-19.265,14.321H249.5q-11.633.078-16.113,9.7Z" transform="translate(96.633 447.369)" fill="none" stroke="#00652c" stroke-width="1" fill-rule="evenodd"/>
      <path id="Caminho_1210" data-name="Caminho 1210" d="M232.043,58.346l11.64-36.556c3.335-10.084,10.254-15.381,21.934-14.321l-5.376,19.4c-3.453,11.876,12.768,10.648,16.285-.236l5.691-19.16C287.265,7.246,291.852,5.4,296.508,0c0,0-7.443,25.984-10.438,34.477-3.8,10.776-11.064,13.981-19.265,14.321H249.5q-11.633.078-16.113,9.7Z" transform="translate(43.201 466.665)" fill="none" stroke="#00652c" stroke-width="1" fill-rule="evenodd"/>
      <path id="Caminho_1211" data-name="Caminho 1211" d="M232.043,58.346l11.64-36.556c3.335-10.084,10.254-15.381,21.934-14.321l-5.376,19.4c-3.453,11.876,12.768,10.648,16.285-.236l5.691-19.16C287.265,7.246,291.852,5.4,296.508,0c0,0-7.443,25.984-10.438,34.477-3.8,10.776-11.064,13.981-19.265,14.321H249.5q-11.633.078-16.113,9.7Z" transform="translate(-10.603 486.268)" fill="none" stroke="#00652c" stroke-width="1" fill-rule="evenodd"/>
      <path id="Caminho_1212" data-name="Caminho 1212" d="M232.043,58.346l11.64-36.556c3.335-10.084,10.254-15.381,21.934-14.321l-5.376,19.4c-3.453,11.876,12.768,10.648,16.285-.236l5.691-19.16C287.265,7.246,291.852,5.4,296.508,0c0,0-7.443,25.984-10.438,34.477-3.8,10.776-11.064,13.981-19.265,14.321H249.5q-11.633.078-16.113,9.7Z" transform="translate(-22.749 528.816)" fill="none" stroke="#00652c" stroke-width="1" fill-rule="evenodd"/>
      <path id="Caminho_1213" data-name="Caminho 1213" d="M232.043,58.346l11.64-36.556c3.335-10.084,10.254-15.381,21.934-14.321l-5.376,19.4c-3.453,11.876,12.768,10.648,16.285-.236l5.691-19.16C287.265,7.246,291.852,5.4,296.508,0c0,0-7.443,25.984-10.438,34.477-3.8,10.776-11.064,13.981-19.265,14.321H249.5q-11.633.078-16.113,9.7Z" transform="translate(-75.81 545.514)" fill="none" stroke="#00652c" stroke-width="1" fill-rule="evenodd"/>
      <path id="Caminho_1214" data-name="Caminho 1214" d="M232.043,58.346l11.64-36.556c3.335-10.084,10.254-15.381,21.934-14.321l-5.376,19.4c-3.453,11.876,12.768,10.648,16.285-.236l5.691-19.16C287.265,7.246,291.852,5.4,296.508,0c0,0-7.443,25.984-10.438,34.477-3.8,10.776-11.064,13.981-19.265,14.321H249.5q-11.633.078-16.113,9.7Z" transform="translate(247.933 426.281)" fill="none" stroke="#00652c" stroke-width="1" fill-rule="evenodd"/>
      <path id="Caminho_1215" data-name="Caminho 1215" d="M232.043,58.346l11.64-36.556c3.335-10.084,10.254-15.381,21.934-14.321l-5.376,19.4c-3.453,11.876,12.768,10.648,16.285-.236l5.691-19.16C287.265,7.246,291.852,5.4,296.508,0c0,0-7.443,25.984-10.438,34.477-3.8,10.776-11.064,13.981-19.265,14.321H249.5q-11.633.078-16.113,9.7Z" transform="translate(150.715 427.023)" fill="none" stroke="#00652c" stroke-width="1" fill-rule="evenodd"/>
      <path id="Caminho_1216" data-name="Caminho 1216" d="M232.043,58.346l11.64-36.556c3.335-10.084,10.254-15.381,21.934-14.321l-5.376,19.4c-3.453,11.876,12.768,10.648,16.285-.236l5.691-19.16C287.265,7.246,291.852,5.4,296.508,0c0,0-7.443,25.984-10.438,34.477-3.8,10.776-11.064,13.981-19.265,14.321H249.5q-11.633.078-16.113,9.7Z" transform="translate(300.624 410.326)" fill="none" stroke="#00652c" stroke-width="1" fill-rule="evenodd"/>
      <path id="Caminho_1217" data-name="Caminho 1217" d="M232.043,58.346l11.64-36.556c3.335-10.084,10.254-15.381,21.934-14.321l-5.376,19.4c-3.453,11.876,12.768,10.648,16.285-.236l5.691-19.16C287.265,7.246,291.852,5.4,296.508,0c0,0-7.443,25.984-10.438,34.477-3.8,10.776-11.064,13.981-19.265,14.321H249.5q-11.633.078-16.113,9.7Z" transform="translate(216.072 368.149)" fill="none" stroke="#00652c" stroke-width="1" fill-rule="evenodd"/>
      <path id="Caminho_1219" data-name="Caminho 1219" d="M232.043,58.346l11.64-36.556c3.335-10.084,10.254-15.381,21.934-14.321l-5.376,19.4c-3.453,11.876,12.768,10.648,16.285-.236l5.691-19.16C287.265,7.246,291.852,5.4,296.508,0c0,0-7.443,25.984-10.438,34.477-3.8,10.776-11.064,13.981-19.265,14.321H249.5q-11.633.078-16.113,9.7Z" transform="translate(146.438 276.684)" fill="none" stroke="#00652c" stroke-width="1" fill-rule="evenodd"/>
      <path id="Caminho_1221" data-name="Caminho 1221" d="M232.043,58.346l11.64-36.556c3.335-10.084,10.254-15.381,21.934-14.321l-5.376,19.4c-3.453,11.876,12.768,10.648,16.285-.236l5.691-19.16C287.265,7.246,291.852,5.4,296.508,0c0,0-7.443,25.984-10.438,34.477-3.8,10.776-11.064,13.981-19.265,14.321H249.5q-11.633.078-16.113,9.7Z" transform="translate(-43.824 268.892)" fill="none" stroke="#00652c" stroke-width="1" fill-rule="evenodd"/>
      <path id="Caminho_1222" data-name="Caminho 1222" d="M232.043,58.346l11.64-36.556c3.335-10.084,10.254-15.381,21.934-14.321l-5.376,19.4c-3.453,11.876,12.768,10.648,16.285-.236l5.691-19.16C287.265,7.246,291.852,5.4,296.508,0c0,0-7.443,25.984-10.438,34.477-3.8,10.776-11.064,13.981-19.265,14.321H249.5q-11.633.078-16.113,9.7Z" transform="translate(104.797 254.112)" fill="none" stroke="#00652c" stroke-width="1" fill-rule="evenodd"/>
      <path id="Caminho_1223" data-name="Caminho 1223" d="M232.043,58.346l11.64-36.556c3.335-10.084,10.254-15.381,21.934-14.321l-5.376,19.4c-3.453,11.876,12.768,10.648,16.285-.236l5.691-19.16C287.265,7.246,291.852,5.4,296.508,0c0,0-7.443,25.984-10.438,34.477-3.8,10.776-11.064,13.981-19.265,14.321H249.5q-11.633.078-16.113,9.7Z" transform="translate(92.181 297.03)" fill="none" stroke="#00652c" stroke-width="1" fill-rule="evenodd"/>
      <path id="Caminho_1229" data-name="Caminho 1229" d="M232.043,58.346l11.64-36.556c3.335-10.084,10.254-15.381,21.934-14.321l-5.376,19.4c-3.453,11.876,12.768,10.648,16.285-.236l5.691-19.16C287.265,7.246,291.852,5.4,296.508,0c0,0-7.443,25.984-10.438,34.477-3.8,10.776-11.064,13.981-19.265,14.321H249.5q-11.633.078-16.113,9.7Z" transform="translate(133.37 319.974)" fill="none" stroke="#00652c" stroke-width="1" fill-rule="evenodd"/>
      <path id="Caminho_1230" data-name="Caminho 1230" d="M232.043,58.346l11.64-36.556c3.335-10.084,10.254-15.381,21.934-14.321l-5.376,19.4c-3.453,11.876,12.768,10.648,16.285-.236l5.691-19.16C287.265,7.246,291.852,5.4,296.508,0c0,0-7.443,25.984-10.438,34.477-3.8,10.776-11.064,13.981-19.265,14.321H249.5q-11.633.078-16.113,9.7Z" transform="translate(79.467 339.64)" fill="none" stroke="#00652c" stroke-width="1" fill-rule="evenodd"/>
      <path id="Caminho_1231" data-name="Caminho 1231" d="M232.043,58.346l11.64-36.556c3.335-10.084,10.254-15.381,21.934-14.321l-5.376,19.4c-3.453,11.876,12.768,10.648,16.285-.236l5.691-19.16C287.265,7.246,291.852,5.4,296.508,0c0,0-7.443,25.984-10.438,34.477-3.8,10.776-11.064,13.981-19.265,14.321H249.5q-11.633.078-16.113,9.7Z" transform="translate(25.292 359.677)" fill="none" stroke="#00652c" stroke-width="1" fill-rule="evenodd"/>
      <path id="Caminho_1232" data-name="Caminho 1232" d="M232.043,58.346l11.64-36.556c3.335-10.084,10.254-15.381,21.934-14.321l-5.376,19.4c-3.453,11.876,12.768,10.648,16.285-.236l5.691-19.16C287.265,7.246,291.852,5.4,296.508,0c0,0-7.443,25.984-10.438,34.477-3.8,10.776-11.064,13.981-19.265,14.321H249.5q-11.633.078-16.113,9.7Z" transform="translate(67.421 381.816)" fill="none" stroke="#00652c" stroke-width="1" fill-rule="evenodd"/>
      <path id="Caminho_1233" data-name="Caminho 1233" d="M232.043,58.346l11.64-36.556c3.335-10.084,10.254-15.381,21.934-14.321l-5.376,19.4c-3.453,11.876,12.768,10.648,16.285-.236l5.691-19.16C287.265,7.246,291.852,5.4,296.508,0c0,0-7.443,25.984-10.438,34.477-3.8,10.776-11.064,13.981-19.265,14.321H249.5q-11.633.078-16.113,9.7Z" transform="translate(13.518 401.482)" fill="none" stroke="#00652c" stroke-width="1" fill-rule="evenodd"/>
      <path id="Caminho_1234" data-name="Caminho 1234" d="M232.043,58.346l11.64-36.556c3.335-10.084,10.254-15.381,21.934-14.321l-5.376,19.4c-3.453,11.876,12.768,10.648,16.285-.236l5.691-19.16C287.265,7.246,291.852,5.4,296.508,0c0,0-7.443,25.984-10.438,34.477-3.8,10.776-11.064,13.981-19.265,14.321H249.5q-11.633.078-16.113,9.7Z" transform="translate(-39.544 418.86)" fill="none" stroke="#00652c" stroke-width="1" fill-rule="evenodd"/>
      <path id="Caminho_1235" data-name="Caminho 1235" d="M232.043,58.346l11.64-36.556c3.335-10.084,10.254-15.381,21.934-14.321l-5.376,19.4c-3.453,11.876,12.768,10.648,16.285-.236l5.691-19.16C287.265,7.246,291.852,5.4,296.508,0c0,0-7.443,25.984-10.438,34.477-3.8,10.776-11.064,13.981-19.265,14.321H249.5q-11.633.078-16.113,9.7Z" transform="translate(-93.719 438.464)" fill="none" stroke="#00652c" stroke-width="1" fill-rule="evenodd"/>
      <path id="Caminho_1236" data-name="Caminho 1236" d="M232.043,58.346l11.64-36.556c3.335-10.084,10.254-15.381,21.934-14.321l-5.376,19.4c-3.453,11.876,12.768,10.648,16.285-.236l5.691-19.16C287.265,7.246,291.852,5.4,296.508,0c0,0-7.443,25.984-10.438,34.477-3.8,10.776-11.064,13.981-19.265,14.321H249.5q-11.633.078-16.113,9.7Z" transform="translate(-147.324 457.759)" fill="none" stroke="#00652c" stroke-width="1" fill-rule="evenodd"/>
      <path id="Caminho_1237" data-name="Caminho 1237" d="M232.043,58.346l11.64-36.556c3.335-10.084,10.254-15.381,21.934-14.321l-5.376,19.4c-3.453,11.876,12.768,10.648,16.285-.236l5.691-19.16C287.265,7.246,291.852,5.4,296.508,0c0,0-7.443,25.984-10.438,34.477-3.8,10.776-11.064,13.981-19.265,14.321H249.5q-11.633.078-16.113,9.7Z" transform="translate(109.821 404.018)" fill="none" stroke="#00652c" stroke-width="1" fill-rule="evenodd"/>
      <path id="Caminho_1238" data-name="Caminho 1238" d="M232.043,58.346l11.64-36.556c3.335-10.084,10.254-15.381,21.934-14.321l-5.376,19.4c-3.453,11.876,12.768,10.648,16.285-.236l5.691-19.16C287.265,7.246,291.852,5.4,296.508,0c0,0-7.443,25.984-10.438,34.477-3.8,10.776-11.064,13.981-19.265,14.321H249.5q-11.633.078-16.113,9.7Z" transform="translate(56.017 423.622)" fill="none" stroke="#00652c" stroke-width="1" fill-rule="evenodd"/>
      <path id="Caminho_1239" data-name="Caminho 1239" d="M232.043,58.346l11.64-36.556c3.335-10.084,10.254-15.381,21.934-14.321l-5.376,19.4c-3.453,11.876,12.768,10.648,16.285-.236l5.691-19.16C287.265,7.246,291.852,5.4,296.508,0c0,0-7.443,25.984-10.438,34.477-3.8,10.776-11.064,13.981-19.265,14.321H249.5q-11.633.078-16.113,9.7Z" transform="translate(2.213 443.288)" fill="none" stroke="#00652c" stroke-width="1" fill-rule="evenodd"/>
      <path id="Caminho_1240" data-name="Caminho 1240" d="M232.043,58.346l11.64-36.556c3.335-10.084,10.254-15.381,21.934-14.321l-5.376,19.4c-3.453,11.876,12.768,10.648,16.285-.236l5.691-19.16C287.265,7.246,291.852,5.4,296.508,0c0,0-7.443,25.984-10.438,34.477-3.8,10.776-11.064,13.981-19.265,14.321H249.5q-11.633.078-16.113,9.7Z" transform="translate(-51.319 461.036)" fill="none" stroke="#00652c" stroke-width="1" fill-rule="evenodd"/>
      <path id="Caminho_1241" data-name="Caminho 1241" d="M232.043,58.346l11.64-36.556c3.335-10.084,10.254-15.381,21.934-14.321l-5.376,19.4c-3.453,11.876,12.768,10.648,16.285-.236l5.691-19.16C287.265,7.246,291.852,5.4,296.508,0c0,0-7.443,25.984-10.438,34.477-3.8,10.776-11.064,13.981-19.265,14.321H249.5q-11.633.078-16.113,9.7Z" transform="translate(-63.365 502.966)" fill="none" stroke="#00652c" stroke-width="1" fill-rule="evenodd"/>
      <path id="Caminho_1242" data-name="Caminho 1242" d="M232.043,58.346l11.64-36.556c3.335-10.084,10.254-15.381,21.934-14.321l-5.376,19.4c-3.453,11.876,12.768,10.648,16.285-.236l5.691-19.16C287.265,7.246,291.852,5.4,296.508,0c0,0-7.443,25.984-10.438,34.477-3.8,10.776-11.064,13.981-19.265,14.321H249.5q-11.633.078-16.113,9.7Z" transform="translate(-105.122 480.269)" fill="none" stroke="#00652c" stroke-width="1" fill-rule="evenodd"/>
      <path id="Caminho_1243" data-name="Caminho 1243" d="M232.043,58.346l11.64-36.556c3.335-10.084,10.254-15.381,21.934-14.321l-5.376,19.4c-3.453,11.876,12.768,10.648,16.285-.236l5.691-19.16C287.265,7.246,291.852,5.4,296.508,0c0,0-7.443,25.984-10.438,34.477-3.8,10.776-11.064,13.981-19.265,14.321H249.5q-11.633.078-16.113,9.7Z" transform="translate(-116.996 522.199)" fill="none" stroke="#00652c" stroke-width="1" fill-rule="evenodd"/>
      <path id="Caminho_1244" data-name="Caminho 1244" d="M232.043,58.346l11.64-36.556c3.335-10.084,10.254-15.381,21.934-14.321l-5.376,19.4c-3.453,11.876,12.768,10.648,16.285-.236l5.691-19.16C287.265,7.246,291.852,5.4,296.508,0c0,0-7.443,25.984-10.438,34.477-3.8,10.776-11.064,13.981-19.265,14.321H249.5q-11.633.078-16.113,9.7Z" transform="translate(-171.072 542.236)" fill="none" stroke="#00652c" stroke-width="1" fill-rule="evenodd"/>
      <path id="Caminho_1245" data-name="Caminho 1245" d="M232.043,58.346l11.64-36.556c3.335-10.084,10.254-15.381,21.934-14.321l-5.376,19.4c-3.453,11.876,12.768,10.648,16.285-.236l5.691-19.16C287.265,7.246,291.852,5.4,296.508,0c0,0-7.443,25.984-10.438,34.477-3.8,10.776-11.064,13.981-19.265,14.321H249.5q-11.633.078-16.113,9.7Z" transform="translate(-158.926 499.935)" fill="none" stroke="#00652c" stroke-width="1" fill-rule="evenodd"/>
      <path id="Caminho_1246" data-name="Caminho 1246" d="M232.043,58.346l11.64-36.556c3.335-10.084,10.254-15.381,21.934-14.321l-5.376,19.4c-3.453,11.876,12.768,10.648,16.285-.236l5.691-19.16C287.265,7.246,291.852,5.4,296.508,0c0,0-7.443,25.984-10.438,34.477-3.8,10.776-11.064,13.981-19.265,14.321H249.5q-11.633.078-16.113,9.7Z" transform="translate(-212.16 518.426)" fill="none" stroke="#00652c" stroke-width="1" fill-rule="evenodd"/>
      <path id="Caminho_1247" data-name="Caminho 1247" d="M232.043,58.346l11.64-36.556c3.335-10.084,10.254-15.381,21.934-14.321l-5.376,19.4c-3.453,11.876,12.768,10.648,16.285-.236l5.691-19.16C287.265,7.246,291.852,5.4,296.508,0c0,0-7.443,25.984-10.438,34.477-3.8,10.776-11.064,13.981-19.265,14.321H249.5q-11.633.078-16.113,9.7Z" transform="translate(-200.597 476.25)" fill="none" stroke="#00652c" stroke-width="1" fill-rule="evenodd"/>
      <path id="Caminho_1248" data-name="Caminho 1248" d="M232.043,58.346l11.64-36.556c3.335-10.084,10.254-15.381,21.934-14.321l-5.376,19.4c-3.453,11.876,12.768,10.648,16.285-.236l5.691-19.16C287.265,7.246,291.852,5.4,296.508,0c0,0-7.443,25.984-10.438,34.477-3.8,10.776-11.064,13.981-19.265,14.321H249.5q-11.633.078-16.113,9.7Z" transform="translate(-27.571 376.621)" fill="none" stroke="#00652c" stroke-width="1" fill-rule="evenodd"/>
      <path id="Caminho_1249" data-name="Caminho 1249" d="M232.043,58.346l11.64-36.556c3.335-10.084,10.254-15.381,21.934-14.321l-5.376,19.4c-3.453,11.876,12.768,10.648,16.285-.236l5.691-19.16C287.265,7.246,291.852,5.4,296.508,0c0,0-7.443,25.984-10.438,34.477-3.8,10.776-11.064,13.981-19.265,14.321H249.5q-11.633.078-16.113,9.7Z" transform="translate(-81.374 396.225)" fill="none" stroke="#00652c" stroke-width="1" fill-rule="evenodd"/>
      <path id="Caminho_1250" data-name="Caminho 1250" d="M232.043,58.346l11.64-36.556c3.335-10.084,10.254-15.381,21.934-14.321l-5.376,19.4c-3.453,11.876,12.768,10.648,16.285-.236l5.691-19.16C287.265,7.246,291.852,5.4,296.508,0c0,0-7.443,25.984-10.438,34.477-3.8,10.776-11.064,13.981-19.265,14.321H249.5q-11.633.078-16.113,9.7Z" transform="translate(-135.178 415.52)" fill="none" stroke="#00652c" stroke-width="1" fill-rule="evenodd"/>
      <path id="Caminho_1251" data-name="Caminho 1251" d="M232.043,58.346l11.64-36.556c3.335-10.084,10.254-15.381,21.934-14.321l-5.376,19.4c-3.453,11.876,12.768,10.648,16.285-.236l5.691-19.16C287.265,7.246,291.852,5.4,296.508,0c0,0-7.443,25.984-10.438,34.477-3.8,10.776-11.064,13.981-19.265,14.321H249.5q-11.633.078-16.113,9.7Z" transform="translate(-188.611 434.382)" fill="none" stroke="#00652c" stroke-width="1" fill-rule="evenodd"/>
      <path id="Caminho_1252" data-name="Caminho 1252" d="M232.043,58.346l11.64-36.556c3.335-10.084,10.254-15.381,21.934-14.321l-5.376,19.4c-3.453,11.876,12.768,10.648,16.285-.236l5.691-19.16C287.265,7.246,291.852,5.4,296.508,0c0,0-7.443,25.984-10.438,34.477-3.8,10.776-11.064,13.981-19.265,14.321H249.5q-11.633.078-16.113,9.7Z" transform="translate(188.136 299.052)" fill="none" stroke="#00652c" stroke-width="1" fill-rule="evenodd"/>
      <path id="Caminho_1253" data-name="Caminho 1253" d="M232.043,58.346l11.64-36.556c3.335-10.084,10.254-15.381,21.934-14.321l-5.376,19.4c-3.453,11.876,12.768,10.648,16.285-.236l5.691-19.16C287.265,7.246,291.852,5.4,296.508,0c0,0-7.443,25.984-10.438,34.477-3.8,10.776-11.064,13.981-19.265,14.321H249.5q-11.633.078-16.113,9.7Z" transform="translate(51.267 272.973)" fill="none" stroke="#00652c" stroke-width="1" fill-rule="evenodd"/>
      <path id="Caminho_1254" data-name="Caminho 1254" d="M232.043,58.346l11.64-36.556c3.335-10.084,10.254-15.381,21.934-14.321l-5.376,19.4c-3.453,11.876,12.768,10.648,16.285-.236l5.691-19.16C287.265,7.246,291.852,5.4,296.508,0c0,0-7.443,25.984-10.438,34.477-3.8,10.776-11.064,13.981-19.265,14.321H249.5q-11.633.078-16.113,9.7Z" transform="translate(-97.431 288.125)" fill="none" stroke="#00652c" stroke-width="1" fill-rule="evenodd"/>
      <path id="Caminho_1255" data-name="Caminho 1255" d="M232.043,58.346l11.64-36.556c3.335-10.084,10.254-15.381,21.934-14.321l-5.376,19.4c-3.453,11.876,12.768,10.648,16.285-.236l5.691-19.16C287.265,7.246,291.852,5.4,296.508,0c0,0-7.443,25.984-10.438,34.477-3.8,10.776-11.064,13.981-19.265,14.321H249.5q-11.633.078-16.113,9.7Z" transform="translate(-151.235 307.049)" fill="none" stroke="#00652c" stroke-width="1" fill-rule="evenodd"/>
      <path id="Caminho_1256" data-name="Caminho 1256" d="M232.043,58.346l11.64-36.556c3.335-10.084,10.254-15.381,21.934-14.321l-5.376,19.4c-3.453,11.876,12.768,10.648,16.285-.236l5.691-19.16C287.265,7.246,291.852,5.4,296.508,0c0,0-7.443,25.984-10.438,34.477-3.8,10.776-11.064,13.981-19.265,14.321H249.5q-11.633.078-16.113,9.7Z" transform="translate(-204.667 325.911)" fill="none" stroke="#00652c" stroke-width="1" fill-rule="evenodd"/>
      <path id="Caminho_1257" data-name="Caminho 1257" d="M232.043,58.346l11.64-36.556c3.335-10.084,10.254-15.381,21.934-14.321l-5.376,19.4c-3.453,11.876,12.768,10.648,16.285-.236l5.691-19.16C287.265,7.246,291.852,5.4,296.508,0c0,0-7.443,25.984-10.438,34.477-3.8,10.776-11.064,13.981-19.265,14.321H249.5q-11.633.078-16.113,9.7Z" transform="translate(117.691 211.298)" fill="none" stroke="#00652c" stroke-width="1" fill-rule="evenodd"/>
      <path id="Caminho_1260" data-name="Caminho 1260" d="M232.043,58.346l11.64-36.556c3.335-10.084,10.254-15.381,21.934-14.321l-5.376,19.4c-3.453,11.876,12.768,10.648,16.285-.236l5.691-19.16C287.265,7.246,291.852,5.4,296.508,0c0,0-7.443,25.984-10.438,34.477-3.8,10.776-11.064,13.981-19.265,14.321H249.5q-11.633.078-16.113,9.7Z" transform="translate(35.397 163.76)" fill="none" stroke="#00652c" stroke-width="1" fill-rule="evenodd"/>
      <path id="Caminho_1261" data-name="Caminho 1261" d="M232.043,58.346l11.64-36.556c3.335-10.084,10.254-15.381,21.934-14.321l-5.376,19.4c-3.453,11.876,12.768,10.648,16.285-.236l5.691-19.16C287.265,7.246,291.852,5.4,296.508,0c0,0-7.443,25.984-10.438,34.477-3.8,10.776-11.064,13.981-19.265,14.321H249.5q-11.633.078-16.113,9.7Z" transform="translate(-5.524 140.012)" fill="none" stroke="#00652c" stroke-width="1" fill-rule="evenodd"/>
      <path id="Caminho_1262" data-name="Caminho 1262" d="M232.043,58.346l11.64-36.556c3.335-10.084,10.254-15.381,21.934-14.321l-5.376,19.4c-3.453,11.876,12.768,10.648,16.285-.236l5.691-19.16C287.265,7.246,291.852,5.4,296.508,0c0,0-7.443,25.984-10.438,34.477-3.8,10.776-11.064,13.981-19.265,14.321H249.5q-11.633.078-16.113,9.7Z" transform="translate(-99.657 135.535)" fill="none" stroke="#00652c" stroke-width="1" fill-rule="evenodd"/>
      <path id="Caminho_1263" data-name="Caminho 1263" d="M232.043,58.346l11.64-36.556c3.335-10.084,10.254-15.381,21.934-14.321l-5.376,19.4c-3.453,11.876,12.768,10.648,16.285-.236l5.691-19.16C287.265,7.246,291.852,5.4,296.508,0c0,0-7.443,25.984-10.438,34.477-3.8,10.776-11.064,13.981-19.265,14.321H249.5q-11.633.078-16.113,9.7Z" transform="translate(-153.832 155.967)" fill="none" stroke="#00652c" stroke-width="1" fill-rule="evenodd"/>
      <path id="Caminho_1264" data-name="Caminho 1264" d="M232.043,58.346l11.64-36.556c3.335-10.084,10.254-15.381,21.934-14.321l-5.376,19.4c-3.453,11.876,12.768,10.648,16.285-.236l5.691-19.16C287.265,7.246,291.852,5.4,296.508,0c0,0-7.443,25.984-10.438,34.477-3.8,10.776-11.064,13.981-19.265,14.321H249.5q-11.633.078-16.113,9.7Z" transform="translate(-112.742 178.54)" fill="none" stroke="#00652c" stroke-width="1" fill-rule="evenodd"/>
      <path id="Caminho_1265" data-name="Caminho 1265" d="M232.043,58.346l11.64-36.556c3.335-10.084,10.254-15.381,21.934-14.321l-5.376,19.4c-3.453,11.876,12.768,10.648,16.285-.236l5.691-19.16C287.265,7.246,291.852,5.4,296.508,0c0,0-7.443,25.984-10.438,34.477-3.8,10.776-11.064,13.981-19.265,14.321H249.5q-11.633.078-16.113,9.7Z" transform="translate(-166.836 198.948)" fill="none" stroke="#00652c" stroke-width="1" fill-rule="evenodd"/>
      <path id="Caminho_1266" data-name="Caminho 1266" d="M232.043,58.346l11.64-36.556c3.335-10.084,10.254-15.381,21.934-14.321l-5.376,19.4c-3.453,11.876,12.768,10.648,16.285-.236l5.691-19.16C287.265,7.246,291.852,5.4,296.508,0c0,0-7.443,25.984-10.438,34.477-3.8,10.776-11.064,13.981-19.265,14.321H249.5q-11.633.078-16.113,9.7Z" transform="translate(-178.691 241.291)" fill="none" stroke="#00652c" stroke-width="1" fill-rule="evenodd"/>
      <path id="Caminho_1267" data-name="Caminho 1267" d="M232.043,58.346l11.64-36.556c3.335-10.084,10.254-15.381,21.934-14.321l-5.376,19.4c-3.453,11.876,12.768,10.648,16.285-.236l5.691-19.16C287.265,7.246,291.852,5.4,296.508,0c0,0-7.443,25.984-10.438,34.477-3.8,10.776-11.064,13.981-19.265,14.321H249.5q-11.633.078-16.113,9.7Z" transform="translate(-124.888 220.778)" fill="none" stroke="#00652c" stroke-width="1" fill-rule="evenodd"/>
      <path id="Caminho_1268" data-name="Caminho 1268" d="M232.043,58.346l11.64-36.556c3.335-10.084,10.254-15.381,21.934-14.321l-5.376,19.4c-3.453,11.876,12.768,10.648,16.285-.236l5.691-19.16C287.265,7.246,291.852,5.4,296.508,0c0,0-7.443,25.984-10.438,34.477-3.8,10.776-11.064,13.981-19.265,14.321H249.5q-11.633.078-16.113,9.7Z" transform="translate(-71.55 202.225)" fill="none" stroke="#00652c" stroke-width="1" fill-rule="evenodd"/>
      <path id="Caminho_1269" data-name="Caminho 1269" d="M232.043,58.346l11.64-36.556c3.335-10.084,10.254-15.381,21.934-14.321l-5.376,19.4c-3.453,11.876,12.768,10.648,16.285-.236l5.691-19.16C287.265,7.246,291.852,5.4,296.508,0c0,0-7.443,25.984-10.438,34.477-3.8,10.776-11.064,13.981-19.265,14.321H249.5q-11.633.078-16.113,9.7Z" transform="translate(-220.268 217.068)" fill="none" stroke="#00652c" stroke-width="1" fill-rule="evenodd"/>
      <path id="Caminho_1270" data-name="Caminho 1270" d="M232.043,58.346l11.64-36.556c3.335-10.084,10.254-15.381,21.934-14.321l-5.376,19.4c-3.453,11.876,12.768,10.648,16.285-.236l5.691-19.16C287.265,7.246,291.852,5.4,296.508,0c0,0-7.443,25.984-10.438,34.477-3.8,10.776-11.064,13.981-19.265,14.321H249.5q-11.633.078-16.113,9.7Z" transform="translate(-232.043 259.615)" fill="none" stroke="#00652c" stroke-width="1" fill-rule="evenodd"/>
      <path id="Caminho_1271" data-name="Caminho 1271" d="M232.043,58.346l11.64-36.556c3.335-10.084,10.254-15.381,21.934-14.321l-5.376,19.4c-3.453,11.876,12.768,10.648,16.285-.236l5.691-19.16C287.265,7.246,291.852,5.4,296.508,0c0,0-7.443,25.984-10.438,34.477-3.8,10.776-11.064,13.981-19.265,14.321H249.5q-11.633.078-16.113,9.7Z" transform="translate(-59.309 159.678)" fill="none" stroke="#00652c" stroke-width="1" fill-rule="evenodd"/>
      <path id="Caminho_1272" data-name="Caminho 1272" d="M232.043,58.346l11.64-36.556c3.335-10.084,10.254-15.381,21.934-14.321l-5.376,19.4c-3.453,11.876,12.768,10.648,16.285-.236l5.691-19.16C287.265,7.246,291.852,5.4,296.508,0c0,0-7.443,25.984-10.438,34.477-3.8,10.776-11.064,13.981-19.265,14.321H249.5q-11.633.078-16.113,9.7Z" transform="translate(-207.636 174.458)" fill="none" stroke="#00652c" stroke-width="1" fill-rule="evenodd"/>
      <path id="Caminho_1273" data-name="Caminho 1273" d="M232.043,58.346l11.64-36.556c3.335-10.084,10.254-15.381,21.934-14.321l-5.376,19.4c-3.453,11.876,12.768,10.648,16.285-.236l5.691-19.16C287.265,7.246,291.852,5.4,296.508,0c0,0-7.443,25.984-10.438,34.477-3.8,10.776-11.064,13.981-19.265,14.321H249.5q-11.633.078-16.113,9.7Z" transform="translate(48.298 120.779)" fill="none" stroke="#00652c" stroke-width="1" fill-rule="evenodd"/>
      <path id="Caminho_1274" data-name="Caminho 1274" d="M232.043,58.346l11.64-36.556c3.335-10.084,10.254-15.381,21.934-14.321l-5.376,19.4c-3.453,11.876,12.768,10.648,16.285-.236l5.691-19.16C287.265,7.246,291.852,5.4,296.508,0c0,0-7.443,25.984-10.438,34.477-3.8,10.776-11.064,13.981-19.265,14.321H249.5q-11.633.078-16.113,9.7Z" transform="translate(8.224 96.518)" fill="none" stroke="#00652c" stroke-width="1" fill-rule="evenodd"/>
      <path id="Caminho_1275" data-name="Caminho 1275" d="M232.043,58.346l11.64-36.556c3.335-10.084,10.254-15.381,21.934-14.321l-5.376,19.4c-3.453,11.876,12.768,10.648,16.285-.236l5.691-19.16C287.265,7.246,291.852,5.4,296.508,0c0,0-7.443,25.984-10.438,34.477-3.8,10.776-11.064,13.981-19.265,14.321H249.5q-11.633.078-16.113,9.7Z" transform="translate(-45.951 116.326)" fill="none" stroke="#00652c" stroke-width="1" fill-rule="evenodd"/>
      <path id="Caminho_1277" data-name="Caminho 1277" d="M232.043,58.346l11.64-36.556c3.335-10.084,10.254-15.381,21.934-14.321l-5.376,19.4c-3.453,11.876,12.768,10.648,16.285-.236l5.691-19.16C287.265,7.246,291.852,5.4,296.508,0c0,0-7.443,25.984-10.438,34.477-3.8,10.776-11.064,13.981-19.265,14.321H249.5q-11.633.078-16.113,9.7Z" transform="translate(235.941 468.891)" fill="none" stroke="#00652c" stroke-width="1" fill-rule="evenodd"/>
      <path id="Caminho_1278" data-name="Caminho 1278" d="M232.043,58.346l11.64-36.556c3.335-10.084,10.254-15.381,21.934-14.321l-5.376,19.4c-3.453,11.876,12.768,10.648,16.285-.236l5.691-19.16C287.265,7.246,291.852,5.4,296.508,0c0,0-7.443,25.984-10.438,34.477-3.8,10.776-11.064,13.981-19.265,14.321H249.5q-11.633.078-16.113,9.7Z" transform="translate(223.648 511.501)" fill="none" stroke="#00652c" stroke-width="1" fill-rule="evenodd"/>
      <path id="Caminho_1279" data-name="Caminho 1279" d="M232.043,58.346l11.64-36.556c3.335-10.084,10.254-15.381,21.934-14.321l-5.376,19.4c-3.453,11.876,12.768,10.648,16.285-.236l5.691-19.16C287.265,7.246,291.852,5.4,296.508,0c0,0-7.443,25.984-10.438,34.477-3.8,10.776-11.064,13.981-19.265,14.321H249.5q-11.633.078-16.113,9.7Z" transform="translate(289.226 452.564)" fill="none" stroke="#00652c" stroke-width="1" fill-rule="evenodd"/>
      <path id="Caminho_1280" data-name="Caminho 1280" d="M232.043,58.346l11.64-36.556c3.335-10.084,10.254-15.381,21.934-14.321l-5.376,19.4c-3.453,11.876,12.768,10.648,16.285-.236l5.691-19.16C287.265,7.246,291.852,5.4,296.508,0c0,0-7.443,25.984-10.438,34.477-3.8,10.776-11.064,13.981-19.265,14.321H249.5q-11.633.078-16.113,9.7Z" transform="translate(276.933 495.174)" fill="none" stroke="#00652c" stroke-width="1" fill-rule="evenodd"/>
      <path id="Caminho_1281" data-name="Caminho 1281" d="M232.043,58.346l11.64-36.556c3.335-10.084,10.254-15.381,21.934-14.321l-5.376,19.4c-3.453,11.876,12.768,10.648,16.285-.236l5.691-19.16C287.265,7.246,291.852,5.4,296.508,0c0,0-7.443,25.984-10.438,34.477-3.8,10.776-11.064,13.981-19.265,14.321H249.5q-11.633.078-16.113,9.7Z" transform="translate(264.156 538.155)" fill="none" stroke="#00652c" stroke-width="1" fill-rule="evenodd"/>
      <path id="Caminho_1282" data-name="Caminho 1282" d="M232.043,58.346l11.64-36.556c3.335-10.084,10.254-15.381,21.934-14.321l-5.376,19.4c-3.453,11.876,12.768,10.648,16.285-.236l5.691-19.16C287.265,7.246,291.852,5.4,296.508,0c0,0-7.443,25.984-10.438,34.477-3.8,10.776-11.064,13.981-19.265,14.321H249.5q-11.633.078-16.113,9.7Z" transform="translate(322.201 507.048)" fill="none" stroke="#00652c" stroke-width="1" fill-rule="evenodd"/>
      <path id="Caminho_1283" data-name="Caminho 1283" d="M232.043,58.346l11.64-36.556c3.335-10.084,10.254-15.381,21.934-14.321l-5.376,19.4c-3.453,11.876,12.768,10.648,16.285-.236l5.691-19.16C287.265,7.246,291.852,5.4,296.508,0c0,0-7.443,25.984-10.438,34.477-3.8,10.776-11.064,13.981-19.265,14.321H249.5q-11.633.078-16.113,9.7Z" transform="translate(335.083 463.634)" fill="none" stroke="#00652c" stroke-width="1" fill-rule="evenodd"/>
      <path id="Caminho_1284" data-name="Caminho 1284" d="M232.043,58.346l11.64-36.556c3.335-10.084,10.254-15.381,21.934-14.321l-5.376,19.4c-3.453,11.876,12.768,10.648,16.285-.236l5.691-19.16C287.265,7.246,291.852,5.4,296.508,0c0,0-7.443,25.984-10.438,34.477-3.8,10.776-11.064,13.981-19.265,14.321H249.5q-11.633.078-16.113,9.7Z" transform="translate(-152.735 0)" fill="none" stroke="#00652c" stroke-width="1" fill-rule="evenodd"/>
      <path id="Caminho_1285" data-name="Caminho 1285" d="M232.043,58.346l11.64-36.556c3.335-10.084,10.254-15.381,21.934-14.321l-5.376,19.4c-3.453,11.876,12.768,10.648,16.285-.236l5.691-19.16C287.265,7.246,291.852,5.4,296.508,0c0,0-7.443,25.984-10.438,34.477-3.8,10.776-11.064,13.981-19.265,14.321H249.5q-11.633.078-16.113,9.7Z" transform="translate(373.201 501.048)" fill="none" stroke="#00652c" stroke-width="1" fill-rule="evenodd"/>
    </g>
  </g>
</svg>
