<svg xmlns="http://www.w3.org/2000/svg" xmlns:xlink="http://www.w3.org/1999/xlink" width="74" height="74" viewBox="0 0 74 74">
  <defs>
    <filter id="Caminho_699" x="0" y="0" width="74" height="74" filterUnits="userSpaceOnUse">
      <feOffset dy="2" input="SourceAlpha"/>
      <feGaussianBlur stdDeviation="2" result="blur"/>
      <feFlood flood-opacity="0.161"/>
      <feComposite operator="in" in2="blur"/>
      <feComposite in="SourceGraphic"/>
    </filter>
  </defs>
  <g id="Grupo_1980" data-name="Grupo 1980" transform="translate(-1523.809 -736)">
    <g transform="matrix(1, 0, 0, 1, 1523.81, 736)" filter="url(#Caminho_699)">
      <path id="Caminho_699-2" data-name="Caminho 699" d="M31,0A31,31,0,1,1,0,31,31,31,0,0,1,31,0Z" transform="translate(6 4)" fill="#009a4d"/>
    </g>
    <g id="Grupo_1979" data-name="Grupo 1979" transform="translate(1542.362 752.362)">
      <path id="Caminho_670" data-name="Caminho 670" d="M28.543,962.362a18.539,18.539,0,0,0-15.269,29.06.927.927,0,0,1,.116.8l-1.883,6.3,6.171-2.129a.927.927,0,0,1,.8.1,18.548,18.548,0,1,0,10.068-34.13Zm-7.591,8.083,3.375,5.577-1.405,1.391a.927.927,0,0,0-.145,1.115c2.144,3.713,4.685,6.6,8.243,8.17a.927.927,0,0,0,1.029-.188l1.492-1.492,5.447,3.4a5.15,5.15,0,0,1-2.289,2.636,5.557,5.557,0,0,1-3.766.348c-2.9-.6-6.412-2.885-9.271-5.809s-5.071-6.48-5.635-9.373a5.443,5.443,0,0,1,.377-3.679A4.69,4.69,0,0,1,20.952,970.445Z" transform="translate(-10 -962.362)" fill="#fff" fill-rule="evenodd"/>
    </g>
  </g>
</svg>
